<svg width="844" height="394" viewBox="0 0 844 394" fill="none" xmlns="http://www.w3.org/2000/svg">
<g filter="url(#filter0_dd_2732_1863)">
<rect x="8" y="10" width="828" height="374" rx="5" fill="white"/>
<path d="M674 46C674 43.7909 675.791 42 678 42H784C786.209 42 788 43.7909 788 46V78C788 80.2091 786.209 82 784 82H678C675.791 82 674 80.2091 674 78V46Z" fill="white"/>
<g opacity="0.8">
<path d="M700 55H688C686.895 55 686 55.8954 686 57V69C686 70.1046 686.895 71 688 71H700C701.105 71 702 70.1046 702 69V57C702 55.8954 701.105 55 700 55Z" stroke="#2C333A" stroke-width="1.5" stroke-linecap="round" stroke-linejoin="round"/>
<path d="M698 53V57" stroke="#2C333A" stroke-width="1.5" stroke-linecap="round" stroke-linejoin="round"/>
<path d="M690 53V57" stroke="#2C333A" stroke-width="1.5" stroke-linecap="round" stroke-linejoin="round"/>
<path d="M686 61H702" stroke="#2C333A" stroke-width="1.5" stroke-linecap="round" stroke-linejoin="round"/>
<path d="M692 66H696" stroke="#2C333A" stroke-width="1.5" stroke-linecap="round" stroke-linejoin="round"/>
</g>
<path d="M715.932 66.5C715.661 66.5 715.447 66.4253 715.288 66.276C715.139 66.1267 715.064 65.9167 715.064 65.646V57.484C715.064 57.2133 715.139 57.0033 715.288 56.854C715.447 56.7047 715.661 56.63 715.932 56.63H718.704C720.319 56.63 721.569 57.064 722.456 57.932C723.352 58.7907 723.8 59.9993 723.8 61.558C723.8 63.126 723.352 64.344 722.456 65.212C721.569 66.0707 720.319 66.5 718.704 66.5H715.932ZM718.592 65.03C720.86 65.03 721.994 63.8727 721.994 61.558C721.994 59.2527 720.86 58.1 718.592 58.1H716.87V65.03H718.592ZM730.883 64.624C731.041 64.624 731.167 64.6847 731.261 64.806C731.363 64.9273 731.415 65.0907 731.415 65.296C731.415 65.5853 731.242 65.828 730.897 66.024C730.579 66.2013 730.22 66.346 729.819 66.458C729.417 66.5607 729.035 66.612 728.671 66.612C727.569 66.612 726.697 66.2947 726.053 65.66C725.409 65.0253 725.087 64.1573 725.087 63.056C725.087 62.356 725.227 61.7353 725.507 61.194C725.787 60.6527 726.179 60.2327 726.683 59.934C727.196 59.6353 727.775 59.486 728.419 59.486C729.035 59.486 729.571 59.6213 730.029 59.892C730.486 60.1627 730.841 60.5453 731.093 61.04C731.345 61.5347 731.471 62.118 731.471 62.79C731.471 63.1913 731.293 63.392 730.939 63.392H726.809C726.865 64.036 727.047 64.512 727.355 64.82C727.663 65.1187 728.111 65.268 728.699 65.268C728.997 65.268 729.259 65.2307 729.483 65.156C729.716 65.0813 729.977 64.9787 730.267 64.848C730.547 64.6987 730.752 64.624 730.883 64.624ZM728.461 60.718C727.985 60.718 727.602 60.8673 727.313 61.166C727.033 61.4647 726.865 61.894 726.809 62.454H729.973C729.954 61.8847 729.814 61.4553 729.553 61.166C729.291 60.8673 728.927 60.718 728.461 60.718ZM735.94 66.612C735.259 66.612 734.657 66.4673 734.134 66.178C733.621 65.8887 733.224 65.478 732.944 64.946C732.664 64.414 732.524 63.7933 732.524 63.084C732.524 62.3747 732.669 61.7493 732.958 61.208C733.257 60.6573 733.672 60.2327 734.204 59.934C734.736 59.6353 735.348 59.486 736.038 59.486C736.402 59.486 736.766 59.5373 737.13 59.64C737.504 59.7427 737.83 59.8827 738.11 60.06C738.409 60.256 738.558 60.5033 738.558 60.802C738.558 61.0073 738.507 61.1753 738.404 61.306C738.311 61.4273 738.185 61.488 738.026 61.488C737.924 61.488 737.816 61.4647 737.704 61.418C737.592 61.3713 737.48 61.3153 737.368 61.25C737.163 61.1287 736.967 61.0353 736.78 60.97C736.594 60.8953 736.379 60.858 736.136 60.858C735.558 60.858 735.11 61.0493 734.792 61.432C734.484 61.8053 734.33 62.3467 734.33 63.056C734.33 63.756 734.484 64.2973 734.792 64.68C735.11 65.0533 735.558 65.24 736.136 65.24C736.37 65.24 736.575 65.2073 736.752 65.142C736.939 65.0673 737.144 64.9693 737.368 64.848C737.508 64.764 737.63 64.7033 737.732 64.666C737.835 64.6193 737.938 64.596 738.04 64.596C738.19 64.596 738.316 64.6613 738.418 64.792C738.521 64.9227 738.572 65.086 738.572 65.282C738.572 65.4407 738.535 65.5807 738.46 65.702C738.395 65.814 738.283 65.9167 738.124 66.01C737.835 66.1967 737.499 66.346 737.116 66.458C736.734 66.5607 736.342 66.612 735.94 66.612ZM745.156 64.624C745.315 64.624 745.441 64.6847 745.534 64.806C745.637 64.9273 745.688 65.0907 745.688 65.296C745.688 65.5853 745.515 65.828 745.17 66.024C744.853 66.2013 744.493 66.346 744.092 66.458C743.691 66.5607 743.308 66.612 742.944 66.612C741.843 66.612 740.97 66.2947 740.326 65.66C739.682 65.0253 739.36 64.1573 739.36 63.056C739.36 62.356 739.5 61.7353 739.78 61.194C740.06 60.6527 740.452 60.2327 740.956 59.934C741.469 59.6353 742.048 59.486 742.692 59.486C743.308 59.486 743.845 59.6213 744.302 59.892C744.759 60.1627 745.114 60.5453 745.366 61.04C745.618 61.5347 745.744 62.118 745.744 62.79C745.744 63.1913 745.567 63.392 745.212 63.392H741.082C741.138 64.036 741.32 64.512 741.628 64.82C741.936 65.1187 742.384 65.268 742.972 65.268C743.271 65.268 743.532 65.2307 743.756 65.156C743.989 65.0813 744.251 64.9787 744.54 64.848C744.82 64.6987 745.025 64.624 745.156 64.624ZM742.734 60.718C742.258 60.718 741.875 60.8673 741.586 61.166C741.306 61.4647 741.138 61.894 741.082 62.454H744.246C744.227 61.8847 744.087 61.4553 743.826 61.166C743.565 60.8673 743.201 60.718 742.734 60.718ZM755.31 59.486C756.056 59.486 756.626 59.71 757.018 60.158C757.419 60.5967 757.62 61.3107 757.62 62.3V65.744C757.62 66.0147 757.536 66.2247 757.368 66.374C757.209 66.514 756.999 66.584 756.738 66.584C756.486 66.584 756.276 66.514 756.108 66.374C755.949 66.2247 755.87 66.0147 755.87 65.744V62.3C755.87 61.7867 755.776 61.4227 755.59 61.208C755.412 60.984 755.137 60.872 754.764 60.872C754.306 60.872 753.942 61.0307 753.672 61.348C753.401 61.656 753.266 62.0807 753.266 62.622V65.744C753.266 66.0147 753.182 66.2247 753.014 66.374C752.855 66.514 752.65 66.584 752.398 66.584C752.146 66.584 751.936 66.514 751.768 66.374C751.6 66.2247 751.516 66.0147 751.516 65.744V62.3C751.516 61.7867 751.422 61.4227 751.236 61.208C751.058 60.984 750.783 60.872 750.41 60.872C749.952 60.872 749.588 61.0307 749.318 61.348C749.056 61.656 748.926 62.0807 748.926 62.622V65.744C748.926 66.0147 748.842 66.2247 748.674 66.374C748.506 66.514 748.296 66.584 748.044 66.584C747.792 66.584 747.582 66.514 747.414 66.374C747.255 66.2247 747.176 66.0147 747.176 65.744V60.326C747.176 60.0647 747.26 59.864 747.428 59.724C747.596 59.584 747.806 59.514 748.058 59.514C748.3 59.514 748.496 59.584 748.646 59.724C748.804 59.8547 748.884 60.046 748.884 60.298V60.634C749.098 60.2607 749.383 59.976 749.738 59.78C750.102 59.584 750.517 59.486 750.984 59.486C752.01 59.486 752.696 59.9153 753.042 60.774C753.247 60.382 753.55 60.0693 753.952 59.836C754.353 59.6027 754.806 59.486 755.31 59.486ZM763.332 59.486C763.93 59.486 764.457 59.6307 764.914 59.92C765.372 60.2093 765.726 60.62 765.978 61.152C766.24 61.684 766.37 62.3047 766.37 63.014C766.37 63.7233 766.24 64.3533 765.978 64.904C765.726 65.4453 765.367 65.8653 764.9 66.164C764.443 66.4627 763.92 66.612 763.332 66.612C762.838 66.612 762.394 66.5047 762.002 66.29C761.62 66.0753 761.326 65.7767 761.12 65.394V65.744C761.12 65.996 761.041 66.1967 760.882 66.346C760.724 66.4953 760.514 66.57 760.252 66.57C759.991 66.57 759.781 66.4953 759.622 66.346C759.473 66.1967 759.398 65.996 759.398 65.744V57.372C759.398 57.1293 759.478 56.9333 759.636 56.784C759.804 56.6347 760.019 56.56 760.28 56.56C760.542 56.56 760.752 56.63 760.91 56.77C761.069 56.91 761.148 57.1013 761.148 57.344V60.648C761.354 60.2747 761.648 59.99 762.03 59.794C762.413 59.5887 762.847 59.486 763.332 59.486ZM762.87 65.254C763.421 65.254 763.85 65.058 764.158 64.666C764.466 64.274 764.62 63.7233 764.62 63.014C764.62 62.314 764.466 61.7773 764.158 61.404C763.86 61.0307 763.43 60.844 762.87 60.844C762.31 60.844 761.876 61.0353 761.568 61.418C761.27 61.7913 761.12 62.3327 761.12 63.042C761.12 63.7513 761.27 64.2973 761.568 64.68C761.876 65.0627 762.31 65.254 762.87 65.254ZM773.224 64.624C773.383 64.624 773.509 64.6847 773.602 64.806C773.705 64.9273 773.756 65.0907 773.756 65.296C773.756 65.5853 773.584 65.828 773.238 66.024C772.921 66.2013 772.562 66.346 772.16 66.458C771.759 66.5607 771.376 66.612 771.012 66.612C769.911 66.612 769.038 66.2947 768.394 65.66C767.75 65.0253 767.428 64.1573 767.428 63.056C767.428 62.356 767.568 61.7353 767.848 61.194C768.128 60.6527 768.52 60.2327 769.024 59.934C769.538 59.6353 770.116 59.486 770.76 59.486C771.376 59.486 771.913 59.6213 772.37 59.892C772.828 60.1627 773.182 60.5453 773.434 61.04C773.686 61.5347 773.812 62.118 773.812 62.79C773.812 63.1913 773.635 63.392 773.28 63.392H769.15C769.206 64.036 769.388 64.512 769.696 64.82C770.004 65.1187 770.452 65.268 771.04 65.268C771.339 65.268 771.6 65.2307 771.824 65.156C772.058 65.0813 772.319 64.9787 772.608 64.848C772.888 64.6987 773.094 64.624 773.224 64.624ZM770.802 60.718C770.326 60.718 769.944 60.8673 769.654 61.166C769.374 61.4647 769.206 61.894 769.15 62.454H772.314C772.296 61.8847 772.156 61.4553 771.894 61.166C771.633 60.8673 771.269 60.718 770.802 60.718ZM779.066 59.514C779.309 59.4953 779.5 59.5467 779.64 59.668C779.78 59.7893 779.85 59.9713 779.85 60.214C779.85 60.466 779.789 60.6527 779.668 60.774C779.547 60.8953 779.327 60.9747 779.01 61.012L778.59 61.054C778.039 61.11 777.633 61.2967 777.372 61.614C777.12 61.9313 776.994 62.328 776.994 62.804V65.744C776.994 66.0147 776.91 66.2247 776.742 66.374C776.574 66.514 776.364 66.584 776.112 66.584C775.86 66.584 775.65 66.514 775.482 66.374C775.323 66.2247 775.244 66.0147 775.244 65.744V60.326C775.244 60.0647 775.323 59.864 775.482 59.724C775.65 59.584 775.855 59.514 776.098 59.514C776.341 59.514 776.537 59.584 776.686 59.724C776.835 59.8547 776.91 60.046 776.91 60.298V60.858C777.087 60.4473 777.349 60.13 777.694 59.906C778.049 59.682 778.441 59.556 778.87 59.528L779.066 59.514Z" fill="#2C333A"/>
<line x1="98" y1="178.399" x2="788" y2="178.399" stroke="#2C333A" stroke-opacity="0.3" stroke-width="1.2" stroke-dasharray="4.8 7.2"/>
<line x1="98" y1="226.399" x2="788" y2="226.399" stroke="#2C333A" stroke-opacity="0.3" stroke-width="1.2" stroke-dasharray="4.8 7.2"/>
<line x1="98" y1="274.399" x2="788" y2="274.399" stroke="#2C333A" stroke-opacity="0.3" stroke-width="1.2" stroke-dasharray="4.8 7.2"/>
<line x1="98" y1="322.399" x2="788" y2="322.399" stroke="#2C333A" stroke-opacity="0.3" stroke-width="1.2" stroke-dasharray="4.8 7.2"/>
<path opacity="0.6" d="M788 318C772.302 308.544 693.909 286.286 677.76 286.286C665.16 286.286 653.076 291.648 640.917 297.043C631.827 301.076 622.695 305.127 613.276 306.971C592.83 311.28 570.811 302.662 550.365 290.595C528.346 278.529 506.327 262.154 485.881 238.021C480.993 232.665 476.183 226.926 471.416 221.238C454.708 201.303 438.528 182 421.397 182C409.01 182 396.045 193.705 382.853 205.615C374.271 213.364 365.592 221.199 356.913 225.955C344.2 233.458 330.879 233.297 317.707 233.137C309.694 233.04 301.735 232.944 294.002 234.574C273.678 237.756 254.694 251.953 234.576 266.997C232.898 268.252 231.213 269.512 229.518 270.772C209.072 286.286 187.053 302.662 165.034 311.28C144.588 319.037 122.569 319.037 102.123 298.352C99.3858 295.888 96.6732 293.105 94 290.081" stroke="#2C333A" stroke-width="3" stroke-linecap="round"/>
<path d="M415 182C415 177.029 419.029 173 424 173C428.971 173 433 177.029 433 182C433 186.971 428.971 191 424 191C419.029 191 415 186.971 415 182Z" fill="#BC658D"/>
<path d="M108.944 356.81C109.168 356.81 109.336 356.861 109.448 356.964C109.56 357.067 109.616 357.211 109.616 357.398C109.616 357.799 109.392 358 108.944 358H104.268C103.811 358 103.582 357.799 103.582 357.398C103.582 357.211 103.638 357.067 103.75 356.964C103.871 356.861 104.044 356.81 104.268 356.81H105.878V349.824L104.436 350.734C104.343 350.79 104.249 350.818 104.156 350.818C103.997 350.818 103.857 350.748 103.736 350.608C103.624 350.468 103.568 350.309 103.568 350.132C103.568 349.917 103.661 349.749 103.848 349.628L106.004 348.256C106.219 348.125 106.424 348.06 106.62 348.06C106.825 348.06 106.993 348.125 107.124 348.256C107.255 348.387 107.32 348.564 107.32 348.788V356.81H108.944Z" fill="#2C333A"/>
<path d="M183.042 356.81C183.266 356.81 183.434 356.861 183.546 356.964C183.667 357.067 183.728 357.211 183.728 357.398C183.728 357.799 183.499 358 183.042 358H177.638C177.433 358 177.269 357.944 177.148 357.832C177.036 357.711 176.98 357.561 176.98 357.384C176.98 357.169 177.064 356.973 177.232 356.796L180.522 353.198C180.961 352.722 181.278 352.288 181.474 351.896C181.67 351.504 181.768 351.117 181.768 350.734C181.768 350.239 181.623 349.861 181.334 349.6C181.054 349.329 180.653 349.194 180.13 349.194C179.337 349.194 178.548 349.497 177.764 350.104C177.661 350.169 177.573 350.221 177.498 350.258C177.433 350.286 177.363 350.3 177.288 350.3C177.157 350.3 177.045 350.239 176.952 350.118C176.859 349.997 176.812 349.852 176.812 349.684C176.812 349.451 176.905 349.264 177.092 349.124C177.484 348.788 177.955 348.522 178.506 348.326C179.057 348.121 179.612 348.018 180.172 348.018C181.096 348.018 181.829 348.256 182.37 348.732C182.921 349.199 183.196 349.833 183.196 350.636C183.196 351.205 183.07 351.747 182.818 352.26C182.575 352.773 182.165 353.347 181.586 353.982L178.94 356.81H183.042Z" fill="#2C333A"/>
<path d="M255.614 352.932C256.211 353.1 256.664 353.389 256.972 353.8C257.28 354.201 257.434 354.71 257.434 355.326C257.434 356.185 257.131 356.861 256.524 357.356C255.927 357.851 255.115 358.098 254.088 358.098C253.481 358.098 252.898 358 252.338 357.804C251.787 357.608 251.321 357.337 250.938 356.992C250.751 356.843 250.658 356.656 250.658 356.432C250.658 356.264 250.705 356.124 250.798 356.012C250.891 355.891 251.003 355.83 251.134 355.83C251.274 355.83 251.433 355.891 251.61 356.012C252.011 356.311 252.403 356.539 252.786 356.698C253.178 356.847 253.598 356.922 254.046 356.922C255.371 356.922 256.034 356.357 256.034 355.228C256.034 354.677 255.857 354.267 255.502 353.996C255.157 353.716 254.629 353.576 253.92 353.576H253.15C252.973 353.576 252.833 353.52 252.73 353.408C252.627 353.287 252.576 353.147 252.576 352.988C252.576 352.839 252.627 352.708 252.73 352.596C252.833 352.475 252.973 352.414 253.15 352.414H253.696C254.377 352.414 254.895 352.274 255.25 351.994C255.614 351.705 255.796 351.285 255.796 350.734C255.796 350.249 255.647 349.871 255.348 349.6C255.059 349.329 254.648 349.194 254.116 349.194C253.332 349.194 252.548 349.497 251.764 350.104C251.587 350.225 251.428 350.286 251.288 350.286C251.157 350.286 251.045 350.23 250.952 350.118C250.859 349.997 250.812 349.852 250.812 349.684C250.812 349.46 250.905 349.273 251.092 349.124C251.475 348.779 251.937 348.508 252.478 348.312C253.029 348.116 253.593 348.018 254.172 348.018C255.096 348.018 255.829 348.247 256.37 348.704C256.921 349.161 257.196 349.782 257.196 350.566C257.196 351.126 257.056 351.616 256.776 352.036C256.505 352.447 256.118 352.745 255.614 352.932Z" fill="#2C333A"/>
<path d="M331.406 354.808C331.863 354.808 332.092 354.999 332.092 355.382C332.092 355.765 331.863 355.956 331.406 355.956H330.51V357.342C330.51 357.575 330.445 357.757 330.314 357.888C330.183 358.009 330.011 358.07 329.796 358.07C329.591 358.07 329.423 358.009 329.292 357.888C329.161 357.757 329.096 357.575 329.096 357.342V355.956H325.162C324.957 355.956 324.798 355.9 324.686 355.788C324.574 355.676 324.518 355.531 324.518 355.354C324.518 355.167 324.579 354.985 324.7 354.808L329.166 348.382C329.315 348.167 329.525 348.06 329.796 348.06C329.992 348.06 330.16 348.125 330.3 348.256C330.44 348.377 330.51 348.555 330.51 348.788V354.808H331.406ZM329.096 354.808V350.44L326.072 354.808H329.096Z" fill="#2C333A"/>
<path d="M402.648 351.756C403.264 351.756 403.805 351.887 404.272 352.148C404.748 352.409 405.117 352.778 405.378 353.254C405.639 353.73 405.77 354.276 405.77 354.892C405.77 355.517 405.625 356.073 405.336 356.558C405.047 357.043 404.641 357.421 404.118 357.692C403.605 357.963 403.012 358.098 402.34 358.098C401.761 358.098 401.192 358 400.632 357.804C400.081 357.608 399.619 357.337 399.246 356.992C399.059 356.833 398.966 356.647 398.966 356.432C398.966 356.264 399.013 356.124 399.106 356.012C399.199 355.891 399.311 355.83 399.442 355.83C399.526 355.83 399.601 355.844 399.666 355.872C399.741 355.9 399.825 355.947 399.918 356.012C400.301 356.311 400.683 356.539 401.066 356.698C401.458 356.847 401.869 356.922 402.298 356.922C402.951 356.922 403.46 356.749 403.824 356.404C404.188 356.049 404.37 355.555 404.37 354.92C404.37 354.313 404.183 353.828 403.81 353.464C403.446 353.1 402.956 352.918 402.34 352.918C401.939 352.918 401.579 352.988 401.262 353.128C400.945 353.259 400.646 353.469 400.366 353.758C400.226 353.889 400.058 353.954 399.862 353.954C399.703 353.954 399.568 353.907 399.456 353.814C399.353 353.711 399.302 353.581 399.302 353.422V348.816C399.302 348.601 399.358 348.433 399.47 348.312C399.591 348.191 399.764 348.13 399.988 348.13H404.804C405.019 348.13 405.187 348.181 405.308 348.284C405.429 348.387 405.49 348.527 405.49 348.704C405.49 348.891 405.429 349.035 405.308 349.138C405.187 349.241 405.019 349.292 404.804 349.292H400.73V352.4C401.243 351.971 401.883 351.756 402.648 351.756Z" fill="#2C333A"/>
<path d="M476.704 351.742C477.292 351.742 477.819 351.877 478.286 352.148C478.753 352.409 479.112 352.778 479.364 353.254C479.625 353.73 479.756 354.276 479.756 354.892C479.756 355.508 479.616 356.063 479.336 356.558C479.056 357.043 478.669 357.426 478.174 357.706C477.689 357.977 477.133 358.112 476.508 358.112C475.285 358.112 474.343 357.697 473.68 356.866C473.027 356.026 472.7 354.831 472.7 353.282C472.7 352.19 472.854 351.252 473.162 350.468C473.47 349.675 473.913 349.068 474.492 348.648C475.071 348.228 475.757 348.018 476.55 348.018C477.082 348.018 477.614 348.116 478.146 348.312C478.678 348.508 479.131 348.779 479.504 349.124C479.691 349.283 479.784 349.469 479.784 349.684C479.784 349.852 479.737 349.997 479.644 350.118C479.551 350.23 479.439 350.286 479.308 350.286C479.224 350.286 479.145 350.272 479.07 350.244C479.005 350.216 478.925 350.169 478.832 350.104C478.048 349.497 477.301 349.194 476.592 349.194C475.817 349.194 475.215 349.553 474.786 350.272C474.357 350.981 474.142 351.975 474.142 353.254V353.282C474.347 352.806 474.679 352.433 475.136 352.162C475.603 351.882 476.125 351.742 476.704 351.742ZM476.438 356.936C477.017 356.936 477.479 356.754 477.824 356.39C478.179 356.017 478.356 355.527 478.356 354.92C478.356 354.323 478.179 353.842 477.824 353.478C477.479 353.105 477.017 352.918 476.438 352.918C475.85 352.918 475.369 353.105 474.996 353.478C474.632 353.842 474.45 354.323 474.45 354.92C474.45 355.527 474.632 356.017 474.996 356.39C475.36 356.754 475.841 356.936 476.438 356.936Z" fill="#2C333A"/>
<path d="M553.042 348.13C553.247 348.13 553.401 348.186 553.504 348.298C553.616 348.41 553.672 348.555 553.672 348.732C553.672 348.9 553.621 349.077 553.518 349.264L548.94 357.72C548.791 357.981 548.585 358.112 548.324 358.112C548.147 358.112 547.983 358.051 547.834 357.93C547.694 357.799 547.624 357.641 547.624 357.454C547.624 357.342 547.661 357.211 547.736 357.062L551.95 349.32H547.4C547.176 349.32 547.008 349.269 546.896 349.166C546.784 349.063 546.728 348.919 546.728 348.732C546.728 348.331 546.952 348.13 547.4 348.13H553.042Z" fill="#2C333A"/>
<path d="M625.992 352.932C626.571 353.1 627.019 353.399 627.336 353.828C627.653 354.257 627.812 354.771 627.812 355.368C627.812 356.227 627.495 356.899 626.86 357.384C626.235 357.86 625.348 358.098 624.2 358.098C623.052 358.098 622.161 357.86 621.526 357.384C620.901 356.899 620.588 356.227 620.588 355.368C620.588 354.761 620.747 354.243 621.064 353.814C621.391 353.385 621.843 353.091 622.422 352.932C621.927 352.745 621.535 352.451 621.246 352.05C620.966 351.649 620.826 351.182 620.826 350.65C620.826 349.838 621.125 349.199 621.722 348.732C622.319 348.256 623.145 348.018 624.2 348.018C625.255 348.018 626.081 348.256 626.678 348.732C627.275 349.199 627.574 349.838 627.574 350.65C627.574 351.182 627.429 351.653 627.14 352.064C626.86 352.465 626.477 352.755 625.992 352.932ZM624.2 349.18C623.547 349.18 623.052 349.32 622.716 349.6C622.38 349.871 622.212 350.263 622.212 350.776C622.212 351.308 622.38 351.714 622.716 351.994C623.052 352.274 623.547 352.414 624.2 352.414C624.853 352.414 625.348 352.274 625.684 351.994C626.02 351.714 626.188 351.308 626.188 350.776C626.188 350.263 626.02 349.871 625.684 349.6C625.348 349.32 624.853 349.18 624.2 349.18ZM624.2 356.936C625.684 356.936 626.426 356.381 626.426 355.27C626.426 354.15 625.684 353.59 624.2 353.59C622.716 353.59 621.974 354.15 621.974 355.27C621.974 356.381 622.716 356.936 624.2 356.936Z" fill="#2C333A"/>
<path d="M697.892 348.018C699.115 348.018 700.053 348.438 700.706 349.278C701.369 350.109 701.7 351.299 701.7 352.848C701.7 353.94 701.546 354.883 701.238 355.676C700.93 356.46 700.487 357.062 699.908 357.482C699.329 357.902 698.643 358.112 697.85 358.112C697.318 358.112 696.786 358.014 696.254 357.818C695.722 357.622 695.269 357.351 694.896 357.006C694.709 356.847 694.616 356.661 694.616 356.446C694.616 356.278 694.663 356.138 694.756 356.026C694.849 355.905 694.961 355.844 695.092 355.844C695.176 355.844 695.251 355.858 695.316 355.886C695.391 355.914 695.475 355.961 695.568 356.026C696.352 356.633 697.099 356.936 697.808 356.936C698.583 356.936 699.185 356.581 699.614 355.872C700.043 355.153 700.258 354.155 700.258 352.876V352.848C700.053 353.324 699.717 353.702 699.25 353.982C698.793 354.253 698.275 354.388 697.696 354.388C697.108 354.388 696.581 354.257 696.114 353.996C695.647 353.725 695.283 353.352 695.022 352.876C694.77 352.4 694.644 351.854 694.644 351.238C694.644 350.622 694.784 350.071 695.064 349.586C695.344 349.091 695.727 348.709 696.212 348.438C696.707 348.158 697.267 348.018 697.892 348.018ZM697.962 353.212C698.55 353.212 699.026 353.03 699.39 352.666C699.763 352.293 699.95 351.807 699.95 351.21C699.95 350.603 699.768 350.118 699.404 349.754C699.04 349.381 698.559 349.194 697.962 349.194C697.383 349.194 696.917 349.381 696.562 349.754C696.217 350.118 696.044 350.603 696.044 351.21C696.044 351.807 696.217 352.293 696.562 352.666C696.917 353.03 697.383 353.212 697.962 353.212Z" fill="#2C333A"/>
<path d="M775.155 356.81C775.379 356.81 775.547 356.861 775.659 356.964C775.771 357.067 775.827 357.211 775.827 357.398C775.827 357.799 775.603 358 775.155 358H770.479C770.022 358 769.793 357.799 769.793 357.398C769.793 357.211 769.849 357.067 769.961 356.964C770.082 356.861 770.255 356.81 770.479 356.81H772.089V349.824L770.647 350.734C770.554 350.79 770.46 350.818 770.367 350.818C770.208 350.818 770.068 350.748 769.947 350.608C769.835 350.468 769.779 350.309 769.779 350.132C769.779 349.917 769.872 349.749 770.059 349.628L772.215 348.256C772.43 348.125 772.635 348.06 772.831 348.06C773.036 348.06 773.204 348.125 773.335 348.256C773.466 348.387 773.531 348.564 773.531 348.788V356.81H775.155ZM780.805 358.112C779.657 358.112 778.78 357.683 778.173 356.824C777.576 355.965 777.277 354.715 777.277 353.072C777.277 351.42 777.576 350.165 778.173 349.306C778.78 348.447 779.657 348.018 780.805 348.018C781.953 348.018 782.826 348.447 783.423 349.306C784.03 350.155 784.333 351.406 784.333 353.058C784.333 354.71 784.03 355.965 783.423 356.824C782.826 357.683 781.953 358.112 780.805 358.112ZM780.805 356.95C781.524 356.95 782.051 356.637 782.387 356.012C782.723 355.387 782.891 354.402 782.891 353.058C782.891 351.714 782.723 350.734 782.387 350.118C782.051 349.493 781.524 349.18 780.805 349.18C780.087 349.18 779.559 349.493 779.223 350.118C778.887 350.734 778.719 351.714 778.719 353.058C778.719 354.393 778.887 355.377 779.223 356.012C779.559 356.637 780.087 356.95 780.805 356.95Z" fill="#2C333A"/>
<path d="M61.812 323.283C61.812 324.02 61.546 324.641 61.014 325.145C60.4913 325.649 59.796 325.957 58.928 326.069V327.063C58.928 327.25 58.872 327.399 58.76 327.511C58.6573 327.623 58.5173 327.679 58.34 327.679C58.1627 327.679 58.018 327.623 57.906 327.511C57.8033 327.399 57.752 327.25 57.752 327.063V326.097C57.192 326.05 56.6507 325.938 56.128 325.761C55.6147 325.574 55.176 325.322 54.812 325.005C54.6347 324.874 54.546 324.688 54.546 324.445C54.546 324.277 54.588 324.137 54.672 324.025C54.7653 323.904 54.8773 323.843 55.008 323.843C55.1387 323.843 55.2973 323.904 55.484 324.025C56.38 324.632 57.2853 324.935 58.2 324.935C58.8907 324.935 59.4227 324.795 59.796 324.515C60.1787 324.235 60.37 323.838 60.37 323.325C60.37 323.017 60.2673 322.77 60.062 322.583C59.866 322.387 59.614 322.233 59.306 322.121C59.0073 322.009 58.592 321.888 58.06 321.757C57.36 321.58 56.7907 321.402 56.352 321.225C55.9133 321.048 55.5353 320.772 55.218 320.399C54.91 320.026 54.756 319.531 54.756 318.915C54.756 318.159 55.0267 317.52 55.568 316.997C56.1187 316.465 56.842 316.148 57.738 316.045V315.065C57.738 314.878 57.7893 314.729 57.892 314.617C58.004 314.505 58.1487 314.449 58.326 314.449C58.5033 314.449 58.6433 314.505 58.746 314.617C58.858 314.729 58.914 314.878 58.914 315.065V316.045C59.39 316.092 59.8427 316.208 60.272 316.395C60.7107 316.572 61.098 316.815 61.434 317.123C61.6207 317.272 61.714 317.459 61.714 317.683C61.714 317.842 61.6673 317.982 61.574 318.103C61.4807 318.224 61.3687 318.285 61.238 318.285C61.1073 318.285 60.9487 318.224 60.762 318.103C60.3607 317.795 59.978 317.566 59.614 317.417C59.25 317.268 58.8207 317.193 58.326 317.193C57.682 317.193 57.1687 317.342 56.786 317.641C56.4033 317.94 56.212 318.346 56.212 318.859C56.212 319.204 56.3193 319.484 56.534 319.699C56.7487 319.914 57.0147 320.082 57.332 320.203C57.6493 320.315 58.0833 320.436 58.634 320.567C59.3153 320.735 59.866 320.908 60.286 321.085C60.706 321.253 61.0653 321.514 61.364 321.869C61.6627 322.214 61.812 322.686 61.812 323.283ZM69.4365 324.809C69.6605 324.809 69.8285 324.86 69.9405 324.963C70.0619 325.066 70.1225 325.21 70.1225 325.397C70.1225 325.798 69.8939 325.999 69.4365 325.999H64.0325C63.8272 325.999 63.6639 325.943 63.5425 325.831C63.4305 325.71 63.3745 325.56 63.3745 325.383C63.3745 325.168 63.4585 324.972 63.6265 324.795L66.9165 321.197C67.3552 320.721 67.6725 320.287 67.8685 319.895C68.0645 319.503 68.1625 319.116 68.1625 318.733C68.1625 318.238 68.0179 317.86 67.7285 317.599C67.4485 317.328 67.0472 317.193 66.5245 317.193C65.7312 317.193 64.9425 317.496 64.1585 318.103C64.0559 318.168 63.9672 318.22 63.8925 318.257C63.8272 318.285 63.7572 318.299 63.6825 318.299C63.5519 318.299 63.4399 318.238 63.3465 318.117C63.2532 317.996 63.2065 317.851 63.2065 317.683C63.2065 317.45 63.2999 317.263 63.4865 317.123C63.8785 316.787 64.3499 316.521 64.9005 316.325C65.4512 316.12 66.0065 316.017 66.5665 316.017C67.4905 316.017 68.2232 316.255 68.7645 316.731C69.3152 317.198 69.5905 317.832 69.5905 318.635C69.5905 319.204 69.4645 319.746 69.2125 320.259C68.9699 320.772 68.5592 321.346 67.9805 321.981L65.3345 324.809H69.4365ZM75.4371 319.755C76.0531 319.755 76.5944 319.886 77.0611 320.147C77.5371 320.408 77.9057 320.777 78.1671 321.253C78.4284 321.729 78.5591 322.275 78.5591 322.891C78.5591 323.516 78.4144 324.072 78.1251 324.557C77.8357 325.042 77.4297 325.42 76.9071 325.691C76.3937 325.962 75.8011 326.097 75.1291 326.097C74.5504 326.097 73.9811 325.999 73.4211 325.803C72.8704 325.607 72.4084 325.336 72.0351 324.991C71.8484 324.832 71.7551 324.646 71.7551 324.431C71.7551 324.263 71.8017 324.123 71.8951 324.011C71.9884 323.89 72.1004 323.829 72.2311 323.829C72.3151 323.829 72.3897 323.843 72.4551 323.871C72.5297 323.899 72.6137 323.946 72.7071 324.011C73.0897 324.31 73.4724 324.538 73.8551 324.697C74.2471 324.846 74.6577 324.921 75.0871 324.921C75.7404 324.921 76.2491 324.748 76.6131 324.403C76.9771 324.048 77.1591 323.554 77.1591 322.919C77.1591 322.312 76.9724 321.827 76.5991 321.463C76.2351 321.099 75.7451 320.917 75.1291 320.917C74.7277 320.917 74.3684 320.987 74.0511 321.127C73.7337 321.258 73.4351 321.468 73.1551 321.757C73.0151 321.888 72.8471 321.953 72.6511 321.953C72.4924 321.953 72.3571 321.906 72.2451 321.813C72.1424 321.71 72.0911 321.58 72.0911 321.421V316.815C72.0911 316.6 72.1471 316.432 72.2591 316.311C72.3804 316.19 72.5531 316.129 72.7771 316.129H77.5931C77.8077 316.129 77.9757 316.18 78.0971 316.283C78.2184 316.386 78.2791 316.526 78.2791 316.703C78.2791 316.89 78.2184 317.034 78.0971 317.137C77.9757 317.24 77.8077 317.291 77.5931 317.291H73.5191V320.399C74.0324 319.97 74.6717 319.755 75.4371 319.755Z" fill="#2C333A"/>
<path d="M61.812 275.283C61.812 276.02 61.546 276.641 61.014 277.145C60.4913 277.649 59.796 277.957 58.928 278.069V279.063C58.928 279.25 58.872 279.399 58.76 279.511C58.6573 279.623 58.5173 279.679 58.34 279.679C58.1627 279.679 58.018 279.623 57.906 279.511C57.8033 279.399 57.752 279.25 57.752 279.063V278.097C57.192 278.05 56.6507 277.938 56.128 277.761C55.6147 277.574 55.176 277.322 54.812 277.005C54.6347 276.874 54.546 276.688 54.546 276.445C54.546 276.277 54.588 276.137 54.672 276.025C54.7653 275.904 54.8773 275.843 55.008 275.843C55.1387 275.843 55.2973 275.904 55.484 276.025C56.38 276.632 57.2853 276.935 58.2 276.935C58.8907 276.935 59.4227 276.795 59.796 276.515C60.1787 276.235 60.37 275.838 60.37 275.325C60.37 275.017 60.2673 274.77 60.062 274.583C59.866 274.387 59.614 274.233 59.306 274.121C59.0073 274.009 58.592 273.888 58.06 273.757C57.36 273.58 56.7907 273.402 56.352 273.225C55.9133 273.048 55.5353 272.772 55.218 272.399C54.91 272.026 54.756 271.531 54.756 270.915C54.756 270.159 55.0267 269.52 55.568 268.997C56.1187 268.465 56.842 268.148 57.738 268.045V267.065C57.738 266.878 57.7893 266.729 57.892 266.617C58.004 266.505 58.1487 266.449 58.326 266.449C58.5033 266.449 58.6433 266.505 58.746 266.617C58.858 266.729 58.914 266.878 58.914 267.065V268.045C59.39 268.092 59.8427 268.208 60.272 268.395C60.7107 268.572 61.098 268.815 61.434 269.123C61.6207 269.272 61.714 269.459 61.714 269.683C61.714 269.842 61.6673 269.982 61.574 270.103C61.4807 270.224 61.3687 270.285 61.238 270.285C61.1073 270.285 60.9487 270.224 60.762 270.103C60.3607 269.795 59.978 269.566 59.614 269.417C59.25 269.268 58.8207 269.193 58.326 269.193C57.682 269.193 57.1687 269.342 56.786 269.641C56.4033 269.94 56.212 270.346 56.212 270.859C56.212 271.204 56.3193 271.484 56.534 271.699C56.7487 271.914 57.0147 272.082 57.332 272.203C57.6493 272.315 58.0833 272.436 58.634 272.567C59.3153 272.735 59.866 272.908 60.286 273.085C60.706 273.253 61.0653 273.514 61.364 273.869C61.6627 274.214 61.812 274.686 61.812 275.283ZM67.0425 271.755C67.6585 271.755 68.1999 271.886 68.6665 272.147C69.1425 272.408 69.5112 272.777 69.7725 273.253C70.0339 273.729 70.1645 274.275 70.1645 274.891C70.1645 275.516 70.0199 276.072 69.7305 276.557C69.4412 277.042 69.0352 277.42 68.5125 277.691C67.9992 277.962 67.4065 278.097 66.7345 278.097C66.1559 278.097 65.5865 277.999 65.0265 277.803C64.4759 277.607 64.0139 277.336 63.6405 276.991C63.4539 276.832 63.3605 276.646 63.3605 276.431C63.3605 276.263 63.4072 276.123 63.5005 276.011C63.5939 275.89 63.7059 275.829 63.8365 275.829C63.9205 275.829 63.9952 275.843 64.0605 275.871C64.1352 275.899 64.2192 275.946 64.3125 276.011C64.6952 276.31 65.0779 276.538 65.4605 276.697C65.8525 276.846 66.2632 276.921 66.6925 276.921C67.3459 276.921 67.8545 276.748 68.2185 276.403C68.5825 276.048 68.7645 275.554 68.7645 274.919C68.7645 274.312 68.5779 273.827 68.2045 273.463C67.8405 273.099 67.3505 272.917 66.7345 272.917C66.3332 272.917 65.9739 272.987 65.6565 273.127C65.3392 273.258 65.0405 273.468 64.7605 273.757C64.6205 273.888 64.4525 273.953 64.2565 273.953C64.0979 273.953 63.9625 273.906 63.8505 273.813C63.7479 273.71 63.6965 273.58 63.6965 273.421V268.815C63.6965 268.6 63.7525 268.432 63.8645 268.311C63.9859 268.19 64.1585 268.129 64.3825 268.129H69.1985C69.4132 268.129 69.5812 268.18 69.7025 268.283C69.8239 268.386 69.8845 268.526 69.8845 268.703C69.8845 268.89 69.8239 269.034 69.7025 269.137C69.5812 269.24 69.4132 269.291 69.1985 269.291H65.1245V272.399C65.6379 271.97 66.2772 271.755 67.0425 271.755ZM74.9891 278.111C73.8411 278.111 72.9637 277.682 72.3571 276.823C71.7597 275.964 71.4611 274.714 71.4611 273.071C71.4611 271.419 71.7597 270.164 72.3571 269.305C72.9637 268.446 73.8411 268.017 74.9891 268.017C76.1371 268.017 77.0097 268.446 77.6071 269.305C78.2137 270.154 78.5171 271.405 78.5171 273.057C78.5171 274.709 78.2137 275.964 77.6071 276.823C77.0097 277.682 76.1371 278.111 74.9891 278.111ZM74.9891 276.949C75.7077 276.949 76.2351 276.636 76.5711 276.011C76.9071 275.386 77.0751 274.401 77.0751 273.057C77.0751 271.713 76.9071 270.733 76.5711 270.117C76.2351 269.492 75.7077 269.179 74.9891 269.179C74.2704 269.179 73.7431 269.492 73.4071 270.117C73.0711 270.733 72.9031 271.713 72.9031 273.057C72.9031 274.392 73.0711 275.376 73.4071 276.011C73.7431 276.636 74.2704 276.949 74.9891 276.949Z" fill="#2C333A"/>
<path d="M61.812 227.283C61.812 228.02 61.546 228.641 61.014 229.145C60.4913 229.649 59.796 229.957 58.928 230.069V231.063C58.928 231.25 58.872 231.399 58.76 231.511C58.6573 231.623 58.5173 231.679 58.34 231.679C58.1627 231.679 58.018 231.623 57.906 231.511C57.8033 231.399 57.752 231.25 57.752 231.063V230.097C57.192 230.05 56.6507 229.938 56.128 229.761C55.6147 229.574 55.176 229.322 54.812 229.005C54.6347 228.874 54.546 228.688 54.546 228.445C54.546 228.277 54.588 228.137 54.672 228.025C54.7653 227.904 54.8773 227.843 55.008 227.843C55.1387 227.843 55.2973 227.904 55.484 228.025C56.38 228.632 57.2853 228.935 58.2 228.935C58.8907 228.935 59.4227 228.795 59.796 228.515C60.1787 228.235 60.37 227.838 60.37 227.325C60.37 227.017 60.2673 226.77 60.062 226.583C59.866 226.387 59.614 226.233 59.306 226.121C59.0073 226.009 58.592 225.888 58.06 225.757C57.36 225.58 56.7907 225.402 56.352 225.225C55.9133 225.048 55.5353 224.772 55.218 224.399C54.91 224.026 54.756 223.531 54.756 222.915C54.756 222.159 55.0267 221.52 55.568 220.997C56.1187 220.465 56.842 220.148 57.738 220.045V219.065C57.738 218.878 57.7893 218.729 57.892 218.617C58.004 218.505 58.1487 218.449 58.326 218.449C58.5033 218.449 58.6433 218.505 58.746 218.617C58.858 218.729 58.914 218.878 58.914 219.065V220.045C59.39 220.092 59.8427 220.208 60.272 220.395C60.7107 220.572 61.098 220.815 61.434 221.123C61.6207 221.272 61.714 221.459 61.714 221.683C61.714 221.842 61.6673 221.982 61.574 222.103C61.4807 222.224 61.3687 222.285 61.238 222.285C61.1073 222.285 60.9487 222.224 60.762 222.103C60.3607 221.795 59.978 221.566 59.614 221.417C59.25 221.268 58.8207 221.193 58.326 221.193C57.682 221.193 57.1687 221.342 56.786 221.641C56.4033 221.94 56.212 222.346 56.212 222.859C56.212 223.204 56.3193 223.484 56.534 223.699C56.7487 223.914 57.0147 224.082 57.332 224.203C57.6493 224.315 58.0833 224.436 58.634 224.567C59.3153 224.735 59.866 224.908 60.286 225.085C60.706 225.253 61.0653 225.514 61.364 225.869C61.6627 226.214 61.812 226.686 61.812 227.283ZM69.4365 220.129C69.6419 220.129 69.7959 220.185 69.8985 220.297C70.0105 220.409 70.0665 220.554 70.0665 220.731C70.0665 220.899 70.0152 221.076 69.9125 221.263L65.3345 229.719C65.1852 229.98 64.9799 230.111 64.7185 230.111C64.5412 230.111 64.3779 230.05 64.2285 229.929C64.0885 229.798 64.0185 229.64 64.0185 229.453C64.0185 229.341 64.0559 229.21 64.1305 229.061L68.3445 221.319H63.7945C63.5705 221.319 63.4025 221.268 63.2905 221.165C63.1785 221.062 63.1225 220.918 63.1225 220.731C63.1225 220.33 63.3465 220.129 63.7945 220.129H69.4365ZM75.4371 223.755C76.0531 223.755 76.5944 223.886 77.0611 224.147C77.5371 224.408 77.9057 224.777 78.1671 225.253C78.4284 225.729 78.5591 226.275 78.5591 226.891C78.5591 227.516 78.4144 228.072 78.1251 228.557C77.8357 229.042 77.4297 229.42 76.9071 229.691C76.3937 229.962 75.8011 230.097 75.1291 230.097C74.5504 230.097 73.9811 229.999 73.4211 229.803C72.8704 229.607 72.4084 229.336 72.0351 228.991C71.8484 228.832 71.7551 228.646 71.7551 228.431C71.7551 228.263 71.8017 228.123 71.8951 228.011C71.9884 227.89 72.1004 227.829 72.2311 227.829C72.3151 227.829 72.3897 227.843 72.4551 227.871C72.5297 227.899 72.6137 227.946 72.7071 228.011C73.0897 228.31 73.4724 228.538 73.8551 228.697C74.2471 228.846 74.6577 228.921 75.0871 228.921C75.7404 228.921 76.2491 228.748 76.6131 228.403C76.9771 228.048 77.1591 227.554 77.1591 226.919C77.1591 226.312 76.9724 225.827 76.5991 225.463C76.2351 225.099 75.7451 224.917 75.1291 224.917C74.7277 224.917 74.3684 224.987 74.0511 225.127C73.7337 225.258 73.4351 225.468 73.1551 225.757C73.0151 225.888 72.8471 225.953 72.6511 225.953C72.4924 225.953 72.3571 225.906 72.2451 225.813C72.1424 225.71 72.0911 225.58 72.0911 225.421V220.815C72.0911 220.6 72.1471 220.432 72.2591 220.311C72.3804 220.19 72.5531 220.129 72.7771 220.129H77.5931C77.8077 220.129 77.9757 220.18 78.0971 220.283C78.2184 220.386 78.2791 220.526 78.2791 220.703C78.2791 220.89 78.2184 221.034 78.0971 221.137C77.9757 221.24 77.8077 221.291 77.5931 221.291H73.5191V224.399C74.0324 223.97 74.6717 223.755 75.4371 223.755Z" fill="#2C333A"/>
<path d="M61.812 179.283C61.812 180.02 61.546 180.641 61.014 181.145C60.4913 181.649 59.796 181.957 58.928 182.069V183.063C58.928 183.25 58.872 183.399 58.76 183.511C58.6573 183.623 58.5173 183.679 58.34 183.679C58.1627 183.679 58.018 183.623 57.906 183.511C57.8033 183.399 57.752 183.25 57.752 183.063V182.097C57.192 182.05 56.6507 181.938 56.128 181.761C55.6147 181.574 55.176 181.322 54.812 181.005C54.6347 180.874 54.546 180.688 54.546 180.445C54.546 180.277 54.588 180.137 54.672 180.025C54.7653 179.904 54.8773 179.843 55.008 179.843C55.1387 179.843 55.2973 179.904 55.484 180.025C56.38 180.632 57.2853 180.935 58.2 180.935C58.8907 180.935 59.4227 180.795 59.796 180.515C60.1787 180.235 60.37 179.838 60.37 179.325C60.37 179.017 60.2673 178.77 60.062 178.583C59.866 178.387 59.614 178.233 59.306 178.121C59.0073 178.009 58.592 177.888 58.06 177.757C57.36 177.58 56.7907 177.402 56.352 177.225C55.9133 177.048 55.5353 176.772 55.218 176.399C54.91 176.026 54.756 175.531 54.756 174.915C54.756 174.159 55.0267 173.52 55.568 172.997C56.1187 172.465 56.842 172.148 57.738 172.045V171.065C57.738 170.878 57.7893 170.729 57.892 170.617C58.004 170.505 58.1487 170.449 58.326 170.449C58.5033 170.449 58.6433 170.505 58.746 170.617C58.858 170.729 58.914 170.878 58.914 171.065V172.045C59.39 172.092 59.8427 172.208 60.272 172.395C60.7107 172.572 61.098 172.815 61.434 173.123C61.6207 173.272 61.714 173.459 61.714 173.683C61.714 173.842 61.6673 173.982 61.574 174.103C61.4807 174.224 61.3687 174.285 61.238 174.285C61.1073 174.285 60.9487 174.224 60.762 174.103C60.3607 173.795 59.978 173.566 59.614 173.417C59.25 173.268 58.8207 173.193 58.326 173.193C57.682 173.193 57.1687 173.342 56.786 173.641C56.4033 173.94 56.212 174.346 56.212 174.859C56.212 175.204 56.3193 175.484 56.534 175.699C56.7487 175.914 57.0147 176.082 57.332 176.203C57.6493 176.315 58.0833 176.436 58.634 176.567C59.3153 176.735 59.866 176.908 60.286 177.085C60.706 177.253 61.0653 177.514 61.364 177.869C61.6627 178.214 61.812 178.686 61.812 179.283ZM69.3385 180.809C69.5625 180.809 69.7305 180.86 69.8425 180.963C69.9545 181.066 70.0105 181.21 70.0105 181.397C70.0105 181.798 69.7865 181.999 69.3385 181.999H64.6625C64.2052 181.999 63.9765 181.798 63.9765 181.397C63.9765 181.21 64.0325 181.066 64.1445 180.963C64.2659 180.86 64.4385 180.809 64.6625 180.809H66.2725V173.823L64.8305 174.733C64.7372 174.789 64.6439 174.817 64.5505 174.817C64.3919 174.817 64.2519 174.747 64.1305 174.607C64.0185 174.467 63.9625 174.308 63.9625 174.131C63.9625 173.916 64.0559 173.748 64.2425 173.627L66.3985 172.255C66.6132 172.124 66.8185 172.059 67.0145 172.059C67.2199 172.059 67.3879 172.124 67.5185 172.255C67.6492 172.386 67.7145 172.563 67.7145 172.787V180.809H69.3385ZM74.9891 182.111C73.8411 182.111 72.9637 181.682 72.3571 180.823C71.7597 179.964 71.4611 178.714 71.4611 177.071C71.4611 175.419 71.7597 174.164 72.3571 173.305C72.9637 172.446 73.8411 172.017 74.9891 172.017C76.1371 172.017 77.0097 172.446 77.6071 173.305C78.2137 174.154 78.5171 175.405 78.5171 177.057C78.5171 178.709 78.2137 179.964 77.6071 180.823C77.0097 181.682 76.1371 182.111 74.9891 182.111ZM74.9891 180.949C75.7077 180.949 76.2351 180.636 76.5711 180.011C76.9071 179.386 77.0751 178.401 77.0751 177.057C77.0751 175.713 76.9071 174.733 76.5711 174.117C76.2351 173.492 75.7077 173.179 74.9891 173.179C74.2704 173.179 73.7431 173.492 73.4071 174.117C73.0711 174.733 72.9031 175.713 72.9031 177.057C72.9031 178.392 73.0711 179.376 73.4071 180.011C73.7431 180.636 74.2704 180.949 74.9891 180.949ZM83.3836 182.111C82.2356 182.111 81.3583 181.682 80.7516 180.823C80.1543 179.964 79.8556 178.714 79.8556 177.071C79.8556 175.419 80.1543 174.164 80.7516 173.305C81.3583 172.446 82.2356 172.017 83.3836 172.017C84.5316 172.017 85.4043 172.446 86.0016 173.305C86.6083 174.154 86.9116 175.405 86.9116 177.057C86.9116 178.709 86.6083 179.964 86.0016 180.823C85.4043 181.682 84.5316 182.111 83.3836 182.111ZM83.3836 180.949C84.1023 180.949 84.6296 180.636 84.9656 180.011C85.3016 179.386 85.4696 178.401 85.4696 177.057C85.4696 175.713 85.3016 174.733 84.9656 174.117C84.6296 173.492 84.1023 173.179 83.3836 173.179C82.6649 173.179 82.1376 173.492 81.8016 174.117C81.4656 174.733 81.2976 175.713 81.2976 177.057C81.2976 178.392 81.4656 179.376 81.8016 180.011C82.1376 180.636 82.6649 180.949 83.3836 180.949Z" fill="#2C333A"/>
</g>
<defs>
<filter id="filter0_dd_2732_1863" x="0" y="0" width="844" height="394" filterUnits="userSpaceOnUse" color-interpolation-filters="sRGB">
<feFlood flood-opacity="0" result="BackgroundImageFix"/>
<feColorMatrix in="SourceAlpha" type="matrix" values="0 0 0 0 0 0 0 0 0 0 0 0 0 0 0 0 0 0 127 0" result="hardAlpha"/>
<feOffset dy="2"/>
<feGaussianBlur stdDeviation="4"/>
<feComposite in2="hardAlpha" operator="out"/>
<feColorMatrix type="matrix" values="0 0 0 0 0 0 0 0 0 0 0 0 0 0 0 0 0 0 0.05 0"/>
<feBlend mode="normal" in2="BackgroundImageFix" result="effect1_dropShadow_2732_1863"/>
<feColorMatrix in="SourceAlpha" type="matrix" values="0 0 0 0 0 0 0 0 0 0 0 0 0 0 0 0 0 0 127 0" result="hardAlpha"/>
<feOffset dy="-2"/>
<feGaussianBlur stdDeviation="4"/>
<feComposite in2="hardAlpha" operator="out"/>
<feColorMatrix type="matrix" values="0 0 0 0 0 0 0 0 0 0 0 0 0 0 0 0 0 0 0.05 0"/>
<feBlend mode="normal" in2="effect1_dropShadow_2732_1863" result="effect2_dropShadow_2732_1863"/>
<feBlend mode="normal" in="SourceGraphic" in2="effect2_dropShadow_2732_1863" result="shape"/>
</filter>
</defs>
</svg>
