<svg width="335" height="381" viewBox="0 0 335 381" fill="none" xmlns="http://www.w3.org/2000/svg">
<g clip-path="url(#clip0_2783_5532)">
<rect width="335" height="381" fill="#2C333A"/>
<g opacity="0.9">
<path d="M17.248 33.112C16.928 33.112 16.704 33.0107 16.576 32.808C16.4587 32.5947 16.4693 32.3387 16.608 32.04L20.944 22.312C21.0507 22.0667 21.184 21.8907 21.344 21.784C21.504 21.6667 21.6907 21.608 21.904 21.608C22.096 21.608 22.272 21.6667 22.432 21.784C22.6027 21.8907 22.7413 22.0667 22.848 22.312L27.184 32.04C27.3227 32.3493 27.3333 32.6053 27.216 32.808C27.1093 33.0107 26.9013 33.112 26.592 33.112C26.3573 33.112 26.1707 33.0533 26.032 32.936C25.8933 32.8187 25.7707 32.6373 25.664 32.392L24.736 30.248H19.024L18.112 32.392C18.0053 32.648 17.888 32.8347 17.76 32.952C17.632 33.0587 17.4613 33.112 17.248 33.112ZM21.872 23.56L19.616 28.904H24.176L21.904 23.56H21.872ZM32.2791 33.144C31.4791 33.144 30.7858 32.9787 30.1991 32.648C29.6231 32.3067 29.1751 31.832 28.8551 31.224C28.5351 30.6053 28.3751 29.88 28.3751 29.048C28.3751 27.8107 28.7271 26.8347 29.4311 26.12C30.1351 25.4053 31.0845 25.048 32.2791 25.048C32.6525 25.048 33.0418 25.1067 33.4471 25.224C33.8631 25.3307 34.2471 25.512 34.5991 25.768C34.7698 25.8747 34.8658 26.0133 34.8871 26.184C34.9191 26.344 34.8925 26.4987 34.8071 26.648C34.7325 26.7867 34.6205 26.8827 34.4711 26.936C34.3218 26.9787 34.1511 26.9467 33.9591 26.84C33.7031 26.6587 33.4418 26.5307 33.1751 26.456C32.9085 26.3707 32.6525 26.328 32.4071 26.328C31.6498 26.328 31.0631 26.568 30.6471 27.048C30.2418 27.5173 30.0391 28.1893 30.0391 29.064C30.0391 29.9387 30.2418 30.6267 30.6471 31.128C31.0631 31.6187 31.6498 31.864 32.4071 31.864C32.6525 31.864 32.9031 31.8267 33.1591 31.752C33.4258 31.6773 33.6925 31.5493 33.9591 31.368C34.1511 31.2613 34.3165 31.2347 34.4551 31.288C34.6045 31.3413 34.7111 31.4427 34.7751 31.592C34.8498 31.7307 34.8711 31.8853 34.8391 32.056C34.8178 32.216 34.7218 32.3493 34.5511 32.456C34.2098 32.7013 33.8365 32.8773 33.4311 32.984C33.0365 33.0907 32.6525 33.144 32.2791 33.144ZM39.6515 33.144C38.6702 33.144 37.9395 32.8933 37.4595 32.392C36.9795 31.8907 36.7395 31.1653 36.7395 30.216V26.44H35.7795C35.3315 26.44 35.1075 26.232 35.1075 25.816C35.1075 25.4 35.3315 25.192 35.7795 25.192H36.7395V23.544C36.7395 23 37.0115 22.728 37.5555 22.728C38.0888 22.728 38.3555 23 38.3555 23.544V25.192H40.2275C40.6755 25.192 40.8995 25.4 40.8995 25.816C40.8995 26.232 40.6755 26.44 40.2275 26.44H38.3555V30.088C38.3555 30.6533 38.4728 31.08 38.7075 31.368C38.9528 31.656 39.3475 31.8 39.8915 31.8C40.0835 31.8 40.2488 31.784 40.3875 31.752C40.5262 31.7093 40.6488 31.6827 40.7555 31.672C40.8728 31.672 40.9688 31.7147 41.0435 31.8C41.1182 31.8747 41.1555 32.024 41.1555 32.248C41.1555 32.4187 41.1235 32.5733 41.0595 32.712C41.0062 32.84 40.9048 32.9253 40.7555 32.968C40.6275 33.0213 40.4515 33.064 40.2275 33.096C40.0142 33.128 39.8222 33.144 39.6515 33.144ZM43.1079 23.448C42.7879 23.448 42.5372 23.368 42.3559 23.208C42.1852 23.048 42.0999 22.824 42.0999 22.536C42.0999 21.928 42.4359 21.624 43.1079 21.624C43.7799 21.624 44.1159 21.928 44.1159 22.536C44.1159 23.144 43.7799 23.448 43.1079 23.448ZM43.1079 33.096C42.5745 33.096 42.3079 32.8027 42.3079 32.216V25.976C42.3079 25.4 42.5745 25.112 43.1079 25.112C43.6519 25.112 43.9239 25.4 43.9239 25.976V32.216C43.9239 32.8027 43.6519 33.096 43.1079 33.096ZM49.2225 33.112C48.7745 33.112 48.4438 32.872 48.2305 32.392L45.5585 26.184C45.4305 25.896 45.4252 25.64 45.5425 25.416C45.6598 25.192 45.8998 25.08 46.2625 25.08C46.4545 25.08 46.6092 25.128 46.7265 25.224C46.8545 25.32 46.9665 25.4853 47.0625 25.72L49.2545 31.128L51.4945 25.72C51.5905 25.4853 51.6972 25.32 51.8145 25.224C51.9425 25.128 52.1185 25.08 52.3425 25.08C52.6305 25.08 52.8278 25.192 52.9345 25.416C53.0412 25.64 53.0358 25.8907 52.9185 26.168L50.2145 32.392C50.0118 32.872 49.6812 33.112 49.2225 33.112ZM58.0344 33.144C56.7544 33.144 55.7464 32.7867 55.0104 32.072C54.2744 31.3467 53.9064 30.36 53.9064 29.112C53.9064 28.312 54.0664 27.608 54.3864 27C54.717 26.3813 55.1704 25.9013 55.7464 25.56C56.3224 25.2187 56.9837 25.048 57.7304 25.048C58.8077 25.048 59.6557 25.3947 60.2744 26.088C60.893 26.7707 61.2024 27.7147 61.2024 28.92C61.2024 29.2827 60.989 29.464 60.5624 29.464H55.4744C55.5917 31.0853 56.4504 31.896 58.0504 31.896C58.3704 31.896 58.7064 31.8587 59.0584 31.784C59.4104 31.6987 59.7517 31.5493 60.0824 31.336C60.3064 31.208 60.4984 31.1653 60.6584 31.208C60.829 31.24 60.9517 31.3307 61.0264 31.48C61.101 31.6187 61.1117 31.7787 61.0584 31.96C61.0157 32.1307 60.893 32.28 60.6904 32.408C60.3277 32.6533 59.901 32.84 59.4104 32.968C58.9304 33.0853 58.4717 33.144 58.0344 33.144ZM57.7944 26.184C57.1224 26.184 56.589 26.392 56.1944 26.808C55.7997 27.224 55.5597 27.7787 55.4744 28.472H59.8424C59.8104 27.7467 59.6184 27.1867 59.2664 26.792C58.9144 26.3867 58.4237 26.184 57.7944 26.184ZM70.8469 32.472C70.4415 32.472 70.2389 32.264 70.2389 31.848V29H67.4389C67.0335 29 66.8309 28.8027 66.8309 28.408C66.8309 28.0133 67.0335 27.816 67.4389 27.816H70.2389V25.048C70.2389 24.6427 70.4415 24.44 70.8469 24.44C71.2522 24.44 71.4549 24.6427 71.4549 25.048V27.816H74.2549C74.6602 27.816 74.8629 28.0133 74.8629 28.408C74.8629 28.8027 74.6602 29 74.2549 29H71.4549V31.848C71.4549 32.264 71.2522 32.472 70.8469 32.472ZM82.2754 33.112C81.7314 33.112 81.4594 32.84 81.4594 32.296V26.44H80.5634C80.126 26.44 79.9074 26.232 79.9074 25.816C79.9074 25.4 80.126 25.192 80.5634 25.192H81.4594V25.048C81.4594 23.992 81.7207 23.1973 82.2434 22.664C82.766 22.12 83.5287 21.8 84.5314 21.704L85.0274 21.672C85.2514 21.6507 85.4167 21.6987 85.5234 21.816C85.6407 21.9227 85.6994 22.0613 85.6994 22.232C85.6994 22.392 85.6567 22.536 85.5714 22.664C85.486 22.792 85.358 22.8667 85.1874 22.888L84.8834 22.904C84.254 22.9467 83.7954 23.1227 83.5074 23.432C83.2194 23.7413 83.0754 24.2053 83.0754 24.824V25.192H84.6274C85.0754 25.192 85.2994 25.4 85.2994 25.816C85.2994 26.232 85.0754 26.44 84.6274 26.44H83.0754V32.296C83.0754 32.84 82.8087 33.112 82.2754 33.112ZM89.7155 33.144C88.9262 33.144 88.2435 32.9787 87.6675 32.648C87.0915 32.3173 86.6435 31.8533 86.3235 31.256C86.0142 30.648 85.8595 29.928 85.8595 29.096C85.8595 28.264 86.0142 27.5493 86.3235 26.952C86.6435 26.344 87.0915 25.8747 87.6675 25.544C88.2435 25.2133 88.9262 25.048 89.7155 25.048C90.4835 25.048 91.1555 25.2133 91.7315 25.544C92.3075 25.8747 92.7555 26.344 93.0755 26.952C93.3955 27.5493 93.5555 28.264 93.5555 29.096C93.5555 29.928 93.3955 30.648 93.0755 31.256C92.7555 31.8533 92.3075 32.3173 91.7315 32.648C91.1555 32.9787 90.4835 33.144 89.7155 33.144ZM89.7155 31.896C90.3768 31.896 90.9102 31.656 91.3155 31.176C91.7208 30.696 91.9235 30.0027 91.9235 29.096C91.9235 28.1893 91.7208 27.5013 91.3155 27.032C90.9102 26.552 90.3768 26.312 89.7155 26.312C89.0435 26.312 88.5048 26.552 88.0995 27.032C87.6942 27.5013 87.4915 28.1893 87.4915 29.096C87.4915 30.0027 87.6942 30.696 88.0995 31.176C88.5048 31.656 89.0435 31.896 89.7155 31.896ZM98.8104 33.144C98.0104 33.144 97.317 32.9787 96.7304 32.648C96.1544 32.3067 95.7064 31.832 95.3864 31.224C95.0664 30.6053 94.9064 29.88 94.9064 29.048C94.9064 27.8107 95.2584 26.8347 95.9624 26.12C96.6664 25.4053 97.6157 25.048 98.8104 25.048C99.1837 25.048 99.573 25.1067 99.9784 25.224C100.394 25.3307 100.778 25.512 101.13 25.768C101.301 25.8747 101.397 26.0133 101.418 26.184C101.45 26.344 101.424 26.4987 101.338 26.648C101.264 26.7867 101.152 26.8827 101.002 26.936C100.853 26.9787 100.682 26.9467 100.49 26.84C100.234 26.6587 99.973 26.5307 99.7064 26.456C99.4397 26.3707 99.1837 26.328 98.9384 26.328C98.181 26.328 97.5944 26.568 97.1784 27.048C96.773 27.5173 96.5704 28.1893 96.5704 29.064C96.5704 29.9387 96.773 30.6267 97.1784 31.128C97.5944 31.6187 98.181 31.864 98.9384 31.864C99.1837 31.864 99.4344 31.8267 99.6904 31.752C99.957 31.6773 100.224 31.5493 100.49 31.368C100.682 31.2613 100.848 31.2347 100.986 31.288C101.136 31.3413 101.242 31.4427 101.306 31.592C101.381 31.7307 101.402 31.8853 101.37 32.056C101.349 32.216 101.253 32.3493 101.082 32.456C100.741 32.7013 100.368 32.8773 99.9624 32.984C99.5677 33.0907 99.1837 33.144 98.8104 33.144ZM105.623 33.144C103.735 33.144 102.791 32.0933 102.791 29.992V25.896C102.791 25.352 103.058 25.08 103.591 25.08C104.135 25.08 104.407 25.352 104.407 25.896V30.008C104.407 30.6373 104.535 31.1013 104.791 31.4C105.047 31.6987 105.452 31.848 106.007 31.848C106.615 31.848 107.106 31.6453 107.479 31.24C107.863 30.8347 108.055 30.2907 108.055 29.608V25.896C108.055 25.352 108.327 25.08 108.871 25.08C109.404 25.08 109.671 25.352 109.671 25.896V32.296C109.671 32.84 109.41 33.112 108.887 33.112C108.364 33.112 108.103 32.84 108.103 32.296V31.752C107.847 32.2107 107.506 32.5573 107.079 32.792C106.652 33.0267 106.167 33.144 105.623 33.144ZM114.685 33.144C114.215 33.144 113.73 33.0907 113.229 32.984C112.727 32.8773 112.274 32.696 111.868 32.44C111.687 32.3333 111.575 32.2 111.533 32.04C111.49 31.88 111.501 31.7307 111.565 31.592C111.629 31.4533 111.73 31.3573 111.868 31.304C112.018 31.24 112.183 31.256 112.365 31.352C112.781 31.576 113.181 31.736 113.565 31.832C113.949 31.928 114.327 31.976 114.701 31.976C115.266 31.976 115.693 31.8747 115.981 31.672C116.269 31.4693 116.413 31.1973 116.413 30.856C116.413 30.5787 116.317 30.3653 116.125 30.216C115.933 30.056 115.645 29.9333 115.261 29.848L113.741 29.544C112.397 29.2667 111.725 28.5733 111.725 27.464C111.725 26.728 112.018 26.1413 112.605 25.704C113.191 25.2667 113.959 25.048 114.909 25.048C115.869 25.048 116.695 25.2827 117.389 25.752C117.559 25.8587 117.661 25.992 117.693 26.152C117.725 26.3013 117.703 26.4453 117.629 26.584C117.554 26.712 117.442 26.8027 117.293 26.856C117.154 26.9093 116.989 26.888 116.797 26.792C116.477 26.6 116.157 26.4613 115.837 26.376C115.517 26.28 115.207 26.232 114.909 26.232C114.354 26.232 113.933 26.3387 113.645 26.552C113.357 26.7547 113.213 27.032 113.213 27.384C113.213 27.9173 113.565 28.2587 114.269 28.408L115.789 28.712C116.482 28.8507 117.005 29.0853 117.357 29.416C117.719 29.7467 117.901 30.1947 117.901 30.76C117.901 31.5067 117.607 32.0933 117.021 32.52C116.434 32.936 115.655 33.144 114.685 33.144ZM123.363 33.144C122.083 33.144 121.075 32.7867 120.339 32.072C119.603 31.3467 119.235 30.36 119.235 29.112C119.235 28.312 119.395 27.608 119.715 27C120.045 26.3813 120.499 25.9013 121.075 25.56C121.651 25.2187 122.312 25.048 123.059 25.048C124.136 25.048 124.984 25.3947 125.603 26.088C126.221 26.7707 126.531 27.7147 126.531 28.92C126.531 29.2827 126.317 29.464 125.891 29.464H120.803C120.92 31.0853 121.779 31.896 123.379 31.896C123.699 31.896 124.035 31.8587 124.387 31.784C124.739 31.6987 125.08 31.5493 125.411 31.336C125.635 31.208 125.827 31.1653 125.987 31.208C126.157 31.24 126.28 31.3307 126.355 31.48C126.429 31.6187 126.44 31.7787 126.387 31.96C126.344 32.1307 126.221 32.28 126.019 32.408C125.656 32.6533 125.229 32.84 124.739 32.968C124.259 33.0853 123.8 33.144 123.363 33.144ZM123.123 26.184C122.451 26.184 121.917 26.392 121.523 26.808C121.128 27.224 120.888 27.7787 120.803 28.472H125.171C125.139 27.7467 124.947 27.1867 124.595 26.792C124.243 26.3867 123.752 26.184 123.123 26.184ZM131.268 33.144C130.586 33.144 129.983 32.984 129.46 32.664C128.948 32.3333 128.548 31.864 128.26 31.256C127.972 30.648 127.828 29.928 127.828 29.096C127.828 28.264 127.972 27.5493 128.26 26.952C128.548 26.344 128.948 25.8747 129.46 25.544C129.972 25.2133 130.575 25.048 131.268 25.048C131.855 25.048 132.378 25.176 132.836 25.432C133.295 25.688 133.636 26.0347 133.86 26.472V22.424C133.86 21.88 134.127 21.608 134.66 21.608C135.204 21.608 135.476 21.88 135.476 22.424V32.296C135.476 32.84 135.21 33.112 134.676 33.112C134.143 33.112 133.876 32.84 133.876 32.296V31.688C133.642 32.136 133.295 32.4933 132.836 32.76C132.378 33.016 131.855 33.144 131.268 33.144ZM131.684 31.896C132.346 31.896 132.879 31.656 133.284 31.176C133.69 30.696 133.892 30.0027 133.892 29.096C133.892 28.1893 133.69 27.5013 133.284 27.032C132.879 26.552 132.346 26.312 131.684 26.312C131.012 26.312 130.474 26.552 130.068 27.032C129.663 27.5013 129.46 28.1893 129.46 29.096C129.46 30.0027 129.663 30.696 130.068 31.176C130.474 31.656 131.012 31.896 131.684 31.896Z" fill="white"/>
<path d="M20.8 104.144C19.5307 104.144 18.544 103.872 17.84 103.328C17.136 102.773 16.784 102 16.784 101.008C16.784 100.315 16.9707 99.7227 17.344 99.232C17.728 98.7413 18.2347 98.4053 18.864 98.224C18.2987 98.0107 17.856 97.6693 17.536 97.2C17.216 96.7307 17.056 96.192 17.056 95.584C17.056 94.6347 17.392 93.8987 18.064 93.376C18.7467 92.8427 19.6587 92.576 20.8 92.576C21.9413 92.576 22.8533 92.8427 23.536 93.376C24.2187 93.8987 24.56 94.6347 24.56 95.584C24.56 96.192 24.3947 96.736 24.064 97.216C23.744 97.6853 23.3067 98.0213 22.752 98.224C23.3813 98.4053 23.8827 98.7413 24.256 99.232C24.6293 99.7227 24.816 100.315 24.816 101.008C24.816 102 24.464 102.773 23.76 103.328C23.056 103.872 22.0693 104.144 20.8 104.144ZM20.8 97.744C21.5787 97.744 22.1867 97.5627 22.624 97.2C23.072 96.8267 23.296 96.3253 23.296 95.696C23.296 95.056 23.072 94.56 22.624 94.208C22.1867 93.8453 21.5787 93.664 20.8 93.664C20.0213 93.664 19.4133 93.8453 18.976 94.208C18.5387 94.56 18.32 95.056 18.32 95.696C18.32 96.3253 18.5387 96.8267 18.976 97.2C19.4133 97.5627 20.0213 97.744 20.8 97.744ZM20.8 103.056C22.6347 103.056 23.552 102.347 23.552 100.928C23.552 99.5307 22.6347 98.832 20.8 98.832C18.9653 98.832 18.048 99.5307 18.048 100.928C18.048 102.347 18.9653 103.056 20.8 103.056ZM28.2818 104.112C28.0471 104.112 27.8711 104.032 27.7538 103.872C27.6471 103.701 27.6578 103.493 27.7858 103.248L32.6338 93.856H27.1618C26.7564 93.856 26.5538 93.664 26.5538 93.28C26.5538 92.9067 26.7564 92.72 27.1618 92.72H33.5138C33.7058 92.72 33.8604 92.7733 33.9778 92.88C34.0951 92.976 34.1538 93.1093 34.1538 93.28C34.1538 93.44 34.1324 93.5787 34.0898 93.696C34.0578 93.8027 34.0098 93.92 33.9458 94.048L29.0178 103.664C28.8684 103.963 28.6231 104.112 28.2818 104.112ZM39.9875 104.016C39.8915 104.187 39.7742 104.288 39.6355 104.32C39.4968 104.352 39.3635 104.331 39.2355 104.256C39.1182 104.192 39.0382 104.091 38.9955 103.952C38.9528 103.813 38.9795 103.659 39.0755 103.488L45.2515 92.736C45.3475 92.5653 45.4648 92.464 45.6035 92.432C45.7422 92.4 45.8702 92.4213 45.9875 92.496C46.1048 92.56 46.1848 92.6613 46.2275 92.8C46.2808 92.9387 46.2595 93.0933 46.1635 93.264L39.9875 104.016ZM38.8035 99.488C37.9502 99.488 37.2835 99.184 36.8035 98.576C36.3235 97.968 36.0835 97.12 36.0835 96.032C36.0835 94.944 36.3235 94.1013 36.8035 93.504C37.2835 92.896 37.9502 92.592 38.8035 92.592C39.6462 92.592 40.3075 92.896 40.7875 93.504C41.2782 94.1013 41.5235 94.944 41.5235 96.032C41.5235 97.12 41.2782 97.968 40.7875 98.576C40.3075 99.184 39.6462 99.488 38.8035 99.488ZM38.8035 98.544C39.2942 98.544 39.6835 98.336 39.9715 97.92C40.2595 97.4933 40.4035 96.864 40.4035 96.032C40.4035 95.2 40.2595 94.576 39.9715 94.16C39.6835 93.744 39.2942 93.536 38.8035 93.536C38.3022 93.536 37.9075 93.744 37.6195 94.16C37.3422 94.576 37.2035 95.2 37.2035 96.032C37.2035 96.864 37.3422 97.4933 37.6195 97.92C37.9075 98.336 38.3022 98.544 38.8035 98.544ZM46.4515 104.144C45.6088 104.144 44.9422 103.84 44.4515 103.232C43.9715 102.624 43.7315 101.776 43.7315 100.688C43.7315 99.6107 43.9715 98.768 44.4515 98.16C44.9422 97.552 45.6088 97.248 46.4515 97.248C47.3048 97.248 47.9715 97.552 48.4515 98.16C48.9315 98.768 49.1715 99.6107 49.1715 100.688C49.1715 101.776 48.9315 102.624 48.4515 103.232C47.9715 103.84 47.3048 104.144 46.4515 104.144ZM46.4515 103.2C46.9528 103.2 47.3422 102.992 47.6195 102.576C47.9075 102.149 48.0515 101.52 48.0515 100.688C48.0515 99.856 47.9075 99.232 47.6195 98.816C47.3422 98.4 46.9528 98.192 46.4515 98.192C45.9608 98.192 45.5715 98.4 45.2835 98.816C45.0062 99.232 44.8675 99.856 44.8675 100.688C44.8675 101.531 45.0062 102.16 45.2835 102.576C45.5715 102.992 45.9608 103.2 46.4515 103.2Z" fill="white"/>
<path d="M261.96 102.098C261.774 102.098 261.648 102.042 261.582 101.93C261.517 101.818 261.503 101.669 261.54 101.482L261.904 99.522H261.316C260.934 99.522 260.742 99.3587 260.742 99.032C260.742 98.7147 260.934 98.556 261.316 98.556H262.086L262.702 95.462H261.596C261.214 95.462 261.022 95.2987 261.022 94.972C261.022 94.6547 261.214 94.496 261.596 94.496H262.87L263.262 92.536C263.328 92.2 263.528 92.032 263.864 92.032C264.21 92.032 264.345 92.2373 264.27 92.648L263.906 94.496H265.922L266.314 92.536C266.38 92.2 266.58 92.032 266.916 92.032C267.262 92.032 267.397 92.2373 267.322 92.648L266.958 94.496H267.56C267.943 94.496 268.134 94.6547 268.134 94.972C268.134 95.2987 267.943 95.462 267.56 95.462H266.776L266.174 98.556H267.28C267.663 98.556 267.854 98.7147 267.854 99.032C267.854 99.3587 267.663 99.522 267.28 99.522H266.006L265.586 101.594C265.521 101.93 265.325 102.098 264.998 102.098C264.83 102.098 264.709 102.047 264.634 101.944C264.56 101.832 264.541 101.678 264.578 101.482L264.97 99.522H262.954L262.548 101.594C262.483 101.93 262.287 102.098 261.96 102.098ZM263.136 98.556H265.138L265.74 95.462H263.738L263.136 98.556ZM272.833 102.126C271.685 102.126 270.807 101.692 270.201 100.824C269.603 99.9467 269.305 98.6913 269.305 97.058C269.305 95.3967 269.603 94.1413 270.201 93.292C270.807 92.4333 271.685 92.004 272.833 92.004C273.99 92.004 274.867 92.4333 275.465 93.292C276.062 94.1413 276.361 95.392 276.361 97.044C276.361 98.6867 276.057 99.9467 275.451 100.824C274.853 101.692 273.981 102.126 272.833 102.126ZM272.833 100.922C273.542 100.922 274.069 100.609 274.415 99.984C274.76 99.3493 274.933 98.3693 274.933 97.044C274.933 95.7093 274.76 94.7387 274.415 94.132C274.079 93.516 273.551 93.208 272.833 93.208C272.123 93.208 271.596 93.516 271.251 94.132C270.905 94.748 270.733 95.7187 270.733 97.044C270.733 98.3693 270.905 99.3493 271.251 99.984C271.596 100.609 272.123 100.922 272.833 100.922ZM281.227 102.126C280.079 102.126 279.202 101.692 278.595 100.824C277.998 99.9467 277.699 98.6913 277.699 97.058C277.699 95.3967 277.998 94.1413 278.595 93.292C279.202 92.4333 280.079 92.004 281.227 92.004C282.385 92.004 283.262 92.4333 283.859 93.292C284.457 94.1413 284.755 95.392 284.755 97.044C284.755 98.6867 284.452 99.9467 283.845 100.824C283.248 101.692 282.375 102.126 281.227 102.126ZM281.227 100.922C281.937 100.922 282.464 100.609 282.809 99.984C283.155 99.3493 283.327 98.3693 283.327 97.044C283.327 95.7093 283.155 94.7387 282.809 94.132C282.473 93.516 281.946 93.208 281.227 93.208C280.518 93.208 279.991 93.516 279.645 94.132C279.3 94.748 279.127 95.7187 279.127 97.044C279.127 98.3693 279.3 99.3493 279.645 99.984C279.991 100.609 280.518 100.922 281.227 100.922ZM289.622 102.126C288.474 102.126 287.597 101.692 286.99 100.824C286.393 99.9467 286.094 98.6913 286.094 97.058C286.094 95.3967 286.393 94.1413 286.99 93.292C287.597 92.4333 288.474 92.004 289.622 92.004C290.779 92.004 291.657 92.4333 292.254 93.292C292.851 94.1413 293.15 95.392 293.15 97.044C293.15 98.6867 292.847 99.9467 292.24 100.824C291.643 101.692 290.77 102.126 289.622 102.126ZM289.622 100.922C290.331 100.922 290.859 100.609 291.204 99.984C291.549 99.3493 291.722 98.3693 291.722 97.044C291.722 95.7093 291.549 94.7387 291.204 94.132C290.868 93.516 290.341 93.208 289.622 93.208C288.913 93.208 288.385 93.516 288.04 94.132C287.695 94.748 287.522 95.7187 287.522 97.044C287.522 98.3693 287.695 99.3493 288.04 99.984C288.385 100.609 288.913 100.922 289.622 100.922ZM298.016 102.126C296.868 102.126 295.991 101.692 295.384 100.824C294.787 99.9467 294.488 98.6913 294.488 97.058C294.488 95.3967 294.787 94.1413 295.384 93.292C295.991 92.4333 296.868 92.004 298.016 92.004C299.174 92.004 300.051 92.4333 300.648 93.292C301.246 94.1413 301.544 95.392 301.544 97.044C301.544 98.6867 301.241 99.9467 300.634 100.824C300.037 101.692 299.164 102.126 298.016 102.126ZM298.016 100.922C298.726 100.922 299.253 100.609 299.598 99.984C299.944 99.3493 300.116 98.3693 300.116 97.044C300.116 95.7093 299.944 94.7387 299.598 94.132C299.262 93.516 298.735 93.208 298.016 93.208C297.307 93.208 296.78 93.516 296.434 94.132C296.089 94.748 295.916 95.7187 295.916 97.044C295.916 98.3693 296.089 99.3493 296.434 99.984C296.78 100.609 297.307 100.922 298.016 100.922ZM306.411 102.126C305.263 102.126 304.386 101.692 303.779 100.824C303.182 99.9467 302.883 98.6913 302.883 97.058C302.883 95.3967 303.182 94.1413 303.779 93.292C304.386 92.4333 305.263 92.004 306.411 92.004C307.568 92.004 308.446 92.4333 309.043 93.292C309.64 94.1413 309.939 95.392 309.939 97.044C309.939 98.6867 309.636 99.9467 309.029 100.824C308.432 101.692 307.559 102.126 306.411 102.126ZM306.411 100.922C307.12 100.922 307.648 100.609 307.993 99.984C308.338 99.3493 308.511 98.3693 308.511 97.044C308.511 95.7093 308.338 94.7387 307.993 94.132C307.657 93.516 307.13 93.208 306.411 93.208C305.702 93.208 305.174 93.516 304.829 94.132C304.484 94.748 304.311 95.7187 304.311 97.044C304.311 98.3693 304.484 99.3493 304.829 99.984C305.174 100.609 305.702 100.922 306.411 100.922ZM314.805 102.126C313.657 102.126 312.78 101.692 312.173 100.824C311.576 99.9467 311.277 98.6913 311.277 97.058C311.277 95.3967 311.576 94.1413 312.173 93.292C312.78 92.4333 313.657 92.004 314.805 92.004C315.963 92.004 316.84 92.4333 317.437 93.292C318.035 94.1413 318.333 95.392 318.333 97.044C318.333 98.6867 318.03 99.9467 317.423 100.824C316.826 101.692 315.953 102.126 314.805 102.126ZM314.805 100.922C315.515 100.922 316.042 100.609 316.387 99.984C316.733 99.3493 316.905 98.3693 316.905 97.044C316.905 95.7093 316.733 94.7387 316.387 94.132C316.051 93.516 315.524 93.208 314.805 93.208C314.096 93.208 313.569 93.516 313.223 94.132C312.878 94.748 312.705 95.7187 312.705 97.044C312.705 98.3693 312.878 99.3493 313.223 99.984C313.569 100.609 314.096 100.922 314.805 100.922Z" fill="white"/>
<path d="M307 78C312.523 78 317 73.5228 317 68C317 62.4772 312.523 58 307 58C301.477 58 297 62.4772 297 68C297 73.5228 301.477 78 307 78Z" stroke="white" stroke-width="2" stroke-linecap="round" stroke-linejoin="round"/>
<path d="M311.24 63.76L309.12 70.12L302.76 72.24L304.88 65.88L311.24 63.76Z" stroke="white" stroke-width="2" stroke-linecap="round" stroke-linejoin="round"/>
</g>
<g opacity="0.6">
<path d="M17.248 160.112C16.928 160.112 16.704 160.011 16.576 159.808C16.4587 159.595 16.4693 159.339 16.608 159.04L20.944 149.312C21.0507 149.067 21.184 148.891 21.344 148.784C21.504 148.667 21.6907 148.608 21.904 148.608C22.096 148.608 22.272 148.667 22.432 148.784C22.6027 148.891 22.7413 149.067 22.848 149.312L27.184 159.04C27.3227 159.349 27.3333 159.605 27.216 159.808C27.1093 160.011 26.9013 160.112 26.592 160.112C26.3573 160.112 26.1707 160.053 26.032 159.936C25.8933 159.819 25.7707 159.637 25.664 159.392L24.736 157.248H19.024L18.112 159.392C18.0053 159.648 17.888 159.835 17.76 159.952C17.632 160.059 17.4613 160.112 17.248 160.112ZM21.872 150.56L19.616 155.904H24.176L21.904 150.56H21.872ZM32.2791 160.144C31.4791 160.144 30.7858 159.979 30.1991 159.648C29.6231 159.307 29.1751 158.832 28.8551 158.224C28.5351 157.605 28.3751 156.88 28.3751 156.048C28.3751 154.811 28.7271 153.835 29.4311 153.12C30.1351 152.405 31.0845 152.048 32.2791 152.048C32.6525 152.048 33.0418 152.107 33.4471 152.224C33.8631 152.331 34.2471 152.512 34.5991 152.768C34.7698 152.875 34.8658 153.013 34.8871 153.184C34.9191 153.344 34.8925 153.499 34.8071 153.648C34.7325 153.787 34.6205 153.883 34.4711 153.936C34.3218 153.979 34.1511 153.947 33.9591 153.84C33.7031 153.659 33.4418 153.531 33.1751 153.456C32.9085 153.371 32.6525 153.328 32.4071 153.328C31.6498 153.328 31.0631 153.568 30.6471 154.048C30.2418 154.517 30.0391 155.189 30.0391 156.064C30.0391 156.939 30.2418 157.627 30.6471 158.128C31.0631 158.619 31.6498 158.864 32.4071 158.864C32.6525 158.864 32.9031 158.827 33.1591 158.752C33.4258 158.677 33.6925 158.549 33.9591 158.368C34.1511 158.261 34.3165 158.235 34.4551 158.288C34.6045 158.341 34.7111 158.443 34.7751 158.592C34.8498 158.731 34.8711 158.885 34.8391 159.056C34.8178 159.216 34.7218 159.349 34.5511 159.456C34.2098 159.701 33.8365 159.877 33.4311 159.984C33.0365 160.091 32.6525 160.144 32.2791 160.144ZM39.6515 160.144C38.6702 160.144 37.9395 159.893 37.4595 159.392C36.9795 158.891 36.7395 158.165 36.7395 157.216V153.44H35.7795C35.3315 153.44 35.1075 153.232 35.1075 152.816C35.1075 152.4 35.3315 152.192 35.7795 152.192H36.7395V150.544C36.7395 150 37.0115 149.728 37.5555 149.728C38.0888 149.728 38.3555 150 38.3555 150.544V152.192H40.2275C40.6755 152.192 40.8995 152.4 40.8995 152.816C40.8995 153.232 40.6755 153.44 40.2275 153.44H38.3555V157.088C38.3555 157.653 38.4728 158.08 38.7075 158.368C38.9528 158.656 39.3475 158.8 39.8915 158.8C40.0835 158.8 40.2488 158.784 40.3875 158.752C40.5262 158.709 40.6488 158.683 40.7555 158.672C40.8728 158.672 40.9688 158.715 41.0435 158.8C41.1182 158.875 41.1555 159.024 41.1555 159.248C41.1555 159.419 41.1235 159.573 41.0595 159.712C41.0062 159.84 40.9048 159.925 40.7555 159.968C40.6275 160.021 40.4515 160.064 40.2275 160.096C40.0142 160.128 39.8222 160.144 39.6515 160.144ZM43.1079 150.448C42.7879 150.448 42.5372 150.368 42.3559 150.208C42.1852 150.048 42.0999 149.824 42.0999 149.536C42.0999 148.928 42.4359 148.624 43.1079 148.624C43.7799 148.624 44.1159 148.928 44.1159 149.536C44.1159 150.144 43.7799 150.448 43.1079 150.448ZM43.1079 160.096C42.5745 160.096 42.3079 159.803 42.3079 159.216V152.976C42.3079 152.4 42.5745 152.112 43.1079 152.112C43.6519 152.112 43.9239 152.4 43.9239 152.976V159.216C43.9239 159.803 43.6519 160.096 43.1079 160.096ZM49.2225 160.112C48.7745 160.112 48.4438 159.872 48.2305 159.392L45.5585 153.184C45.4305 152.896 45.4252 152.64 45.5425 152.416C45.6598 152.192 45.8998 152.08 46.2625 152.08C46.4545 152.08 46.6092 152.128 46.7265 152.224C46.8545 152.32 46.9665 152.485 47.0625 152.72L49.2545 158.128L51.4945 152.72C51.5905 152.485 51.6972 152.32 51.8145 152.224C51.9425 152.128 52.1185 152.08 52.3425 152.08C52.6305 152.08 52.8278 152.192 52.9345 152.416C53.0412 152.64 53.0358 152.891 52.9185 153.168L50.2145 159.392C50.0118 159.872 49.6812 160.112 49.2225 160.112ZM58.0344 160.144C56.7544 160.144 55.7464 159.787 55.0104 159.072C54.2744 158.347 53.9064 157.36 53.9064 156.112C53.9064 155.312 54.0664 154.608 54.3864 154C54.717 153.381 55.1704 152.901 55.7464 152.56C56.3224 152.219 56.9837 152.048 57.7304 152.048C58.8077 152.048 59.6557 152.395 60.2744 153.088C60.893 153.771 61.2024 154.715 61.2024 155.92C61.2024 156.283 60.989 156.464 60.5624 156.464H55.4744C55.5917 158.085 56.4504 158.896 58.0504 158.896C58.3704 158.896 58.7064 158.859 59.0584 158.784C59.4104 158.699 59.7517 158.549 60.0824 158.336C60.3064 158.208 60.4984 158.165 60.6584 158.208C60.829 158.24 60.9517 158.331 61.0264 158.48C61.101 158.619 61.1117 158.779 61.0584 158.96C61.0157 159.131 60.893 159.28 60.6904 159.408C60.3277 159.653 59.901 159.84 59.4104 159.968C58.9304 160.085 58.4717 160.144 58.0344 160.144ZM57.7944 153.184C57.1224 153.184 56.589 153.392 56.1944 153.808C55.7997 154.224 55.5597 154.779 55.4744 155.472H59.8424C59.8104 154.747 59.6184 154.187 59.2664 153.792C58.9144 153.387 58.4237 153.184 57.7944 153.184ZM70.8469 159.472C70.4415 159.472 70.2389 159.264 70.2389 158.848V156H67.4389C67.0335 156 66.8309 155.803 66.8309 155.408C66.8309 155.013 67.0335 154.816 67.4389 154.816H70.2389V152.048C70.2389 151.643 70.4415 151.44 70.8469 151.44C71.2522 151.44 71.4549 151.643 71.4549 152.048V154.816H74.2549C74.6602 154.816 74.8629 155.013 74.8629 155.408C74.8629 155.803 74.6602 156 74.2549 156H71.4549V158.848C71.4549 159.264 71.2522 159.472 70.8469 159.472ZM83.7794 160.144C81.8914 160.144 80.9474 159.093 80.9474 156.992V152.896C80.9474 152.352 81.214 152.08 81.7474 152.08C82.2914 152.08 82.5634 152.352 82.5634 152.896V157.008C82.5634 157.637 82.6914 158.101 82.9474 158.4C83.2034 158.699 83.6087 158.848 84.1634 158.848C84.7714 158.848 85.262 158.645 85.6354 158.24C86.0194 157.835 86.2114 157.291 86.2114 156.608V152.896C86.2114 152.352 86.4834 152.08 87.0274 152.08C87.5607 152.08 87.8274 152.352 87.8274 152.896V159.296C87.8274 159.84 87.566 160.112 87.0434 160.112C86.5207 160.112 86.2594 159.84 86.2594 159.296V158.752C86.0034 159.211 85.662 159.557 85.2354 159.792C84.8087 160.027 84.3234 160.144 83.7794 160.144ZM90.9048 160.112C90.3714 160.112 90.1048 159.84 90.1048 159.296V152.896C90.1048 152.352 90.3661 152.08 90.8888 152.08C91.4114 152.08 91.6728 152.352 91.6728 152.896V153.488C91.9394 153.019 92.3021 152.661 92.7608 152.416C93.2301 152.171 93.7528 152.048 94.3288 152.048C96.1741 152.048 97.0968 153.093 97.0968 155.184V159.296C97.0968 159.84 96.8301 160.112 96.2968 160.112C95.7528 160.112 95.4808 159.84 95.4808 159.296V155.28C95.4808 154.608 95.3474 154.117 95.0808 153.808C94.8248 153.499 94.4194 153.344 93.8648 153.344C93.2141 153.344 92.6914 153.552 92.2968 153.968C91.9128 154.373 91.7208 154.912 91.7208 155.584V159.296C91.7208 159.84 91.4488 160.112 90.9048 160.112ZM100.604 160.112C100.06 160.112 99.7875 159.84 99.7875 159.296V153.44H98.8915C98.4542 153.44 98.2355 153.232 98.2355 152.816C98.2355 152.4 98.4542 152.192 98.8915 152.192H99.7875V152.048C99.7875 150.992 100.049 150.197 100.572 149.664C101.094 149.12 101.857 148.8 102.86 148.704L103.356 148.672C103.58 148.651 103.745 148.699 103.852 148.816C103.969 148.923 104.028 149.061 104.028 149.232C104.028 149.392 103.985 149.536 103.9 149.664C103.814 149.792 103.686 149.867 103.516 149.888L103.212 149.904C102.582 149.947 102.124 150.123 101.836 150.432C101.548 150.741 101.404 151.205 101.404 151.824V152.192H102.956C103.404 152.192 103.628 152.4 103.628 152.816C103.628 153.232 103.404 153.44 102.956 153.44H101.404V159.296C101.404 159.84 101.137 160.112 100.604 160.112ZM108.044 160.144C107.254 160.144 106.572 159.979 105.996 159.648C105.42 159.317 104.972 158.853 104.652 158.256C104.342 157.648 104.188 156.928 104.188 156.096C104.188 155.264 104.342 154.549 104.652 153.952C104.972 153.344 105.42 152.875 105.996 152.544C106.572 152.213 107.254 152.048 108.044 152.048C108.812 152.048 109.484 152.213 110.06 152.544C110.636 152.875 111.084 153.344 111.404 153.952C111.724 154.549 111.884 155.264 111.884 156.096C111.884 156.928 111.724 157.648 111.404 158.256C111.084 158.853 110.636 159.317 110.06 159.648C109.484 159.979 108.812 160.144 108.044 160.144ZM108.044 158.896C108.705 158.896 109.238 158.656 109.644 158.176C110.049 157.696 110.252 157.003 110.252 156.096C110.252 155.189 110.049 154.501 109.644 154.032C109.238 153.552 108.705 153.312 108.044 153.312C107.372 153.312 106.833 153.552 106.428 154.032C106.022 154.501 105.82 155.189 105.82 156.096C105.82 157.003 106.022 157.696 106.428 158.176C106.833 158.656 107.372 158.896 108.044 158.896ZM117.139 160.144C116.339 160.144 115.645 159.979 115.059 159.648C114.483 159.307 114.035 158.832 113.715 158.224C113.395 157.605 113.235 156.88 113.235 156.048C113.235 154.811 113.587 153.835 114.291 153.12C114.995 152.405 115.944 152.048 117.139 152.048C117.512 152.048 117.901 152.107 118.307 152.224C118.723 152.331 119.107 152.512 119.459 152.768C119.629 152.875 119.725 153.013 119.747 153.184C119.779 153.344 119.752 153.499 119.667 153.648C119.592 153.787 119.48 153.883 119.331 153.936C119.181 153.979 119.011 153.947 118.819 153.84C118.563 153.659 118.301 153.531 118.035 153.456C117.768 153.371 117.512 153.328 117.266 153.328C116.509 153.328 115.923 153.568 115.507 154.048C115.101 154.517 114.899 155.189 114.899 156.064C114.899 156.939 115.101 157.627 115.507 158.128C115.923 158.619 116.509 158.864 117.266 158.864C117.512 158.864 117.763 158.827 118.019 158.752C118.285 158.677 118.552 158.549 118.819 158.368C119.011 158.261 119.176 158.235 119.315 158.288C119.464 158.341 119.571 158.443 119.635 158.592C119.709 158.731 119.731 158.885 119.699 159.056C119.677 159.216 119.581 159.349 119.411 159.456C119.069 159.701 118.696 159.877 118.291 159.984C117.896 160.091 117.512 160.144 117.139 160.144ZM123.951 160.144C122.063 160.144 121.119 159.093 121.119 156.992V152.896C121.119 152.352 121.386 152.08 121.919 152.08C122.463 152.08 122.735 152.352 122.735 152.896V157.008C122.735 157.637 122.863 158.101 123.119 158.4C123.375 158.699 123.781 158.848 124.335 158.848C124.943 158.848 125.434 158.645 125.807 158.24C126.191 157.835 126.383 157.291 126.383 156.608V152.896C126.383 152.352 126.655 152.08 127.199 152.08C127.733 152.08 127.999 152.352 127.999 152.896V159.296C127.999 159.84 127.738 160.112 127.215 160.112C126.693 160.112 126.431 159.84 126.431 159.296V158.752C126.175 159.211 125.834 159.557 125.407 159.792C124.981 160.027 124.495 160.144 123.951 160.144ZM133.013 160.144C132.543 160.144 132.058 160.091 131.557 159.984C131.055 159.877 130.602 159.696 130.197 159.44C130.015 159.333 129.903 159.2 129.861 159.04C129.818 158.88 129.829 158.731 129.893 158.592C129.957 158.453 130.058 158.357 130.197 158.304C130.346 158.24 130.511 158.256 130.693 158.352C131.109 158.576 131.509 158.736 131.893 158.832C132.277 158.928 132.655 158.976 133.029 158.976C133.594 158.976 134.021 158.875 134.309 158.672C134.597 158.469 134.741 158.197 134.741 157.856C134.741 157.579 134.645 157.365 134.453 157.216C134.261 157.056 133.973 156.933 133.589 156.848L132.069 156.544C130.725 156.267 130.053 155.573 130.053 154.464C130.053 153.728 130.346 153.141 130.933 152.704C131.519 152.267 132.287 152.048 133.237 152.048C134.197 152.048 135.023 152.283 135.717 152.752C135.887 152.859 135.989 152.992 136.021 153.152C136.053 153.301 136.031 153.445 135.957 153.584C135.882 153.712 135.77 153.803 135.621 153.856C135.482 153.909 135.317 153.888 135.125 153.792C134.805 153.6 134.485 153.461 134.165 153.376C133.845 153.28 133.535 153.232 133.237 153.232C132.682 153.232 132.261 153.339 131.973 153.552C131.685 153.755 131.541 154.032 131.541 154.384C131.541 154.917 131.893 155.259 132.597 155.408L134.117 155.712C134.81 155.851 135.333 156.085 135.685 156.416C136.047 156.747 136.229 157.195 136.229 157.76C136.229 158.507 135.935 159.093 135.349 159.52C134.762 159.936 133.983 160.144 133.013 160.144ZM141.691 160.144C140.411 160.144 139.403 159.787 138.667 159.072C137.931 158.347 137.563 157.36 137.563 156.112C137.563 155.312 137.723 154.608 138.043 154C138.373 153.381 138.827 152.901 139.403 152.56C139.979 152.219 140.64 152.048 141.387 152.048C142.464 152.048 143.312 152.395 143.931 153.088C144.549 153.771 144.859 154.715 144.859 155.92C144.859 156.283 144.645 156.464 144.219 156.464H139.131C139.248 158.085 140.107 158.896 141.707 158.896C142.027 158.896 142.363 158.859 142.715 158.784C143.067 158.699 143.408 158.549 143.739 158.336C143.963 158.208 144.155 158.165 144.315 158.208C144.485 158.24 144.608 158.331 144.683 158.48C144.757 158.619 144.768 158.779 144.715 158.96C144.672 159.131 144.549 159.28 144.347 159.408C143.984 159.653 143.557 159.84 143.067 159.968C142.587 160.085 142.128 160.144 141.691 160.144ZM141.451 153.184C140.779 153.184 140.245 153.392 139.851 153.808C139.456 154.224 139.216 154.779 139.131 155.472H143.499C143.467 154.747 143.275 154.187 142.923 153.792C142.571 153.387 142.08 153.184 141.451 153.184ZM149.596 160.144C148.914 160.144 148.311 159.984 147.788 159.664C147.276 159.333 146.876 158.864 146.588 158.256C146.3 157.648 146.156 156.928 146.156 156.096C146.156 155.264 146.3 154.549 146.588 153.952C146.876 153.344 147.276 152.875 147.788 152.544C148.3 152.213 148.903 152.048 149.596 152.048C150.183 152.048 150.706 152.176 151.164 152.432C151.623 152.688 151.964 153.035 152.188 153.472V149.424C152.188 148.88 152.455 148.608 152.988 148.608C153.532 148.608 153.804 148.88 153.804 149.424V159.296C153.804 159.84 153.538 160.112 153.004 160.112C152.471 160.112 152.204 159.84 152.204 159.296V158.688C151.97 159.136 151.623 159.493 151.164 159.76C150.706 160.016 150.183 160.144 149.596 160.144ZM150.012 158.896C150.674 158.896 151.207 158.656 151.612 158.176C152.018 157.696 152.22 157.003 152.22 156.096C152.22 155.189 152.018 154.501 151.612 154.032C151.207 153.552 150.674 153.312 150.012 153.312C149.34 153.312 148.802 153.552 148.396 154.032C147.991 154.501 147.788 155.189 147.788 156.096C147.788 157.003 147.991 157.696 148.396 158.176C148.802 158.656 149.34 158.896 150.012 158.896Z" fill="white"/>
<path d="M21.04 231.144C20.4213 231.144 19.808 231.053 19.2 230.872C18.6027 230.691 18.064 230.408 17.584 230.024C17.424 229.917 17.328 229.789 17.296 229.64C17.2747 229.48 17.3013 229.336 17.376 229.208C17.4507 229.08 17.5573 228.995 17.696 228.952C17.8453 228.909 18.0107 228.947 18.192 229.064C19.0347 229.672 19.9787 229.976 21.024 229.976C21.8027 229.976 22.416 229.757 22.864 229.32C23.312 228.883 23.536 228.307 23.536 227.592C23.536 226.856 23.3227 226.253 22.896 225.784C22.4693 225.315 21.8827 225.08 21.136 225.08C20.6773 225.08 20.2507 225.165 19.856 225.336C19.472 225.507 19.1253 225.779 18.816 226.152C18.7413 226.237 18.6507 226.312 18.544 226.376C18.448 226.429 18.336 226.456 18.208 226.456C17.824 226.456 17.632 226.269 17.632 225.896V220.328C17.632 219.923 17.8347 219.72 18.24 219.72H23.68C24.0853 219.72 24.288 219.907 24.288 220.28C24.288 220.653 24.0853 220.84 23.68 220.84H18.928V224.872C19.5467 224.253 20.3627 223.944 21.376 223.944C22.08 223.944 22.6933 224.093 23.216 224.392C23.7387 224.691 24.1387 225.112 24.416 225.656C24.704 226.189 24.848 226.813 24.848 227.528C24.848 228.232 24.6933 228.856 24.384 229.4C24.0747 229.944 23.632 230.371 23.056 230.68C22.4907 230.989 21.8187 231.144 21.04 231.144ZM32.2818 231.112C31.8444 231.112 31.6258 230.888 31.6258 230.44V228.584H27.0338C26.8204 228.584 26.6498 228.536 26.5218 228.44C26.4044 228.333 26.3458 228.184 26.3458 227.992C26.3458 227.8 26.4684 227.523 26.7138 227.16L31.5938 220.056C31.7858 219.757 32.0311 219.608 32.3298 219.608C32.5004 219.608 32.6444 219.667 32.7618 219.784C32.8898 219.891 32.9538 220.056 32.9538 220.28V227.464H34.1218C34.5378 227.464 34.7458 227.651 34.7458 228.024C34.7458 228.397 34.5378 228.584 34.1218 228.584H32.9538V230.44C32.9538 230.888 32.7298 231.112 32.2818 231.112ZM31.6258 227.464V221.832L27.7698 227.464H31.6258ZM39.9875 231.016C39.8915 231.187 39.7742 231.288 39.6355 231.32C39.4968 231.352 39.3635 231.331 39.2355 231.256C39.1182 231.192 39.0382 231.091 38.9955 230.952C38.9528 230.813 38.9795 230.659 39.0755 230.488L45.2515 219.736C45.3475 219.565 45.4648 219.464 45.6035 219.432C45.7422 219.4 45.8702 219.421 45.9875 219.496C46.1048 219.56 46.1848 219.661 46.2275 219.8C46.2808 219.939 46.2595 220.093 46.1635 220.264L39.9875 231.016ZM38.8035 226.488C37.9502 226.488 37.2835 226.184 36.8035 225.576C36.3235 224.968 36.0835 224.12 36.0835 223.032C36.0835 221.944 36.3235 221.101 36.8035 220.504C37.2835 219.896 37.9502 219.592 38.8035 219.592C39.6462 219.592 40.3075 219.896 40.7875 220.504C41.2782 221.101 41.5235 221.944 41.5235 223.032C41.5235 224.12 41.2782 224.968 40.7875 225.576C40.3075 226.184 39.6462 226.488 38.8035 226.488ZM38.8035 225.544C39.2942 225.544 39.6835 225.336 39.9715 224.92C40.2595 224.493 40.4035 223.864 40.4035 223.032C40.4035 222.2 40.2595 221.576 39.9715 221.16C39.6835 220.744 39.2942 220.536 38.8035 220.536C38.3022 220.536 37.9075 220.744 37.6195 221.16C37.3422 221.576 37.2035 222.2 37.2035 223.032C37.2035 223.864 37.3422 224.493 37.6195 224.92C37.9075 225.336 38.3022 225.544 38.8035 225.544ZM46.4515 231.144C45.6088 231.144 44.9422 230.84 44.4515 230.232C43.9715 229.624 43.7315 228.776 43.7315 227.688C43.7315 226.611 43.9715 225.768 44.4515 225.16C44.9422 224.552 45.6088 224.248 46.4515 224.248C47.3048 224.248 47.9715 224.552 48.4515 225.16C48.9315 225.768 49.1715 226.611 49.1715 227.688C49.1715 228.776 48.9315 229.624 48.4515 230.232C47.9715 230.84 47.3048 231.144 46.4515 231.144ZM46.4515 230.2C46.9528 230.2 47.3422 229.992 47.6195 229.576C47.9075 229.149 48.0515 228.52 48.0515 227.688C48.0515 226.856 47.9075 226.232 47.6195 225.816C47.3422 225.4 46.9528 225.192 46.4515 225.192C45.9608 225.192 45.5715 225.4 45.2835 225.816C45.0062 226.232 44.8675 226.856 44.8675 227.688C44.8675 228.531 45.0062 229.16 45.2835 229.576C45.5715 229.992 45.9608 230.2 46.4515 230.2Z" fill="white"/>
<path d="M261.96 229.098C261.774 229.098 261.648 229.042 261.582 228.93C261.517 228.818 261.503 228.669 261.54 228.482L261.904 226.522H261.316C260.934 226.522 260.742 226.359 260.742 226.032C260.742 225.715 260.934 225.556 261.316 225.556H262.086L262.702 222.462H261.596C261.214 222.462 261.022 222.299 261.022 221.972C261.022 221.655 261.214 221.496 261.596 221.496H262.87L263.262 219.536C263.328 219.2 263.528 219.032 263.864 219.032C264.21 219.032 264.345 219.237 264.27 219.648L263.906 221.496H265.922L266.314 219.536C266.38 219.2 266.58 219.032 266.916 219.032C267.262 219.032 267.397 219.237 267.322 219.648L266.958 221.496H267.56C267.943 221.496 268.134 221.655 268.134 221.972C268.134 222.299 267.943 222.462 267.56 222.462H266.776L266.174 225.556H267.28C267.663 225.556 267.854 225.715 267.854 226.032C267.854 226.359 267.663 226.522 267.28 226.522H266.006L265.586 228.594C265.521 228.93 265.325 229.098 264.998 229.098C264.83 229.098 264.709 229.047 264.634 228.944C264.56 228.832 264.541 228.678 264.578 228.482L264.97 226.522H262.954L262.548 228.594C262.483 228.93 262.287 229.098 261.96 229.098ZM263.136 225.556H265.138L265.74 222.462H263.738L263.136 225.556ZM272.833 229.126C271.685 229.126 270.807 228.692 270.201 227.824C269.603 226.947 269.305 225.691 269.305 224.058C269.305 222.397 269.603 221.141 270.201 220.292C270.807 219.433 271.685 219.004 272.833 219.004C273.99 219.004 274.867 219.433 275.465 220.292C276.062 221.141 276.361 222.392 276.361 224.044C276.361 225.687 276.057 226.947 275.451 227.824C274.853 228.692 273.981 229.126 272.833 229.126ZM272.833 227.922C273.542 227.922 274.069 227.609 274.415 226.984C274.76 226.349 274.933 225.369 274.933 224.044C274.933 222.709 274.76 221.739 274.415 221.132C274.079 220.516 273.551 220.208 272.833 220.208C272.123 220.208 271.596 220.516 271.251 221.132C270.905 221.748 270.733 222.719 270.733 224.044C270.733 225.369 270.905 226.349 271.251 226.984C271.596 227.609 272.123 227.922 272.833 227.922ZM281.227 229.126C280.079 229.126 279.202 228.692 278.595 227.824C277.998 226.947 277.699 225.691 277.699 224.058C277.699 222.397 277.998 221.141 278.595 220.292C279.202 219.433 280.079 219.004 281.227 219.004C282.385 219.004 283.262 219.433 283.859 220.292C284.457 221.141 284.755 222.392 284.755 224.044C284.755 225.687 284.452 226.947 283.845 227.824C283.248 228.692 282.375 229.126 281.227 229.126ZM281.227 227.922C281.937 227.922 282.464 227.609 282.809 226.984C283.155 226.349 283.327 225.369 283.327 224.044C283.327 222.709 283.155 221.739 282.809 221.132C282.473 220.516 281.946 220.208 281.227 220.208C280.518 220.208 279.991 220.516 279.645 221.132C279.3 221.748 279.127 222.719 279.127 224.044C279.127 225.369 279.3 226.349 279.645 226.984C279.991 227.609 280.518 227.922 281.227 227.922ZM289.622 229.126C288.474 229.126 287.597 228.692 286.99 227.824C286.393 226.947 286.094 225.691 286.094 224.058C286.094 222.397 286.393 221.141 286.99 220.292C287.597 219.433 288.474 219.004 289.622 219.004C290.779 219.004 291.657 219.433 292.254 220.292C292.851 221.141 293.15 222.392 293.15 224.044C293.15 225.687 292.847 226.947 292.24 227.824C291.643 228.692 290.77 229.126 289.622 229.126ZM289.622 227.922C290.331 227.922 290.859 227.609 291.204 226.984C291.549 226.349 291.722 225.369 291.722 224.044C291.722 222.709 291.549 221.739 291.204 221.132C290.868 220.516 290.341 220.208 289.622 220.208C288.913 220.208 288.385 220.516 288.04 221.132C287.695 221.748 287.522 222.719 287.522 224.044C287.522 225.369 287.695 226.349 288.04 226.984C288.385 227.609 288.913 227.922 289.622 227.922ZM298.016 229.126C296.868 229.126 295.991 228.692 295.384 227.824C294.787 226.947 294.488 225.691 294.488 224.058C294.488 222.397 294.787 221.141 295.384 220.292C295.991 219.433 296.868 219.004 298.016 219.004C299.174 219.004 300.051 219.433 300.648 220.292C301.246 221.141 301.544 222.392 301.544 224.044C301.544 225.687 301.241 226.947 300.634 227.824C300.037 228.692 299.164 229.126 298.016 229.126ZM298.016 227.922C298.726 227.922 299.253 227.609 299.598 226.984C299.944 226.349 300.116 225.369 300.116 224.044C300.116 222.709 299.944 221.739 299.598 221.132C299.262 220.516 298.735 220.208 298.016 220.208C297.307 220.208 296.78 220.516 296.434 221.132C296.089 221.748 295.916 222.719 295.916 224.044C295.916 225.369 296.089 226.349 296.434 226.984C296.78 227.609 297.307 227.922 298.016 227.922ZM306.411 229.126C305.263 229.126 304.386 228.692 303.779 227.824C303.182 226.947 302.883 225.691 302.883 224.058C302.883 222.397 303.182 221.141 303.779 220.292C304.386 219.433 305.263 219.004 306.411 219.004C307.568 219.004 308.446 219.433 309.043 220.292C309.64 221.141 309.939 222.392 309.939 224.044C309.939 225.687 309.636 226.947 309.029 227.824C308.432 228.692 307.559 229.126 306.411 229.126ZM306.411 227.922C307.12 227.922 307.648 227.609 307.993 226.984C308.338 226.349 308.511 225.369 308.511 224.044C308.511 222.709 308.338 221.739 307.993 221.132C307.657 220.516 307.13 220.208 306.411 220.208C305.702 220.208 305.174 220.516 304.829 221.132C304.484 221.748 304.311 222.719 304.311 224.044C304.311 225.369 304.484 226.349 304.829 226.984C305.174 227.609 305.702 227.922 306.411 227.922ZM314.805 229.126C313.657 229.126 312.78 228.692 312.173 227.824C311.576 226.947 311.277 225.691 311.277 224.058C311.277 222.397 311.576 221.141 312.173 220.292C312.78 219.433 313.657 219.004 314.805 219.004C315.963 219.004 316.84 219.433 317.437 220.292C318.035 221.141 318.333 222.392 318.333 224.044C318.333 225.687 318.03 226.947 317.423 227.824C316.826 228.692 315.953 229.126 314.805 229.126ZM314.805 227.922C315.515 227.922 316.042 227.609 316.387 226.984C316.733 226.349 316.905 225.369 316.905 224.044C316.905 222.709 316.733 221.739 316.387 221.132C316.051 220.516 315.524 220.208 314.805 220.208C314.096 220.208 313.569 220.516 313.223 221.132C312.878 221.748 312.705 222.719 312.705 224.044C312.705 225.369 312.878 226.349 313.223 226.984C313.569 227.609 314.096 227.922 314.805 227.922Z" fill="white"/>
<path d="M307 205C312.523 205 317 200.523 317 195C317 189.477 312.523 185 307 185C301.477 185 297 189.477 297 195C297 200.523 301.477 205 307 205Z" stroke="white" stroke-width="2" stroke-linecap="round" stroke-linejoin="round"/>
<path d="M311.24 190.76L309.12 197.12L302.76 199.24L304.88 192.88L311.24 190.76Z" stroke="white" stroke-width="2" stroke-linecap="round" stroke-linejoin="round"/>
</g>
<g opacity="0.4">
<path d="M18.144 287.112C17.5893 287.112 17.312 286.829 17.312 286.264V276.456C17.312 275.891 17.5893 275.608 18.144 275.608C18.6987 275.608 18.976 275.891 18.976 276.456V286.264C18.976 286.829 18.6987 287.112 18.144 287.112ZM22.2173 287.112C21.6839 287.112 21.4173 286.84 21.4173 286.296V279.896C21.4173 279.352 21.6786 279.08 22.2013 279.08C22.7239 279.08 22.9853 279.352 22.9853 279.896V280.488C23.2519 280.019 23.6146 279.661 24.0733 279.416C24.5426 279.171 25.0653 279.048 25.6413 279.048C27.4866 279.048 28.4093 280.093 28.4093 282.184V286.296C28.4093 286.84 28.1426 287.112 27.6093 287.112C27.0653 287.112 26.7933 286.84 26.7933 286.296V282.28C26.7933 281.608 26.6599 281.117 26.3933 280.808C26.1373 280.499 25.7319 280.344 25.1773 280.344C24.5266 280.344 24.0039 280.552 23.6093 280.968C23.2253 281.373 23.0333 281.912 23.0333 282.584V286.296C23.0333 286.84 22.7613 287.112 22.2173 287.112ZM33.132 287.144C32.588 287.144 32.1027 287.037 31.676 286.824C31.2493 286.611 30.908 286.323 30.652 285.96C30.4067 285.597 30.284 285.187 30.284 284.728C30.284 284.152 30.428 283.699 30.716 283.368C31.0147 283.037 31.5 282.797 32.172 282.648C32.8547 282.499 33.772 282.424 34.924 282.424H35.468V282.008C35.468 281.4 35.34 280.963 35.084 280.696C34.828 280.429 34.4067 280.296 33.82 280.296C33.4787 280.296 33.1213 280.339 32.748 280.424C32.3853 280.509 32.0067 280.653 31.612 280.856C31.388 280.963 31.2013 280.979 31.052 280.904C30.9133 280.829 30.8173 280.712 30.764 280.552C30.7107 280.392 30.716 280.227 30.78 280.056C30.844 279.885 30.9773 279.757 31.18 279.672C31.6493 279.459 32.1133 279.304 32.572 279.208C33.0307 279.101 33.4627 279.048 33.868 279.048C34.9347 279.048 35.724 279.304 36.236 279.816C36.748 280.317 37.004 281.107 37.004 282.184V286.296C37.004 286.84 36.7533 287.112 36.252 287.112C35.74 287.112 35.484 286.84 35.484 286.296V285.704C35.292 286.152 34.9933 286.504 34.588 286.76C34.1827 287.016 33.6973 287.144 33.132 287.144ZM33.452 285.992C34.028 285.992 34.508 285.789 34.892 285.384C35.276 284.979 35.468 284.467 35.468 283.848V283.416H34.94C34.1613 283.416 33.548 283.453 33.1 283.528C32.6627 283.603 32.348 283.731 32.156 283.912C31.9747 284.083 31.884 284.323 31.884 284.632C31.884 285.037 32.0227 285.368 32.3 285.624C32.5773 285.869 32.9613 285.992 33.452 285.992ZM42.6698 287.144C41.8698 287.144 41.1764 286.979 40.5898 286.648C40.0138 286.307 39.5658 285.832 39.2458 285.224C38.9258 284.605 38.7658 283.88 38.7658 283.048C38.7658 281.811 39.1178 280.835 39.8218 280.12C40.5258 279.405 41.4751 279.048 42.6698 279.048C43.0431 279.048 43.4324 279.107 43.8378 279.224C44.2538 279.331 44.6378 279.512 44.9898 279.768C45.1604 279.875 45.2564 280.013 45.2778 280.184C45.3098 280.344 45.2831 280.499 45.1978 280.648C45.1231 280.787 45.0111 280.883 44.8618 280.936C44.7124 280.979 44.5418 280.947 44.3498 280.84C44.0938 280.659 43.8324 280.531 43.5658 280.456C43.2991 280.371 43.0431 280.328 42.7977 280.328C42.0404 280.328 41.4538 280.568 41.0378 281.048C40.6324 281.517 40.4298 282.189 40.4298 283.064C40.4298 283.939 40.6324 284.627 41.0378 285.128C41.4538 285.619 42.0404 285.864 42.7977 285.864C43.0431 285.864 43.2938 285.827 43.5498 285.752C43.8164 285.677 44.0831 285.549 44.3498 285.368C44.5418 285.261 44.7071 285.235 44.8458 285.288C44.9951 285.341 45.1018 285.443 45.1658 285.592C45.2404 285.731 45.2618 285.885 45.2298 286.056C45.2084 286.216 45.1124 286.349 44.9418 286.456C44.6004 286.701 44.2271 286.877 43.8218 286.984C43.4271 287.091 43.0431 287.144 42.6698 287.144ZM50.0421 287.144C49.0608 287.144 48.3301 286.893 47.8501 286.392C47.3701 285.891 47.1301 285.165 47.1301 284.216V280.44H46.1701C45.7221 280.44 45.4981 280.232 45.4981 279.816C45.4981 279.4 45.7221 279.192 46.1701 279.192H47.1301V277.544C47.1301 277 47.4021 276.728 47.9461 276.728C48.4795 276.728 48.7461 277 48.7461 277.544V279.192H50.6181C51.0661 279.192 51.2901 279.4 51.2901 279.816C51.2901 280.232 51.0661 280.44 50.6181 280.44H48.7461V284.088C48.7461 284.653 48.8635 285.08 49.0981 285.368C49.3435 285.656 49.7381 285.8 50.2821 285.8C50.4741 285.8 50.6395 285.784 50.7781 285.752C50.9168 285.709 51.0395 285.683 51.1461 285.672C51.2635 285.672 51.3595 285.715 51.4341 285.8C51.5088 285.875 51.5461 286.024 51.5461 286.248C51.5461 286.419 51.5141 286.573 51.4501 286.712C51.3968 286.84 51.2955 286.925 51.1461 286.968C51.0181 287.021 50.8421 287.064 50.6181 287.096C50.4048 287.128 50.2128 287.144 50.0421 287.144ZM53.4985 277.448C53.1785 277.448 52.9278 277.368 52.7465 277.208C52.5758 277.048 52.4905 276.824 52.4905 276.536C52.4905 275.928 52.8265 275.624 53.4985 275.624C54.1705 275.624 54.5065 275.928 54.5065 276.536C54.5065 277.144 54.1705 277.448 53.4985 277.448ZM53.4985 287.096C52.9652 287.096 52.6985 286.803 52.6985 286.216V279.976C52.6985 279.4 52.9652 279.112 53.4985 279.112C54.0425 279.112 54.3145 279.4 54.3145 279.976V286.216C54.3145 286.803 54.0425 287.096 53.4985 287.096ZM59.6131 287.112C59.1651 287.112 58.8345 286.872 58.6211 286.392L55.9491 280.184C55.8211 279.896 55.8158 279.64 55.9331 279.416C56.0505 279.192 56.2905 279.08 56.6531 279.08C56.8451 279.08 56.9998 279.128 57.1171 279.224C57.2451 279.32 57.3571 279.485 57.4531 279.72L59.6451 285.128L61.8851 279.72C61.9811 279.485 62.0878 279.32 62.2051 279.224C62.3331 279.128 62.5091 279.08 62.7331 279.08C63.0211 279.08 63.2185 279.192 63.3251 279.416C63.4318 279.64 63.4265 279.891 63.3091 280.168L60.6051 286.392C60.4025 286.872 60.0718 287.112 59.6131 287.112ZM68.425 287.144C67.145 287.144 66.137 286.787 65.401 286.072C64.665 285.347 64.297 284.36 64.297 283.112C64.297 282.312 64.457 281.608 64.777 281C65.1077 280.381 65.561 279.901 66.137 279.56C66.713 279.219 67.3743 279.048 68.121 279.048C69.1983 279.048 70.0463 279.395 70.665 280.088C71.2837 280.771 71.593 281.715 71.593 282.92C71.593 283.283 71.3797 283.464 70.953 283.464H65.865C65.9823 285.085 66.841 285.896 68.441 285.896C68.761 285.896 69.097 285.859 69.449 285.784C69.801 285.699 70.1423 285.549 70.473 285.336C70.697 285.208 70.889 285.165 71.049 285.208C71.2197 285.24 71.3423 285.331 71.417 285.48C71.4917 285.619 71.5023 285.779 71.449 285.96C71.4063 286.131 71.2837 286.28 71.081 286.408C70.7183 286.653 70.2917 286.84 69.801 286.968C69.321 287.085 68.8623 287.144 68.425 287.144ZM68.185 280.184C67.513 280.184 66.9797 280.392 66.585 280.808C66.1903 281.224 65.9503 281.779 65.865 282.472H70.233C70.201 281.747 70.009 281.187 69.657 280.792C69.305 280.387 68.8143 280.184 68.185 280.184Z" fill="white"/>
<path d="M20.672 358.144C20.0427 358.144 19.4187 358.053 18.8 357.872C18.1813 357.691 17.6427 357.424 17.184 357.072C17.0133 356.944 16.912 356.805 16.88 356.656C16.8587 356.496 16.88 356.352 16.944 356.224C17.0187 356.096 17.1307 356.016 17.28 355.984C17.4293 355.941 17.5947 355.979 17.776 356.096C18.2453 356.405 18.7147 356.629 19.184 356.768C19.6533 356.907 20.1387 356.976 20.64 356.976C21.4507 356.976 22.0693 356.8 22.496 356.448C22.9333 356.085 23.152 355.557 23.152 354.864C23.152 354.203 22.9333 353.701 22.496 353.36C22.0587 353.019 21.424 352.848 20.592 352.848H19.456C19.04 352.848 18.832 352.656 18.832 352.272C18.832 351.899 19.04 351.712 19.456 351.712H20.48C21.2053 351.712 21.776 351.525 22.192 351.152C22.6187 350.768 22.832 350.245 22.832 349.584C22.832 348.997 22.6347 348.544 22.24 348.224C21.856 347.904 21.3067 347.744 20.592 347.744C20.1013 347.744 19.6427 347.813 19.216 347.952C18.8 348.091 18.384 348.325 17.968 348.656C17.808 348.773 17.6533 348.816 17.504 348.784C17.3653 348.752 17.2533 348.677 17.168 348.56C17.0933 348.432 17.0667 348.288 17.088 348.128C17.12 347.968 17.2213 347.824 17.392 347.696C17.808 347.344 18.304 347.072 18.88 346.88C19.456 346.677 20.0533 346.576 20.672 346.576C21.76 346.576 22.608 346.832 23.216 347.344C23.8347 347.856 24.144 348.565 24.144 349.472C24.144 350.101 23.984 350.656 23.664 351.136C23.344 351.605 22.9013 351.947 22.336 352.16C23.008 352.341 23.5307 352.677 23.904 353.168C24.2773 353.648 24.464 354.245 24.464 354.96C24.464 355.931 24.1227 356.704 23.44 357.28C22.768 357.856 21.8453 358.144 20.672 358.144ZM30.3938 358.144C29.1244 358.144 28.1378 357.872 27.4338 357.328C26.7298 356.773 26.3778 356 26.3778 355.008C26.3778 354.315 26.5644 353.723 26.9378 353.232C27.3218 352.741 27.8284 352.405 28.4578 352.224C27.8924 352.011 27.4498 351.669 27.1298 351.2C26.8098 350.731 26.6497 350.192 26.6497 349.584C26.6497 348.635 26.9858 347.899 27.6578 347.376C28.3404 346.843 29.2524 346.576 30.3938 346.576C31.5351 346.576 32.4471 346.843 33.1298 347.376C33.8124 347.899 34.1538 348.635 34.1538 349.584C34.1538 350.192 33.9884 350.736 33.6578 351.216C33.3378 351.685 32.9004 352.021 32.3458 352.224C32.9751 352.405 33.4764 352.741 33.8498 353.232C34.2231 353.723 34.4097 354.315 34.4097 355.008C34.4097 356 34.0578 356.773 33.3538 357.328C32.6498 357.872 31.6631 358.144 30.3938 358.144ZM30.3938 351.744C31.1724 351.744 31.7804 351.563 32.2178 351.2C32.6658 350.827 32.8898 350.325 32.8898 349.696C32.8898 349.056 32.6658 348.56 32.2178 348.208C31.7804 347.845 31.1724 347.664 30.3938 347.664C29.6151 347.664 29.0071 347.845 28.5698 348.208C28.1324 348.56 27.9138 349.056 27.9138 349.696C27.9138 350.325 28.1324 350.827 28.5698 351.2C29.0071 351.563 29.6151 351.744 30.3938 351.744ZM30.3938 357.056C32.2284 357.056 33.1458 356.347 33.1458 354.928C33.1458 353.531 32.2284 352.832 30.3938 352.832C28.5591 352.832 27.6418 353.531 27.6418 354.928C27.6418 356.347 28.5591 357.056 30.3938 357.056ZM39.9875 358.016C39.8915 358.187 39.7742 358.288 39.6355 358.32C39.4968 358.352 39.3635 358.331 39.2355 358.256C39.1182 358.192 39.0382 358.091 38.9955 357.952C38.9528 357.813 38.9795 357.659 39.0755 357.488L45.2515 346.736C45.3475 346.565 45.4648 346.464 45.6035 346.432C45.7422 346.4 45.8702 346.421 45.9875 346.496C46.1048 346.56 46.1848 346.661 46.2275 346.8C46.2808 346.939 46.2595 347.093 46.1635 347.264L39.9875 358.016ZM38.8035 353.488C37.9502 353.488 37.2835 353.184 36.8035 352.576C36.3235 351.968 36.0835 351.12 36.0835 350.032C36.0835 348.944 36.3235 348.101 36.8035 347.504C37.2835 346.896 37.9502 346.592 38.8035 346.592C39.6462 346.592 40.3075 346.896 40.7875 347.504C41.2782 348.101 41.5235 348.944 41.5235 350.032C41.5235 351.12 41.2782 351.968 40.7875 352.576C40.3075 353.184 39.6462 353.488 38.8035 353.488ZM38.8035 352.544C39.2942 352.544 39.6835 352.336 39.9715 351.92C40.2595 351.493 40.4035 350.864 40.4035 350.032C40.4035 349.2 40.2595 348.576 39.9715 348.16C39.6835 347.744 39.2942 347.536 38.8035 347.536C38.3022 347.536 37.9075 347.744 37.6195 348.16C37.3422 348.576 37.2035 349.2 37.2035 350.032C37.2035 350.864 37.3422 351.493 37.6195 351.92C37.9075 352.336 38.3022 352.544 38.8035 352.544ZM46.4515 358.144C45.6088 358.144 44.9422 357.84 44.4515 357.232C43.9715 356.624 43.7315 355.776 43.7315 354.688C43.7315 353.611 43.9715 352.768 44.4515 352.16C44.9422 351.552 45.6088 351.248 46.4515 351.248C47.3048 351.248 47.9715 351.552 48.4515 352.16C48.9315 352.768 49.1715 353.611 49.1715 354.688C49.1715 355.776 48.9315 356.624 48.4515 357.232C47.9715 357.84 47.3048 358.144 46.4515 358.144ZM46.4515 357.2C46.9528 357.2 47.3422 356.992 47.6195 356.576C47.9075 356.149 48.0515 355.52 48.0515 354.688C48.0515 353.856 47.9075 353.232 47.6195 352.816C47.3422 352.4 46.9528 352.192 46.4515 352.192C45.9608 352.192 45.5715 352.4 45.2835 352.816C45.0062 353.232 44.8675 353.856 44.8675 354.688C44.8675 355.531 45.0062 356.16 45.2835 356.576C45.5715 356.992 45.9608 357.2 46.4515 357.2Z" fill="white"/>
<path d="M261.96 356.098C261.774 356.098 261.648 356.042 261.582 355.93C261.517 355.818 261.503 355.669 261.54 355.482L261.904 353.522H261.316C260.934 353.522 260.742 353.359 260.742 353.032C260.742 352.715 260.934 352.556 261.316 352.556H262.086L262.702 349.462H261.596C261.214 349.462 261.022 349.299 261.022 348.972C261.022 348.655 261.214 348.496 261.596 348.496H262.87L263.262 346.536C263.328 346.2 263.528 346.032 263.864 346.032C264.21 346.032 264.345 346.237 264.27 346.648L263.906 348.496H265.922L266.314 346.536C266.38 346.2 266.58 346.032 266.916 346.032C267.262 346.032 267.397 346.237 267.322 346.648L266.958 348.496H267.56C267.943 348.496 268.134 348.655 268.134 348.972C268.134 349.299 267.943 349.462 267.56 349.462H266.776L266.174 352.556H267.28C267.663 352.556 267.854 352.715 267.854 353.032C267.854 353.359 267.663 353.522 267.28 353.522H266.006L265.586 355.594C265.521 355.93 265.325 356.098 264.998 356.098C264.83 356.098 264.709 356.047 264.634 355.944C264.56 355.832 264.541 355.678 264.578 355.482L264.97 353.522H262.954L262.548 355.594C262.483 355.93 262.287 356.098 261.96 356.098ZM263.136 352.556H265.138L265.74 349.462H263.738L263.136 352.556ZM272.833 356.126C271.685 356.126 270.807 355.692 270.201 354.824C269.603 353.947 269.305 352.691 269.305 351.058C269.305 349.397 269.603 348.141 270.201 347.292C270.807 346.433 271.685 346.004 272.833 346.004C273.99 346.004 274.867 346.433 275.465 347.292C276.062 348.141 276.361 349.392 276.361 351.044C276.361 352.687 276.057 353.947 275.451 354.824C274.853 355.692 273.981 356.126 272.833 356.126ZM272.833 354.922C273.542 354.922 274.069 354.609 274.415 353.984C274.76 353.349 274.933 352.369 274.933 351.044C274.933 349.709 274.76 348.739 274.415 348.132C274.079 347.516 273.551 347.208 272.833 347.208C272.123 347.208 271.596 347.516 271.251 348.132C270.905 348.748 270.733 349.719 270.733 351.044C270.733 352.369 270.905 353.349 271.251 353.984C271.596 354.609 272.123 354.922 272.833 354.922ZM281.227 356.126C280.079 356.126 279.202 355.692 278.595 354.824C277.998 353.947 277.699 352.691 277.699 351.058C277.699 349.397 277.998 348.141 278.595 347.292C279.202 346.433 280.079 346.004 281.227 346.004C282.385 346.004 283.262 346.433 283.859 347.292C284.457 348.141 284.755 349.392 284.755 351.044C284.755 352.687 284.452 353.947 283.845 354.824C283.248 355.692 282.375 356.126 281.227 356.126ZM281.227 354.922C281.937 354.922 282.464 354.609 282.809 353.984C283.155 353.349 283.327 352.369 283.327 351.044C283.327 349.709 283.155 348.739 282.809 348.132C282.473 347.516 281.946 347.208 281.227 347.208C280.518 347.208 279.991 347.516 279.645 348.132C279.3 348.748 279.127 349.719 279.127 351.044C279.127 352.369 279.3 353.349 279.645 353.984C279.991 354.609 280.518 354.922 281.227 354.922ZM289.622 356.126C288.474 356.126 287.597 355.692 286.99 354.824C286.393 353.947 286.094 352.691 286.094 351.058C286.094 349.397 286.393 348.141 286.99 347.292C287.597 346.433 288.474 346.004 289.622 346.004C290.779 346.004 291.657 346.433 292.254 347.292C292.851 348.141 293.15 349.392 293.15 351.044C293.15 352.687 292.847 353.947 292.24 354.824C291.643 355.692 290.77 356.126 289.622 356.126ZM289.622 354.922C290.331 354.922 290.859 354.609 291.204 353.984C291.549 353.349 291.722 352.369 291.722 351.044C291.722 349.709 291.549 348.739 291.204 348.132C290.868 347.516 290.341 347.208 289.622 347.208C288.913 347.208 288.385 347.516 288.04 348.132C287.695 348.748 287.522 349.719 287.522 351.044C287.522 352.369 287.695 353.349 288.04 353.984C288.385 354.609 288.913 354.922 289.622 354.922ZM298.016 356.126C296.868 356.126 295.991 355.692 295.384 354.824C294.787 353.947 294.488 352.691 294.488 351.058C294.488 349.397 294.787 348.141 295.384 347.292C295.991 346.433 296.868 346.004 298.016 346.004C299.174 346.004 300.051 346.433 300.648 347.292C301.246 348.141 301.544 349.392 301.544 351.044C301.544 352.687 301.241 353.947 300.634 354.824C300.037 355.692 299.164 356.126 298.016 356.126ZM298.016 354.922C298.726 354.922 299.253 354.609 299.598 353.984C299.944 353.349 300.116 352.369 300.116 351.044C300.116 349.709 299.944 348.739 299.598 348.132C299.262 347.516 298.735 347.208 298.016 347.208C297.307 347.208 296.78 347.516 296.434 348.132C296.089 348.748 295.916 349.719 295.916 351.044C295.916 352.369 296.089 353.349 296.434 353.984C296.78 354.609 297.307 354.922 298.016 354.922ZM306.411 356.126C305.263 356.126 304.386 355.692 303.779 354.824C303.182 353.947 302.883 352.691 302.883 351.058C302.883 349.397 303.182 348.141 303.779 347.292C304.386 346.433 305.263 346.004 306.411 346.004C307.568 346.004 308.446 346.433 309.043 347.292C309.64 348.141 309.939 349.392 309.939 351.044C309.939 352.687 309.636 353.947 309.029 354.824C308.432 355.692 307.559 356.126 306.411 356.126ZM306.411 354.922C307.12 354.922 307.648 354.609 307.993 353.984C308.338 353.349 308.511 352.369 308.511 351.044C308.511 349.709 308.338 348.739 307.993 348.132C307.657 347.516 307.13 347.208 306.411 347.208C305.702 347.208 305.174 347.516 304.829 348.132C304.484 348.748 304.311 349.719 304.311 351.044C304.311 352.369 304.484 353.349 304.829 353.984C305.174 354.609 305.702 354.922 306.411 354.922ZM314.805 356.126C313.657 356.126 312.78 355.692 312.173 354.824C311.576 353.947 311.277 352.691 311.277 351.058C311.277 349.397 311.576 348.141 312.173 347.292C312.78 346.433 313.657 346.004 314.805 346.004C315.963 346.004 316.84 346.433 317.437 347.292C318.035 348.141 318.333 349.392 318.333 351.044C318.333 352.687 318.03 353.947 317.423 354.824C316.826 355.692 315.953 356.126 314.805 356.126ZM314.805 354.922C315.515 354.922 316.042 354.609 316.387 353.984C316.733 353.349 316.905 352.369 316.905 351.044C316.905 349.709 316.733 348.739 316.387 348.132C316.051 347.516 315.524 347.208 314.805 347.208C314.096 347.208 313.569 347.516 313.223 348.132C312.878 348.748 312.705 349.719 312.705 351.044C312.705 352.369 312.878 353.349 313.223 353.984C313.569 354.609 314.096 354.922 314.805 354.922Z" fill="white"/>
<path d="M307 332C312.523 332 317 327.523 317 322C317 316.477 312.523 312 307 312C301.477 312 297 316.477 297 322C297 327.523 301.477 332 307 332Z" stroke="white" stroke-width="2" stroke-linecap="round" stroke-linejoin="round"/>
<path d="M311.24 317.76L309.12 324.12L302.76 326.24L304.88 319.88L311.24 317.76Z" stroke="white" stroke-width="2" stroke-linecap="round" stroke-linejoin="round"/>
</g>
<line y1="126.008" x2="335.001" y2="126.008" stroke="white"/>
<line y1="253.008" x2="335.001" y2="253.008" stroke="white"/>
</g>
<defs>
<clipPath id="clip0_2783_5532">
<rect width="335" height="381" fill="white"/>
</clipPath>
</defs>
</svg>
