<svg width="300" height="300" viewBox="0 0 300 300" fill="none" xmlns="http://www.w3.org/2000/svg">
<rect width="300" height="300" fill="#F4F4F4"/>
<rect x="118.185" y="118.185" width="62.6294" height="62.6294" stroke="#00838F" stroke-width="0.370588"/>
<g opacity="0.5">
<rect x="119.482" y="118.371" width="0.741176" height="62.2588" fill="#CCCCCC" fill-opacity="0.4"/>
<rect x="121.706" y="118.371" width="0.741176" height="62.2588" fill="#CCCCCC" fill-opacity="0.4"/>
<rect x="123.93" y="118.371" width="0.741176" height="62.2588" fill="#CCCCCC" fill-opacity="0.4"/>
<rect x="126.153" y="118.371" width="0.741176" height="62.2588" fill="#CCCCCC" fill-opacity="0.4"/>
<rect x="128.377" y="118.371" width="0.741176" height="62.2588" fill="#CCCCCC" fill-opacity="0.4"/>
<rect x="130.6" y="118.371" width="0.741176" height="62.2588" fill="#CCCCCC" fill-opacity="0.4"/>
<rect x="132.823" y="118.371" width="0.741176" height="62.2588" fill="#CCCCCC" fill-opacity="0.4"/>
<rect x="135.047" y="118.371" width="0.741176" height="62.2588" fill="#CCCCCC" fill-opacity="0.4"/>
<rect x="137.271" y="118.371" width="0.741176" height="62.2588" fill="#CCCCCC" fill-opacity="0.4"/>
<rect x="139.494" y="118.371" width="0.741176" height="62.2588" fill="#CCCCCC" fill-opacity="0.4"/>
<rect x="141.718" y="118.371" width="0.741176" height="62.2588" fill="#CCCCCC" fill-opacity="0.4"/>
<rect x="143.941" y="118.371" width="0.741176" height="62.2588" fill="#CCCCCC" fill-opacity="0.4"/>
<rect x="146.165" y="118.371" width="0.741176" height="62.2588" fill="#CCCCCC" fill-opacity="0.4"/>
<rect x="148.389" y="118.371" width="0.741176" height="62.2588" fill="#CCCCCC" fill-opacity="0.4"/>
<rect x="150.611" y="118.371" width="0.741176" height="62.2588" fill="#CCCCCC" fill-opacity="0.4"/>
<rect x="152.835" y="118.371" width="0.741176" height="62.2588" fill="#CCCCCC" fill-opacity="0.4"/>
<rect x="155.059" y="118.371" width="0.741176" height="62.2588" fill="#CCCCCC" fill-opacity="0.4"/>
<rect x="157.282" y="118.371" width="0.741176" height="62.2588" fill="#CCCCCC" fill-opacity="0.4"/>
<rect x="159.506" y="118.371" width="0.741176" height="62.2588" fill="#CCCCCC" fill-opacity="0.4"/>
<rect x="161.729" y="118.371" width="0.741176" height="62.2588" fill="#CCCCCC" fill-opacity="0.4"/>
<rect x="163.953" y="118.371" width="0.741176" height="62.2588" fill="#CCCCCC" fill-opacity="0.4"/>
<rect x="166.177" y="118.371" width="0.741176" height="62.2588" fill="#CCCCCC" fill-opacity="0.4"/>
<rect x="168.4" y="118.371" width="0.741176" height="62.2588" fill="#CCCCCC" fill-opacity="0.4"/>
<rect x="170.623" y="118.371" width="0.741176" height="62.2588" fill="#CCCCCC" fill-opacity="0.4"/>
<rect x="172.847" y="118.371" width="0.741176" height="62.2588" fill="#CCCCCC" fill-opacity="0.4"/>
<rect x="175.07" y="118.371" width="0.741176" height="62.2588" fill="#CCCCCC" fill-opacity="0.4"/>
<rect x="177.294" y="118.371" width="0.741176" height="62.2588" fill="#CCCCCC" fill-opacity="0.4"/>
<rect x="179.518" y="118.371" width="0.741176" height="62.2588" fill="#CCCCCC" fill-opacity="0.4"/>
</g>
<g opacity="0.5">
<rect x="118.37" y="179.888" width="0.741176" height="62.2588" transform="rotate(-90 118.37 179.888)" fill="#CCCCCC" fill-opacity="0.4"/>
<rect x="118.37" y="177.665" width="0.741176" height="62.2588" transform="rotate(-90 118.37 177.665)" fill="#CCCCCC" fill-opacity="0.4"/>
<rect x="118.37" y="175.441" width="0.741176" height="62.2588" transform="rotate(-90 118.37 175.441)" fill="#CCCCCC" fill-opacity="0.4"/>
<rect x="118.37" y="173.218" width="0.741176" height="62.2588" transform="rotate(-90 118.37 173.218)" fill="#CCCCCC" fill-opacity="0.4"/>
<rect x="118.37" y="170.994" width="0.741176" height="62.2588" transform="rotate(-90 118.37 170.994)" fill="#CCCCCC" fill-opacity="0.4"/>
<rect x="118.37" y="168.771" width="0.741176" height="62.2588" transform="rotate(-90 118.37 168.771)" fill="#CCCCCC" fill-opacity="0.4"/>
<rect x="118.37" y="166.547" width="0.741176" height="62.2588" transform="rotate(-90 118.37 166.547)" fill="#CCCCCC" fill-opacity="0.4"/>
<rect x="118.37" y="164.324" width="0.741176" height="62.2588" transform="rotate(-90 118.37 164.324)" fill="#CCCCCC" fill-opacity="0.4"/>
<rect x="118.37" y="162.1" width="0.741176" height="62.2588" transform="rotate(-90 118.37 162.1)" fill="#CCCCCC" fill-opacity="0.4"/>
<rect x="118.37" y="159.877" width="0.741176" height="62.2588" transform="rotate(-90 118.37 159.877)" fill="#CCCCCC" fill-opacity="0.4"/>
<rect x="118.37" y="157.653" width="0.741176" height="62.2588" transform="rotate(-90 118.37 157.653)" fill="#CCCCCC" fill-opacity="0.4"/>
<rect x="118.37" y="155.429" width="0.741176" height="62.2588" transform="rotate(-90 118.37 155.429)" fill="#CCCCCC" fill-opacity="0.4"/>
<rect x="118.37" y="153.206" width="0.741176" height="62.2588" transform="rotate(-90 118.37 153.206)" fill="#CCCCCC" fill-opacity="0.4"/>
<rect x="118.37" y="150.982" width="0.741176" height="62.2588" transform="rotate(-90 118.37 150.982)" fill="#CCCCCC" fill-opacity="0.4"/>
<rect x="118.37" y="148.759" width="0.741176" height="62.2588" transform="rotate(-90 118.37 148.759)" fill="#CCCCCC" fill-opacity="0.4"/>
<rect x="118.37" y="146.535" width="0.741176" height="62.2588" transform="rotate(-90 118.37 146.535)" fill="#CCCCCC" fill-opacity="0.4"/>
<rect x="118.37" y="144.312" width="0.741176" height="62.2588" transform="rotate(-90 118.37 144.312)" fill="#CCCCCC" fill-opacity="0.4"/>
<rect x="118.37" y="142.088" width="0.741176" height="62.2588" transform="rotate(-90 118.37 142.088)" fill="#CCCCCC" fill-opacity="0.4"/>
<rect x="118.37" y="139.865" width="0.741176" height="62.2588" transform="rotate(-90 118.37 139.865)" fill="#CCCCCC" fill-opacity="0.4"/>
<rect x="118.37" y="137.641" width="0.741176" height="62.2588" transform="rotate(-90 118.37 137.641)" fill="#CCCCCC" fill-opacity="0.4"/>
<rect x="118.37" y="135.418" width="0.741176" height="62.2588" transform="rotate(-90 118.37 135.418)" fill="#CCCCCC" fill-opacity="0.4"/>
<rect x="118.37" y="133.194" width="0.741176" height="62.2588" transform="rotate(-90 118.37 133.194)" fill="#CCCCCC" fill-opacity="0.4"/>
<rect x="118.37" y="130.971" width="0.741176" height="62.2588" transform="rotate(-90 118.37 130.971)" fill="#CCCCCC" fill-opacity="0.4"/>
<rect x="118.37" y="128.747" width="0.741176" height="62.2588" transform="rotate(-90 118.37 128.747)" fill="#CCCCCC" fill-opacity="0.4"/>
<rect x="118.37" y="126.524" width="0.741176" height="62.2588" transform="rotate(-90 118.37 126.524)" fill="#CCCCCC" fill-opacity="0.4"/>
<rect x="118.37" y="124.3" width="0.741176" height="62.2588" transform="rotate(-90 118.37 124.3)" fill="#CCCCCC" fill-opacity="0.4"/>
<rect x="118.37" y="122.077" width="0.741176" height="62.2588" transform="rotate(-90 118.37 122.077)" fill="#CCCCCC" fill-opacity="0.4"/>
<rect x="118.37" y="119.853" width="0.741176" height="62.2588" transform="rotate(-90 118.37 119.853)" fill="#CCCCCC" fill-opacity="0.4"/>
</g>
<path d="M143.079 215.757C143.199 215.757 143.292 215.787 143.359 215.847C143.426 215.907 143.459 215.991 143.459 216.097C143.459 216.331 143.332 216.447 143.079 216.447H139.159C139.046 216.447 138.952 216.414 138.879 216.347C138.806 216.274 138.769 216.187 138.769 216.087C138.769 215.961 138.816 215.851 138.909 215.757L141.319 213.107C141.652 212.734 141.892 212.401 142.039 212.107C142.192 211.807 142.269 211.507 142.269 211.207C142.269 210.821 142.156 210.524 141.929 210.317C141.709 210.111 141.396 210.007 140.989 210.007C140.669 210.007 140.362 210.067 140.069 210.187C139.776 210.301 139.482 210.477 139.189 210.717C139.089 210.797 138.996 210.837 138.909 210.837C138.836 210.837 138.772 210.804 138.719 210.737C138.666 210.664 138.639 210.577 138.639 210.477C138.639 210.337 138.692 210.224 138.799 210.137C139.072 209.884 139.406 209.684 139.799 209.537C140.192 209.391 140.596 209.317 141.009 209.317C141.642 209.317 142.146 209.484 142.519 209.817C142.899 210.151 143.089 210.601 143.089 211.167C143.089 211.574 142.996 211.964 142.809 212.337C142.629 212.711 142.329 213.127 141.909 213.587L139.909 215.757H143.079ZM149.325 214.237C149.445 214.237 149.538 214.271 149.605 214.337C149.672 214.397 149.705 214.477 149.705 214.577C149.705 214.804 149.578 214.917 149.325 214.917H148.575V216.077C148.575 216.211 148.535 216.314 148.455 216.387C148.382 216.461 148.285 216.497 148.165 216.497C148.045 216.497 147.948 216.461 147.875 216.387C147.802 216.314 147.765 216.211 147.765 216.077V214.917H144.805C144.685 214.917 144.592 214.884 144.525 214.817C144.458 214.751 144.425 214.667 144.425 214.567C144.425 214.474 144.462 214.371 144.535 214.257L147.805 209.527C147.898 209.407 148.018 209.347 148.165 209.347C148.278 209.347 148.375 209.384 148.455 209.457C148.535 209.531 148.575 209.634 148.575 209.767V214.237H149.325ZM147.765 214.237V210.767L145.355 214.237H147.765ZM153.191 211.457C153.618 211.457 153.995 211.564 154.321 211.777C154.648 211.991 154.901 212.291 155.081 212.677C155.261 213.057 155.351 213.501 155.351 214.007C155.351 214.514 155.261 214.957 155.081 215.337C154.901 215.711 154.648 216.001 154.321 216.207C154.001 216.414 153.625 216.517 153.191 216.517C152.811 216.517 152.478 216.434 152.191 216.267C151.911 216.101 151.698 215.864 151.551 215.557V217.907C151.551 218.027 151.515 218.121 151.441 218.187C151.375 218.261 151.278 218.297 151.151 218.297C151.025 218.297 150.925 218.261 150.851 218.187C150.778 218.114 150.741 218.021 150.741 217.907V211.877C150.741 211.757 150.778 211.661 150.851 211.587C150.925 211.514 151.025 211.477 151.151 211.477C151.278 211.477 151.375 211.514 151.441 211.587C151.515 211.661 151.551 211.757 151.551 211.877V212.417C151.698 212.111 151.911 211.874 152.191 211.707C152.478 211.541 152.811 211.457 153.191 211.457ZM153.031 215.847C153.505 215.847 153.871 215.687 154.131 215.367C154.391 215.047 154.521 214.594 154.521 214.007C154.521 213.421 154.391 212.964 154.131 212.637C153.871 212.304 153.505 212.137 153.031 212.137C152.558 212.137 152.191 212.297 151.931 212.617C151.678 212.937 151.551 213.394 151.551 213.987C151.551 214.581 151.678 215.041 151.931 215.367C152.191 215.687 152.558 215.847 153.031 215.847ZM160.464 215.827C160.544 215.907 160.584 216.004 160.584 216.117C160.584 216.217 160.547 216.304 160.474 216.377C160.401 216.451 160.314 216.487 160.214 216.487C160.107 216.487 160.011 216.441 159.924 216.347L158.304 214.497L156.694 216.347C156.607 216.441 156.511 216.487 156.404 216.487C156.304 216.487 156.214 216.451 156.134 216.377C156.061 216.304 156.024 216.214 156.024 216.107C156.024 216.007 156.064 215.914 156.144 215.827L157.804 213.957L156.214 212.147C156.134 212.054 156.094 211.961 156.094 211.867C156.094 211.761 156.131 211.671 156.204 211.597C156.284 211.524 156.371 211.487 156.464 211.487C156.571 211.487 156.667 211.534 156.754 211.627L158.304 213.407L159.854 211.627C159.941 211.534 160.037 211.487 160.144 211.487C160.244 211.487 160.331 211.524 160.404 211.597C160.477 211.671 160.514 211.757 160.514 211.857C160.514 211.971 160.474 212.067 160.394 212.147L158.804 213.957L160.464 215.827Z" fill="#2C333A"/>
<rect x="118" y="192.353" width="0.741174" height="5.5588" fill="#C4C4C4"/>
<rect x="180.258" y="192.353" width="0.741174" height="5.5588" fill="#C4C4C4"/>
<rect x="118.371" y="194.947" width="61.888" height="0.370587" fill="#C4C4C4"/>
<path d="M220.405 155.92C220.405 155.8 220.435 155.707 220.495 155.64C220.555 155.573 220.638 155.54 220.745 155.54C220.978 155.54 221.095 155.667 221.095 155.92V159.84C221.095 159.953 221.061 160.047 220.995 160.12C220.921 160.193 220.835 160.23 220.735 160.23C220.608 160.23 220.498 160.183 220.405 160.09L217.755 157.68C217.381 157.347 217.048 157.107 216.755 156.96C216.455 156.807 216.155 156.73 215.855 156.73C215.468 156.73 215.171 156.843 214.965 157.07C214.758 157.29 214.655 157.603 214.655 158.01C214.655 158.33 214.715 158.637 214.835 158.93C214.948 159.223 215.125 159.517 215.365 159.81C215.445 159.91 215.485 160.003 215.485 160.09C215.485 160.163 215.451 160.227 215.385 160.28C215.311 160.333 215.225 160.36 215.125 160.36C214.985 160.36 214.871 160.307 214.785 160.2C214.531 159.927 214.331 159.593 214.185 159.2C214.038 158.807 213.965 158.403 213.965 157.99C213.965 157.357 214.131 156.853 214.465 156.48C214.798 156.1 215.248 155.91 215.815 155.91C216.221 155.91 216.611 156.003 216.985 156.19C217.358 156.37 217.775 156.67 218.235 157.09L220.405 159.09V155.92ZM218.885 149.674C218.885 149.554 218.918 149.46 218.985 149.394C219.045 149.327 219.125 149.294 219.225 149.294C219.451 149.294 219.565 149.42 219.565 149.674V150.424H220.725C220.858 150.424 220.961 150.464 221.035 150.544C221.108 150.617 221.145 150.714 221.145 150.834C221.145 150.954 221.108 151.05 221.035 151.124C220.961 151.197 220.858 151.234 220.725 151.234H219.565V154.194C219.565 154.314 219.531 154.407 219.465 154.474C219.398 154.54 219.315 154.574 219.215 154.574C219.121 154.574 219.018 154.537 218.905 154.464L214.175 151.194C214.055 151.1 213.995 150.98 213.995 150.834C213.995 150.72 214.031 150.624 214.105 150.544C214.178 150.464 214.281 150.424 214.415 150.424H218.885V149.674ZM218.885 151.234H215.415L218.885 153.644V151.234ZM216.105 145.808C216.105 145.381 216.211 145.004 216.425 144.678C216.638 144.351 216.938 144.098 217.325 143.918C217.705 143.738 218.148 143.648 218.655 143.648C219.161 143.648 219.605 143.738 219.985 143.918C220.358 144.098 220.648 144.351 220.855 144.678C221.061 144.998 221.165 145.374 221.165 145.808C221.165 146.188 221.081 146.521 220.915 146.808C220.748 147.088 220.511 147.301 220.205 147.448H222.555C222.675 147.448 222.768 147.484 222.835 147.558C222.908 147.624 222.945 147.721 222.945 147.848C222.945 147.974 222.908 148.074 222.835 148.148C222.761 148.221 222.668 148.258 222.555 148.258H216.525C216.405 148.258 216.308 148.221 216.235 148.148C216.161 148.074 216.125 147.974 216.125 147.848C216.125 147.721 216.161 147.624 216.235 147.558C216.308 147.484 216.405 147.448 216.525 147.448H217.065C216.758 147.301 216.521 147.088 216.355 146.808C216.188 146.521 216.105 146.188 216.105 145.808ZM220.495 145.968C220.495 145.494 220.335 145.128 220.015 144.868C219.695 144.608 219.241 144.478 218.655 144.478C218.068 144.478 217.611 144.608 217.285 144.868C216.951 145.128 216.785 145.494 216.785 145.968C216.785 146.441 216.945 146.808 217.265 147.068C217.585 147.321 218.041 147.448 218.635 147.448C219.228 147.448 219.688 147.321 220.015 147.068C220.335 146.808 220.495 146.441 220.495 145.968ZM220.475 138.535C220.555 138.455 220.651 138.415 220.765 138.415C220.865 138.415 220.951 138.452 221.025 138.525C221.098 138.598 221.135 138.685 221.135 138.785C221.135 138.892 221.088 138.988 220.995 139.075L219.145 140.695L220.995 142.305C221.088 142.392 221.135 142.488 221.135 142.595C221.135 142.695 221.098 142.785 221.025 142.865C220.951 142.938 220.861 142.975 220.755 142.975C220.655 142.975 220.561 142.935 220.475 142.855L218.605 141.195L216.795 142.785C216.701 142.865 216.608 142.905 216.515 142.905C216.408 142.905 216.318 142.868 216.245 142.795C216.171 142.715 216.135 142.628 216.135 142.535C216.135 142.428 216.181 142.332 216.275 142.245L218.055 140.695L216.275 139.145C216.181 139.058 216.135 138.962 216.135 138.855C216.135 138.755 216.171 138.668 216.245 138.595C216.318 138.522 216.405 138.485 216.505 138.485C216.618 138.485 216.715 138.525 216.795 138.605L218.605 140.195L220.475 138.535Z" fill="#2C333A"/>
<rect x="197" y="180.999" width="0.741174" height="5.5588" transform="rotate(-90 197 180.999)" fill="#C4C4C4"/>
<rect x="197" y="118.741" width="0.741174" height="5.5588" transform="rotate(-90 197 118.741)" fill="#C4C4C4"/>
<rect x="199.594" y="180.628" width="61.888" height="0.370587" transform="rotate(-90 199.594 180.628)" fill="#C4C4C4"/>
</svg>
