<svg width="300" height="300" viewBox="0 0 300 300" fill="none" xmlns="http://www.w3.org/2000/svg">
<rect width="300" height="300" fill="#F4F4F4"/>
<path d="M247.112 130.034C247.28 130.034 247.411 130.076 247.504 130.16C247.597 130.244 247.644 130.361 247.644 130.51C247.644 130.837 247.467 131 247.112 131H241.624C241.465 131 241.335 130.953 241.232 130.86C241.129 130.757 241.078 130.636 241.078 130.496C241.078 130.319 241.143 130.165 241.274 130.034L244.648 126.324C245.115 125.801 245.451 125.335 245.656 124.924C245.871 124.504 245.978 124.084 245.978 123.664C245.978 123.123 245.819 122.707 245.502 122.418C245.194 122.129 244.755 121.984 244.186 121.984C243.738 121.984 243.309 122.068 242.898 122.236C242.487 122.395 242.077 122.642 241.666 122.978C241.526 123.09 241.395 123.146 241.274 123.146C241.171 123.146 241.083 123.099 241.008 123.006C240.933 122.903 240.896 122.782 240.896 122.642C240.896 122.446 240.971 122.287 241.12 122.166C241.503 121.811 241.969 121.531 242.52 121.326C243.071 121.121 243.635 121.018 244.214 121.018C245.101 121.018 245.805 121.251 246.328 121.718C246.86 122.185 247.126 122.815 247.126 123.608C247.126 124.177 246.995 124.723 246.734 125.246C246.482 125.769 246.062 126.352 245.474 126.996L242.674 130.034H247.112ZM252.595 131.112C251.465 131.112 250.607 130.683 250.019 129.824C249.431 128.965 249.137 127.715 249.137 126.072C249.137 124.42 249.431 123.165 250.019 122.306C250.607 121.447 251.465 121.018 252.595 121.018C253.724 121.018 254.583 121.447 255.171 122.306C255.759 123.155 256.053 124.406 256.053 126.058C256.053 127.71 255.759 128.965 255.171 129.824C254.583 130.683 253.724 131.112 252.595 131.112ZM252.595 130.146C253.379 130.146 253.957 129.815 254.331 129.152C254.704 128.489 254.891 127.458 254.891 126.058C254.891 124.649 254.704 123.617 254.331 122.964C253.967 122.311 253.388 121.984 252.595 121.984C251.811 121.984 251.232 122.315 250.859 122.978C250.485 123.631 250.299 124.658 250.299 126.058C250.299 127.458 250.485 128.489 250.859 129.152C251.232 129.815 251.811 130.146 252.595 130.146ZM261.269 124.014C261.866 124.014 262.394 124.163 262.851 124.462C263.308 124.761 263.663 125.181 263.915 125.722C264.167 126.254 264.293 126.875 264.293 127.584C264.293 128.293 264.167 128.914 263.915 129.446C263.663 129.969 263.308 130.375 262.851 130.664C262.403 130.953 261.876 131.098 261.269 131.098C260.737 131.098 260.27 130.981 259.869 130.748C259.477 130.515 259.178 130.183 258.973 129.754V133.044C258.973 133.212 258.922 133.343 258.819 133.436C258.726 133.539 258.59 133.59 258.413 133.59C258.236 133.59 258.096 133.539 257.993 133.436C257.89 133.333 257.839 133.203 257.839 133.044V124.602C257.839 124.434 257.89 124.299 257.993 124.196C258.096 124.093 258.236 124.042 258.413 124.042C258.59 124.042 258.726 124.093 258.819 124.196C258.922 124.299 258.973 124.434 258.973 124.602V125.358C259.178 124.929 259.477 124.597 259.869 124.364C260.27 124.131 260.737 124.014 261.269 124.014ZM261.045 130.16C261.708 130.16 262.221 129.936 262.585 129.488C262.949 129.04 263.131 128.405 263.131 127.584C263.131 126.763 262.949 126.123 262.585 125.666C262.221 125.199 261.708 124.966 261.045 124.966C260.382 124.966 259.869 125.19 259.505 125.638C259.15 126.086 258.973 126.725 258.973 127.556C258.973 128.387 259.15 129.031 259.505 129.488C259.869 129.936 260.382 130.16 261.045 130.16ZM271.451 130.132C271.563 130.244 271.619 130.379 271.619 130.538C271.619 130.678 271.567 130.799 271.465 130.902C271.362 131.005 271.241 131.056 271.101 131.056C270.951 131.056 270.816 130.991 270.695 130.86L268.427 128.27L266.173 130.86C266.051 130.991 265.916 131.056 265.767 131.056C265.627 131.056 265.501 131.005 265.389 130.902C265.286 130.799 265.235 130.673 265.235 130.524C265.235 130.384 265.291 130.253 265.403 130.132L267.727 127.514L265.501 124.98C265.389 124.849 265.333 124.719 265.333 124.588C265.333 124.439 265.384 124.313 265.487 124.21C265.599 124.107 265.72 124.056 265.851 124.056C266 124.056 266.135 124.121 266.257 124.252L268.427 126.744L270.597 124.252C270.718 124.121 270.853 124.056 271.003 124.056C271.143 124.056 271.264 124.107 271.367 124.21C271.469 124.313 271.521 124.434 271.521 124.574C271.521 124.733 271.465 124.868 271.353 124.98L269.127 127.514L271.451 130.132Z" fill="#2C333A"/>
<rect x="26.5" y="38.5" width="169" height="169" stroke="#00838F"/>
<g opacity="0.5">
<rect x="30" y="39" width="2" height="168" fill="#CCCCCC" fill-opacity="0.4"/>
<rect x="36" y="39" width="2" height="168" fill="#CCCCCC" fill-opacity="0.4"/>
<rect x="42" y="39" width="2" height="168" fill="#CCCCCC" fill-opacity="0.4"/>
<rect x="48" y="39" width="2" height="168" fill="#CCCCCC" fill-opacity="0.4"/>
<rect x="54" y="39" width="2" height="168" fill="#CCCCCC" fill-opacity="0.4"/>
<rect x="60" y="39" width="2" height="168" fill="#CCCCCC" fill-opacity="0.4"/>
<rect x="66" y="39" width="2" height="168" fill="#CCCCCC" fill-opacity="0.4"/>
<rect x="72" y="39" width="2" height="168" fill="#CCCCCC" fill-opacity="0.4"/>
<rect x="78" y="39" width="2" height="168" fill="#CCCCCC" fill-opacity="0.4"/>
<rect x="84" y="39" width="2" height="168" fill="#CCCCCC" fill-opacity="0.4"/>
<rect x="90" y="39" width="2" height="168" fill="#CCCCCC" fill-opacity="0.4"/>
<rect x="96" y="39" width="2" height="168" fill="#CCCCCC" fill-opacity="0.4"/>
<rect x="102" y="39" width="2" height="168" fill="#CCCCCC" fill-opacity="0.4"/>
<rect x="108" y="39" width="2" height="168" fill="#CCCCCC" fill-opacity="0.4"/>
<rect x="114" y="39" width="2" height="168" fill="#CCCCCC" fill-opacity="0.4"/>
<rect x="120" y="39" width="2" height="168" fill="#CCCCCC" fill-opacity="0.4"/>
<rect x="126" y="39" width="2" height="168" fill="#CCCCCC" fill-opacity="0.4"/>
<rect x="132" y="39" width="2" height="168" fill="#CCCCCC" fill-opacity="0.4"/>
<rect x="138" y="39" width="2" height="168" fill="#CCCCCC" fill-opacity="0.4"/>
<rect x="144" y="39" width="2" height="168" fill="#CCCCCC" fill-opacity="0.4"/>
<rect x="150" y="39" width="2" height="168" fill="#CCCCCC" fill-opacity="0.4"/>
<rect x="156" y="39" width="2" height="168" fill="#CCCCCC" fill-opacity="0.4"/>
<rect x="162" y="39" width="2" height="168" fill="#CCCCCC" fill-opacity="0.4"/>
<rect x="168" y="39" width="2" height="168" fill="#CCCCCC" fill-opacity="0.4"/>
<rect x="174" y="39" width="2" height="168" fill="#CCCCCC" fill-opacity="0.4"/>
<rect x="180" y="39" width="2" height="168" fill="#CCCCCC" fill-opacity="0.4"/>
<rect x="186" y="39" width="2" height="168" fill="#CCCCCC" fill-opacity="0.4"/>
<rect x="192" y="39" width="2" height="168" fill="#CCCCCC" fill-opacity="0.4"/>
</g>
<g opacity="0.5">
<rect x="27" y="205" width="2" height="168" transform="rotate(-90 27 205)" fill="#CCCCCC" fill-opacity="0.4"/>
<rect x="27" y="199" width="2" height="168" transform="rotate(-90 27 199)" fill="#CCCCCC" fill-opacity="0.4"/>
<rect x="27" y="193" width="2" height="168" transform="rotate(-90 27 193)" fill="#CCCCCC" fill-opacity="0.4"/>
<rect x="27" y="187" width="2" height="168" transform="rotate(-90 27 187)" fill="#CCCCCC" fill-opacity="0.4"/>
<rect x="27" y="181" width="2" height="168" transform="rotate(-90 27 181)" fill="#CCCCCC" fill-opacity="0.4"/>
<rect x="27" y="175" width="2" height="168" transform="rotate(-90 27 175)" fill="#CCCCCC" fill-opacity="0.4"/>
<rect x="27" y="169" width="2" height="168" transform="rotate(-90 27 169)" fill="#CCCCCC" fill-opacity="0.4"/>
<rect x="27" y="163" width="2" height="168" transform="rotate(-90 27 163)" fill="#CCCCCC" fill-opacity="0.4"/>
<rect x="27" y="157" width="2" height="168" transform="rotate(-90 27 157)" fill="#CCCCCC" fill-opacity="0.4"/>
<rect x="27" y="151" width="2" height="168" transform="rotate(-90 27 151)" fill="#CCCCCC" fill-opacity="0.4"/>
<rect x="27" y="145" width="2" height="168" transform="rotate(-90 27 145)" fill="#CCCCCC" fill-opacity="0.4"/>
<rect x="27" y="139" width="2" height="168" transform="rotate(-90 27 139)" fill="#CCCCCC" fill-opacity="0.4"/>
<rect x="27" y="133" width="2" height="168" transform="rotate(-90 27 133)" fill="#CCCCCC" fill-opacity="0.4"/>
<rect x="27" y="127" width="2" height="168" transform="rotate(-90 27 127)" fill="#CCCCCC" fill-opacity="0.4"/>
<rect x="27" y="121" width="2" height="168" transform="rotate(-90 27 121)" fill="#CCCCCC" fill-opacity="0.4"/>
<rect x="27" y="115" width="2" height="168" transform="rotate(-90 27 115)" fill="#CCCCCC" fill-opacity="0.4"/>
<rect x="27" y="109" width="2" height="168" transform="rotate(-90 27 109)" fill="#CCCCCC" fill-opacity="0.4"/>
<rect x="27" y="103" width="2" height="168" transform="rotate(-90 27 103)" fill="#CCCCCC" fill-opacity="0.4"/>
<rect x="27" y="97" width="2" height="168" transform="rotate(-90 27 97)" fill="#CCCCCC" fill-opacity="0.4"/>
<rect x="27" y="91" width="2" height="168" transform="rotate(-90 27 91)" fill="#CCCCCC" fill-opacity="0.4"/>
<rect x="27" y="85" width="2" height="168" transform="rotate(-90 27 85)" fill="#CCCCCC" fill-opacity="0.4"/>
<rect x="27" y="79" width="2" height="168" transform="rotate(-90 27 79)" fill="#CCCCCC" fill-opacity="0.4"/>
<rect x="27" y="73" width="2" height="168" transform="rotate(-90 27 73)" fill="#CCCCCC" fill-opacity="0.4"/>
<rect x="27" y="67" width="2" height="168" transform="rotate(-90 27 67)" fill="#CCCCCC" fill-opacity="0.4"/>
<rect x="27" y="61" width="2" height="168" transform="rotate(-90 27 61)" fill="#CCCCCC" fill-opacity="0.4"/>
<rect x="27" y="55" width="2" height="168" transform="rotate(-90 27 55)" fill="#CCCCCC" fill-opacity="0.4"/>
<rect x="27" y="49" width="2" height="168" transform="rotate(-90 27 49)" fill="#CCCCCC" fill-opacity="0.4"/>
<rect x="27" y="43" width="2" height="168" transform="rotate(-90 27 43)" fill="#CCCCCC" fill-opacity="0.4"/>
</g>
<path d="M101.112 253.034C101.28 253.034 101.411 253.076 101.504 253.16C101.597 253.244 101.644 253.361 101.644 253.51C101.644 253.837 101.467 254 101.112 254H95.624C95.4653 254 95.3347 253.953 95.232 253.86C95.1293 253.757 95.078 253.636 95.078 253.496C95.078 253.319 95.1433 253.165 95.274 253.034L98.648 249.324C99.1147 248.801 99.4507 248.335 99.656 247.924C99.8707 247.504 99.978 247.084 99.978 246.664C99.978 246.123 99.8193 245.707 99.502 245.418C99.194 245.129 98.7553 244.984 98.186 244.984C97.738 244.984 97.3087 245.068 96.898 245.236C96.4873 245.395 96.0767 245.642 95.666 245.978C95.526 246.09 95.3953 246.146 95.274 246.146C95.1713 246.146 95.0827 246.099 95.008 246.006C94.9333 245.903 94.896 245.782 94.896 245.642C94.896 245.446 94.9707 245.287 95.12 245.166C95.5027 244.811 95.9693 244.531 96.52 244.326C97.0707 244.121 97.6353 244.018 98.214 244.018C99.1007 244.018 99.8053 244.251 100.328 244.718C100.86 245.185 101.126 245.815 101.126 246.608C101.126 247.177 100.995 247.723 100.734 248.246C100.482 248.769 100.062 249.352 99.474 249.996L96.674 253.034H101.112ZM106.595 254.112C105.465 254.112 104.607 253.683 104.019 252.824C103.431 251.965 103.137 250.715 103.137 249.072C103.137 247.42 103.431 246.165 104.019 245.306C104.607 244.447 105.465 244.018 106.595 244.018C107.724 244.018 108.583 244.447 109.171 245.306C109.759 246.155 110.053 247.406 110.053 249.058C110.053 250.71 109.759 251.965 109.171 252.824C108.583 253.683 107.724 254.112 106.595 254.112ZM106.595 253.146C107.379 253.146 107.957 252.815 108.331 252.152C108.704 251.489 108.891 250.458 108.891 249.058C108.891 247.649 108.704 246.617 108.331 245.964C107.967 245.311 107.388 244.984 106.595 244.984C105.811 244.984 105.232 245.315 104.859 245.978C104.485 246.631 104.299 247.658 104.299 249.058C104.299 250.458 104.485 251.489 104.859 252.152C105.232 252.815 105.811 253.146 106.595 253.146ZM115.269 247.014C115.866 247.014 116.394 247.163 116.851 247.462C117.308 247.761 117.663 248.181 117.915 248.722C118.167 249.254 118.293 249.875 118.293 250.584C118.293 251.293 118.167 251.914 117.915 252.446C117.663 252.969 117.308 253.375 116.851 253.664C116.403 253.953 115.876 254.098 115.269 254.098C114.737 254.098 114.27 253.981 113.869 253.748C113.477 253.515 113.178 253.183 112.973 252.754V256.044C112.973 256.212 112.922 256.343 112.819 256.436C112.726 256.539 112.59 256.59 112.413 256.59C112.236 256.59 112.096 256.539 111.993 256.436C111.89 256.333 111.839 256.203 111.839 256.044V247.602C111.839 247.434 111.89 247.299 111.993 247.196C112.096 247.093 112.236 247.042 112.413 247.042C112.59 247.042 112.726 247.093 112.819 247.196C112.922 247.299 112.973 247.434 112.973 247.602V248.358C113.178 247.929 113.477 247.597 113.869 247.364C114.27 247.131 114.737 247.014 115.269 247.014ZM115.045 253.16C115.708 253.16 116.221 252.936 116.585 252.488C116.949 252.04 117.131 251.405 117.131 250.584C117.131 249.763 116.949 249.123 116.585 248.666C116.221 248.199 115.708 247.966 115.045 247.966C114.382 247.966 113.869 248.19 113.505 248.638C113.15 249.086 112.973 249.725 112.973 250.556C112.973 251.387 113.15 252.031 113.505 252.488C113.869 252.936 114.382 253.16 115.045 253.16ZM125.451 253.132C125.563 253.244 125.619 253.379 125.619 253.538C125.619 253.678 125.567 253.799 125.465 253.902C125.362 254.005 125.241 254.056 125.101 254.056C124.951 254.056 124.816 253.991 124.695 253.86L122.427 251.27L120.173 253.86C120.051 253.991 119.916 254.056 119.767 254.056C119.627 254.056 119.501 254.005 119.389 253.902C119.286 253.799 119.235 253.673 119.235 253.524C119.235 253.384 119.291 253.253 119.403 253.132L121.727 250.514L119.501 247.98C119.389 247.849 119.333 247.719 119.333 247.588C119.333 247.439 119.384 247.313 119.487 247.21C119.599 247.107 119.72 247.056 119.851 247.056C120 247.056 120.135 247.121 120.257 247.252L122.427 249.744L124.597 247.252C124.718 247.121 124.853 247.056 125.003 247.056C125.143 247.056 125.264 247.107 125.367 247.21C125.469 247.313 125.521 247.434 125.521 247.574C125.521 247.733 125.465 247.868 125.353 247.98L123.127 250.514L125.451 253.132Z" fill="#2C333A"/>
<rect x="26" y="214" width="2" height="15" fill="#C4C4C4"/>
<rect x="194" y="214" width="2" height="15" fill="#C4C4C4"/>
<rect x="27" y="221" width="167" height="1" fill="#C4C4C4"/>
<rect x="217" y="208" width="2" height="15" transform="rotate(-90 217 208)" fill="#C4C4C4"/>
<rect x="217" y="40" width="2" height="15" transform="rotate(-90 217 40)" fill="#C4C4C4"/>
<rect x="224" y="207" width="167" height="1" transform="rotate(-90 224 207)" fill="#C4C4C4"/>
</svg>
