<svg width="335" height="381" viewBox="0 0 335 381" fill="none" xmlns="http://www.w3.org/2000/svg">
<g clip-path="url(#clip0_2783_5474)">
<g opacity="0.9">
<path d="M17.248 33.112C16.928 33.112 16.704 33.0107 16.576 32.808C16.4587 32.5947 16.4693 32.3387 16.608 32.04L20.944 22.312C21.0507 22.0667 21.184 21.8907 21.344 21.784C21.504 21.6667 21.6907 21.608 21.904 21.608C22.096 21.608 22.272 21.6667 22.432 21.784C22.6027 21.8907 22.7413 22.0667 22.848 22.312L27.184 32.04C27.3227 32.3493 27.3333 32.6053 27.216 32.808C27.1093 33.0107 26.9013 33.112 26.592 33.112C26.3573 33.112 26.1707 33.0533 26.032 32.936C25.8933 32.8187 25.7707 32.6373 25.664 32.392L24.736 30.248H19.024L18.112 32.392C18.0053 32.648 17.888 32.8347 17.76 32.952C17.632 33.0587 17.4613 33.112 17.248 33.112ZM21.872 23.56L19.616 28.904H24.176L21.904 23.56H21.872ZM32.2791 33.144C31.4791 33.144 30.7858 32.9787 30.1991 32.648C29.6231 32.3067 29.1751 31.832 28.8551 31.224C28.5351 30.6053 28.3751 29.88 28.3751 29.048C28.3751 27.8107 28.7271 26.8347 29.4311 26.12C30.1351 25.4053 31.0845 25.048 32.2791 25.048C32.6525 25.048 33.0418 25.1067 33.4471 25.224C33.8631 25.3307 34.2471 25.512 34.5991 25.768C34.7698 25.8747 34.8658 26.0133 34.8871 26.184C34.9191 26.344 34.8925 26.4987 34.8071 26.648C34.7325 26.7867 34.6205 26.8827 34.4711 26.936C34.3218 26.9787 34.1511 26.9467 33.9591 26.84C33.7031 26.6587 33.4418 26.5307 33.1751 26.456C32.9085 26.3707 32.6525 26.328 32.4071 26.328C31.6498 26.328 31.0631 26.568 30.6471 27.048C30.2418 27.5173 30.0391 28.1893 30.0391 29.064C30.0391 29.9387 30.2418 30.6267 30.6471 31.128C31.0631 31.6187 31.6498 31.864 32.4071 31.864C32.6525 31.864 32.9031 31.8267 33.1591 31.752C33.4258 31.6773 33.6925 31.5493 33.9591 31.368C34.1511 31.2613 34.3165 31.2347 34.4551 31.288C34.6045 31.3413 34.7111 31.4427 34.7751 31.592C34.8498 31.7307 34.8711 31.8853 34.8391 32.056C34.8178 32.216 34.7218 32.3493 34.5511 32.456C34.2098 32.7013 33.8365 32.8773 33.4311 32.984C33.0365 33.0907 32.6525 33.144 32.2791 33.144ZM39.6515 33.144C38.6702 33.144 37.9395 32.8933 37.4595 32.392C36.9795 31.8907 36.7395 31.1653 36.7395 30.216V26.44H35.7795C35.3315 26.44 35.1075 26.232 35.1075 25.816C35.1075 25.4 35.3315 25.192 35.7795 25.192H36.7395V23.544C36.7395 23 37.0115 22.728 37.5555 22.728C38.0888 22.728 38.3555 23 38.3555 23.544V25.192H40.2275C40.6755 25.192 40.8995 25.4 40.8995 25.816C40.8995 26.232 40.6755 26.44 40.2275 26.44H38.3555V30.088C38.3555 30.6533 38.4728 31.08 38.7075 31.368C38.9528 31.656 39.3475 31.8 39.8915 31.8C40.0835 31.8 40.2488 31.784 40.3875 31.752C40.5262 31.7093 40.6488 31.6827 40.7555 31.672C40.8728 31.672 40.9688 31.7147 41.0435 31.8C41.1182 31.8747 41.1555 32.024 41.1555 32.248C41.1555 32.4187 41.1235 32.5733 41.0595 32.712C41.0062 32.84 40.9048 32.9253 40.7555 32.968C40.6275 33.0213 40.4515 33.064 40.2275 33.096C40.0142 33.128 39.8222 33.144 39.6515 33.144ZM43.1079 23.448C42.7879 23.448 42.5372 23.368 42.3559 23.208C42.1852 23.048 42.0999 22.824 42.0999 22.536C42.0999 21.928 42.4359 21.624 43.1079 21.624C43.7799 21.624 44.1159 21.928 44.1159 22.536C44.1159 23.144 43.7799 23.448 43.1079 23.448ZM43.1079 33.096C42.5745 33.096 42.3079 32.8027 42.3079 32.216V25.976C42.3079 25.4 42.5745 25.112 43.1079 25.112C43.6519 25.112 43.9239 25.4 43.9239 25.976V32.216C43.9239 32.8027 43.6519 33.096 43.1079 33.096ZM49.2225 33.112C48.7745 33.112 48.4438 32.872 48.2305 32.392L45.5585 26.184C45.4305 25.896 45.4252 25.64 45.5425 25.416C45.6598 25.192 45.8998 25.08 46.2625 25.08C46.4545 25.08 46.6092 25.128 46.7265 25.224C46.8545 25.32 46.9665 25.4853 47.0625 25.72L49.2545 31.128L51.4945 25.72C51.5905 25.4853 51.6972 25.32 51.8145 25.224C51.9425 25.128 52.1185 25.08 52.3425 25.08C52.6305 25.08 52.8278 25.192 52.9345 25.416C53.0412 25.64 53.0358 25.8907 52.9185 26.168L50.2145 32.392C50.0118 32.872 49.6812 33.112 49.2225 33.112ZM58.0344 33.144C56.7544 33.144 55.7464 32.7867 55.0104 32.072C54.2744 31.3467 53.9064 30.36 53.9064 29.112C53.9064 28.312 54.0664 27.608 54.3864 27C54.717 26.3813 55.1704 25.9013 55.7464 25.56C56.3224 25.2187 56.9837 25.048 57.7304 25.048C58.8077 25.048 59.6557 25.3947 60.2744 26.088C60.893 26.7707 61.2024 27.7147 61.2024 28.92C61.2024 29.2827 60.989 29.464 60.5624 29.464H55.4744C55.5917 31.0853 56.4504 31.896 58.0504 31.896C58.3704 31.896 58.7064 31.8587 59.0584 31.784C59.4104 31.6987 59.7517 31.5493 60.0824 31.336C60.3064 31.208 60.4984 31.1653 60.6584 31.208C60.829 31.24 60.9517 31.3307 61.0264 31.48C61.101 31.6187 61.1117 31.7787 61.0584 31.96C61.0157 32.1307 60.893 32.28 60.6904 32.408C60.3277 32.6533 59.901 32.84 59.4104 32.968C58.9304 33.0853 58.4717 33.144 58.0344 33.144ZM57.7944 26.184C57.1224 26.184 56.589 26.392 56.1944 26.808C55.7997 27.224 55.5597 27.7787 55.4744 28.472H59.8424C59.8104 27.7467 59.6184 27.1867 59.2664 26.792C58.9144 26.3867 58.4237 26.184 57.7944 26.184ZM70.8469 32.472C70.4415 32.472 70.2389 32.264 70.2389 31.848V29H67.4389C67.0335 29 66.8309 28.8027 66.8309 28.408C66.8309 28.0133 67.0335 27.816 67.4389 27.816H70.2389V25.048C70.2389 24.6427 70.4415 24.44 70.8469 24.44C71.2522 24.44 71.4549 24.6427 71.4549 25.048V27.816H74.2549C74.6602 27.816 74.8629 28.0133 74.8629 28.408C74.8629 28.8027 74.6602 29 74.2549 29H71.4549V31.848C71.4549 32.264 71.2522 32.472 70.8469 32.472ZM82.2754 33.112C81.7314 33.112 81.4594 32.84 81.4594 32.296V26.44H80.5634C80.126 26.44 79.9074 26.232 79.9074 25.816C79.9074 25.4 80.126 25.192 80.5634 25.192H81.4594V25.048C81.4594 23.992 81.7207 23.1973 82.2434 22.664C82.766 22.12 83.5287 21.8 84.5314 21.704L85.0274 21.672C85.2514 21.6507 85.4167 21.6987 85.5234 21.816C85.6407 21.9227 85.6994 22.0613 85.6994 22.232C85.6994 22.392 85.6567 22.536 85.5714 22.664C85.486 22.792 85.358 22.8667 85.1874 22.888L84.8834 22.904C84.254 22.9467 83.7954 23.1227 83.5074 23.432C83.2194 23.7413 83.0754 24.2053 83.0754 24.824V25.192H84.6274C85.0754 25.192 85.2994 25.4 85.2994 25.816C85.2994 26.232 85.0754 26.44 84.6274 26.44H83.0754V32.296C83.0754 32.84 82.8087 33.112 82.2754 33.112ZM89.7155 33.144C88.9262 33.144 88.2435 32.9787 87.6675 32.648C87.0915 32.3173 86.6435 31.8533 86.3235 31.256C86.0142 30.648 85.8595 29.928 85.8595 29.096C85.8595 28.264 86.0142 27.5493 86.3235 26.952C86.6435 26.344 87.0915 25.8747 87.6675 25.544C88.2435 25.2133 88.9262 25.048 89.7155 25.048C90.4835 25.048 91.1555 25.2133 91.7315 25.544C92.3075 25.8747 92.7555 26.344 93.0755 26.952C93.3955 27.5493 93.5555 28.264 93.5555 29.096C93.5555 29.928 93.3955 30.648 93.0755 31.256C92.7555 31.8533 92.3075 32.3173 91.7315 32.648C91.1555 32.9787 90.4835 33.144 89.7155 33.144ZM89.7155 31.896C90.3768 31.896 90.9102 31.656 91.3155 31.176C91.7208 30.696 91.9235 30.0027 91.9235 29.096C91.9235 28.1893 91.7208 27.5013 91.3155 27.032C90.9102 26.552 90.3768 26.312 89.7155 26.312C89.0435 26.312 88.5048 26.552 88.0995 27.032C87.6942 27.5013 87.4915 28.1893 87.4915 29.096C87.4915 30.0027 87.6942 30.696 88.0995 31.176C88.5048 31.656 89.0435 31.896 89.7155 31.896ZM98.8104 33.144C98.0104 33.144 97.317 32.9787 96.7304 32.648C96.1544 32.3067 95.7064 31.832 95.3864 31.224C95.0664 30.6053 94.9064 29.88 94.9064 29.048C94.9064 27.8107 95.2584 26.8347 95.9624 26.12C96.6664 25.4053 97.6157 25.048 98.8104 25.048C99.1837 25.048 99.573 25.1067 99.9784 25.224C100.394 25.3307 100.778 25.512 101.13 25.768C101.301 25.8747 101.397 26.0133 101.418 26.184C101.45 26.344 101.424 26.4987 101.338 26.648C101.264 26.7867 101.152 26.8827 101.002 26.936C100.853 26.9787 100.682 26.9467 100.49 26.84C100.234 26.6587 99.973 26.5307 99.7064 26.456C99.4397 26.3707 99.1837 26.328 98.9384 26.328C98.181 26.328 97.5944 26.568 97.1784 27.048C96.773 27.5173 96.5704 28.1893 96.5704 29.064C96.5704 29.9387 96.773 30.6267 97.1784 31.128C97.5944 31.6187 98.181 31.864 98.9384 31.864C99.1837 31.864 99.4344 31.8267 99.6904 31.752C99.957 31.6773 100.224 31.5493 100.49 31.368C100.682 31.2613 100.848 31.2347 100.986 31.288C101.136 31.3413 101.242 31.4427 101.306 31.592C101.381 31.7307 101.402 31.8853 101.37 32.056C101.349 32.216 101.253 32.3493 101.082 32.456C100.741 32.7013 100.368 32.8773 99.9624 32.984C99.5677 33.0907 99.1837 33.144 98.8104 33.144ZM105.623 33.144C103.735 33.144 102.791 32.0933 102.791 29.992V25.896C102.791 25.352 103.058 25.08 103.591 25.08C104.135 25.08 104.407 25.352 104.407 25.896V30.008C104.407 30.6373 104.535 31.1013 104.791 31.4C105.047 31.6987 105.452 31.848 106.007 31.848C106.615 31.848 107.106 31.6453 107.479 31.24C107.863 30.8347 108.055 30.2907 108.055 29.608V25.896C108.055 25.352 108.327 25.08 108.871 25.08C109.404 25.08 109.671 25.352 109.671 25.896V32.296C109.671 32.84 109.41 33.112 108.887 33.112C108.364 33.112 108.103 32.84 108.103 32.296V31.752C107.847 32.2107 107.506 32.5573 107.079 32.792C106.652 33.0267 106.167 33.144 105.623 33.144ZM114.685 33.144C114.215 33.144 113.73 33.0907 113.229 32.984C112.727 32.8773 112.274 32.696 111.868 32.44C111.687 32.3333 111.575 32.2 111.533 32.04C111.49 31.88 111.501 31.7307 111.565 31.592C111.629 31.4533 111.73 31.3573 111.868 31.304C112.018 31.24 112.183 31.256 112.365 31.352C112.781 31.576 113.181 31.736 113.565 31.832C113.949 31.928 114.327 31.976 114.701 31.976C115.266 31.976 115.693 31.8747 115.981 31.672C116.269 31.4693 116.413 31.1973 116.413 30.856C116.413 30.5787 116.317 30.3653 116.125 30.216C115.933 30.056 115.645 29.9333 115.261 29.848L113.741 29.544C112.397 29.2667 111.725 28.5733 111.725 27.464C111.725 26.728 112.018 26.1413 112.605 25.704C113.191 25.2667 113.959 25.048 114.909 25.048C115.869 25.048 116.695 25.2827 117.389 25.752C117.559 25.8587 117.661 25.992 117.693 26.152C117.725 26.3013 117.703 26.4453 117.629 26.584C117.554 26.712 117.442 26.8027 117.293 26.856C117.154 26.9093 116.989 26.888 116.797 26.792C116.477 26.6 116.157 26.4613 115.837 26.376C115.517 26.28 115.207 26.232 114.909 26.232C114.354 26.232 113.933 26.3387 113.645 26.552C113.357 26.7547 113.213 27.032 113.213 27.384C113.213 27.9173 113.565 28.2587 114.269 28.408L115.789 28.712C116.482 28.8507 117.005 29.0853 117.357 29.416C117.719 29.7467 117.901 30.1947 117.901 30.76C117.901 31.5067 117.607 32.0933 117.021 32.52C116.434 32.936 115.655 33.144 114.685 33.144ZM123.363 33.144C122.083 33.144 121.075 32.7867 120.339 32.072C119.603 31.3467 119.235 30.36 119.235 29.112C119.235 28.312 119.395 27.608 119.715 27C120.045 26.3813 120.499 25.9013 121.075 25.56C121.651 25.2187 122.312 25.048 123.059 25.048C124.136 25.048 124.984 25.3947 125.603 26.088C126.221 26.7707 126.531 27.7147 126.531 28.92C126.531 29.2827 126.317 29.464 125.891 29.464H120.803C120.92 31.0853 121.779 31.896 123.379 31.896C123.699 31.896 124.035 31.8587 124.387 31.784C124.739 31.6987 125.08 31.5493 125.411 31.336C125.635 31.208 125.827 31.1653 125.987 31.208C126.157 31.24 126.28 31.3307 126.355 31.48C126.429 31.6187 126.44 31.7787 126.387 31.96C126.344 32.1307 126.221 32.28 126.019 32.408C125.656 32.6533 125.229 32.84 124.739 32.968C124.259 33.0853 123.8 33.144 123.363 33.144ZM123.123 26.184C122.451 26.184 121.917 26.392 121.523 26.808C121.128 27.224 120.888 27.7787 120.803 28.472H125.171C125.139 27.7467 124.947 27.1867 124.595 26.792C124.243 26.3867 123.752 26.184 123.123 26.184ZM131.268 33.144C130.586 33.144 129.983 32.984 129.46 32.664C128.948 32.3333 128.548 31.864 128.26 31.256C127.972 30.648 127.828 29.928 127.828 29.096C127.828 28.264 127.972 27.5493 128.26 26.952C128.548 26.344 128.948 25.8747 129.46 25.544C129.972 25.2133 130.575 25.048 131.268 25.048C131.855 25.048 132.378 25.176 132.836 25.432C133.295 25.688 133.636 26.0347 133.86 26.472V22.424C133.86 21.88 134.127 21.608 134.66 21.608C135.204 21.608 135.476 21.88 135.476 22.424V32.296C135.476 32.84 135.21 33.112 134.676 33.112C134.143 33.112 133.876 32.84 133.876 32.296V31.688C133.642 32.136 133.295 32.4933 132.836 32.76C132.378 33.016 131.855 33.144 131.268 33.144ZM131.684 31.896C132.346 31.896 132.879 31.656 133.284 31.176C133.69 30.696 133.892 30.0027 133.892 29.096C133.892 28.1893 133.69 27.5013 133.284 27.032C132.879 26.552 132.346 26.312 131.684 26.312C131.012 26.312 130.474 26.552 130.068 27.032C129.663 27.5013 129.46 28.1893 129.46 29.096C129.46 30.0027 129.663 30.696 130.068 31.176C130.474 31.656 131.012 31.896 131.684 31.896Z" fill="#2C333A"/>
<path d="M22.752 98.208C23.4133 98.4107 23.9253 98.7573 24.288 99.248C24.6613 99.7387 24.848 100.325 24.848 101.008C24.848 101.979 24.496 102.741 23.792 103.296C23.088 103.84 22.0907 104.112 20.8 104.112C19.5093 104.112 18.512 103.84 17.808 103.296C17.104 102.741 16.752 101.979 16.752 101.008C16.752 100.315 16.9387 99.7227 17.312 99.232C17.6853 98.7413 18.2027 98.4 18.864 98.208C18.2987 97.9947 17.8507 97.6587 17.52 97.2C17.1893 96.7413 17.024 96.2027 17.024 95.584C17.024 94.6667 17.3547 93.9413 18.016 93.408C18.688 92.864 19.616 92.592 20.8 92.592C21.984 92.592 22.9067 92.864 23.568 93.408C24.24 93.9413 24.576 94.6667 24.576 95.584C24.576 96.2027 24.4107 96.7467 24.08 97.216C23.7493 97.6747 23.3067 98.0053 22.752 98.208ZM18.32 95.68C18.32 96.3413 18.528 96.848 18.944 97.2C19.3707 97.552 19.9893 97.728 20.8 97.728C21.6107 97.728 22.224 97.552 22.64 97.2C23.0667 96.848 23.28 96.3413 23.28 95.68C23.28 95.0507 23.0667 94.56 22.64 94.208C22.224 93.856 21.6107 93.68 20.8 93.68C19.9893 93.68 19.3707 93.856 18.944 94.208C18.528 94.56 18.32 95.0507 18.32 95.68ZM20.8 103.024C22.6347 103.024 23.552 102.325 23.552 100.928C23.552 99.5307 22.6347 98.832 20.8 98.832C18.9653 98.832 18.048 99.5307 18.048 100.928C18.048 102.325 18.9653 103.024 20.8 103.024ZM33.6418 92.72C33.8338 92.72 33.9778 92.7733 34.0738 92.88C34.1804 92.976 34.2338 93.104 34.2338 93.264C34.2338 93.4133 34.1858 93.5787 34.0898 93.76L28.7778 103.76C28.6498 103.995 28.4631 104.112 28.2178 104.112C28.0471 104.112 27.8924 104.053 27.7538 103.936C27.6258 103.819 27.5618 103.675 27.5618 103.504C27.5618 103.387 27.5991 103.269 27.6738 103.152L32.6658 93.824H27.1458C26.9538 93.824 26.8044 93.776 26.6978 93.68C26.6018 93.584 26.5538 93.4507 26.5538 93.28C26.5538 93.0987 26.6018 92.96 26.6978 92.864C26.8044 92.768 26.9538 92.72 27.1458 92.72H33.6418ZM40.0355 103.92C39.8968 104.155 39.7208 104.272 39.5075 104.272C39.3688 104.272 39.2462 104.224 39.1395 104.128C39.0435 104.032 38.9955 103.904 38.9955 103.744C38.9955 103.616 39.0328 103.493 39.1075 103.376L45.2195 92.8C45.3582 92.5653 45.5342 92.448 45.7475 92.448C45.8862 92.448 46.0035 92.5013 46.0995 92.608C46.2062 92.704 46.2595 92.8267 46.2595 92.976C46.2595 93.0933 46.2275 93.216 46.1635 93.344L40.0355 103.92ZM38.7875 99.488C37.9342 99.488 37.2675 99.2 36.7875 98.624C36.3075 98.0373 36.0675 97.1733 36.0675 96.032C36.0675 94.9013 36.3075 94.048 36.7875 93.472C37.2675 92.8853 37.9342 92.592 38.7875 92.592C39.6408 92.592 40.3075 92.8853 40.7875 93.472C41.2675 94.048 41.5075 94.9013 41.5075 96.032C41.5075 97.1733 41.2675 98.0373 40.7875 98.624C40.3075 99.2 39.6408 99.488 38.7875 99.488ZM38.7875 98.56C39.3102 98.56 39.6942 98.3573 39.9395 97.952C40.1955 97.5467 40.3235 96.9067 40.3235 96.032C40.3235 95.168 40.1955 94.5333 39.9395 94.128C39.6942 93.7227 39.3102 93.52 38.7875 93.52C38.2648 93.52 37.8755 93.7227 37.6195 94.128C37.3635 94.5333 37.2355 95.168 37.2355 96.032C37.2355 96.9067 37.3635 97.5467 37.6195 97.952C37.8755 98.3573 38.2648 98.56 38.7875 98.56ZM46.4675 104.112C45.6142 104.112 44.9475 103.824 44.4675 103.248C43.9875 102.661 43.7475 101.797 43.7475 100.656C43.7475 99.5253 43.9875 98.672 44.4675 98.096C44.9475 97.5093 45.6142 97.216 46.4675 97.216C47.3315 97.216 47.9982 97.504 48.4675 98.08C48.9475 98.656 49.1875 99.5147 49.1875 100.656C49.1875 101.797 48.9475 102.661 48.4675 103.248C47.9982 103.824 47.3315 104.112 46.4675 104.112ZM46.4675 103.184C47.0008 103.184 47.3902 102.987 47.6355 102.592C47.8915 102.187 48.0195 101.541 48.0195 100.656C48.0195 99.792 47.8915 99.1573 47.6355 98.752C47.3795 98.3467 46.9902 98.144 46.4675 98.144C45.9448 98.144 45.5555 98.3467 45.2995 98.752C45.0542 99.1573 44.9315 99.792 44.9315 100.656C44.9315 101.531 45.0542 102.171 45.2995 102.576C45.5555 102.981 45.9448 103.184 46.4675 103.184Z" fill="#2C333A"/>
<path d="M266.818 95.462L266.216 98.556H267.434C267.584 98.556 267.705 98.6073 267.798 98.71C267.892 98.8033 267.938 98.92 267.938 99.06C267.938 99.1907 267.892 99.3027 267.798 99.396C267.705 99.48 267.584 99.522 267.434 99.522H266.02L265.6 101.692C265.582 101.804 265.526 101.897 265.432 101.972C265.348 102.037 265.246 102.07 265.124 102.07C264.975 102.07 264.849 102.023 264.746 101.93C264.653 101.837 264.606 101.715 264.606 101.566C264.606 101.51 264.611 101.463 264.62 101.426L264.998 99.522H262.968L262.534 101.692C262.516 101.804 262.46 101.897 262.366 101.972C262.282 102.037 262.18 102.07 262.058 102.07C261.909 102.07 261.788 102.023 261.694 101.93C261.601 101.837 261.554 101.715 261.554 101.566C261.554 101.51 261.559 101.463 261.568 101.426L261.946 99.522H261.162C261.013 99.522 260.892 99.4753 260.798 99.382C260.705 99.2793 260.658 99.158 260.658 99.018C260.658 98.8873 260.705 98.78 260.798 98.696C260.892 98.6027 261.013 98.556 261.162 98.556H262.128L262.73 95.462H261.442C261.293 95.462 261.172 95.4153 261.078 95.322C260.985 95.2193 260.938 95.098 260.938 94.958C260.938 94.8273 260.985 94.72 261.078 94.636C261.172 94.5427 261.293 94.496 261.442 94.496H262.926L263.332 92.396C263.351 92.284 263.402 92.1953 263.486 92.13C263.58 92.0553 263.687 92.018 263.808 92.018C263.967 92.018 264.093 92.0647 264.186 92.158C264.28 92.2513 264.326 92.3773 264.326 92.536C264.326 92.592 264.322 92.634 264.312 92.662L263.948 94.496H265.978L266.384 92.396C266.403 92.284 266.454 92.1953 266.538 92.13C266.632 92.0553 266.739 92.018 266.86 92.018C267.01 92.018 267.131 92.0647 267.224 92.158C267.327 92.2513 267.378 92.3727 267.378 92.522C267.378 92.578 267.374 92.6247 267.364 92.662L267 94.496H267.714C267.864 94.496 267.985 94.5473 268.078 94.65C268.172 94.7433 268.218 94.86 268.218 95C268.218 95.1307 268.172 95.2427 268.078 95.336C267.985 95.42 267.864 95.462 267.714 95.462H266.818ZM265.782 95.462H263.766L263.15 98.556H265.18L265.782 95.462ZM272.833 102.112C271.685 102.112 270.807 101.683 270.201 100.824C269.603 99.9653 269.305 98.7147 269.305 97.072C269.305 95.42 269.603 94.1647 270.201 93.306C270.807 92.4473 271.685 92.018 272.833 92.018C273.981 92.018 274.853 92.4473 275.451 93.306C276.057 94.1553 276.361 95.406 276.361 97.058C276.361 98.71 276.057 99.9653 275.451 100.824C274.853 101.683 273.981 102.112 272.833 102.112ZM272.833 100.95C273.551 100.95 274.079 100.637 274.415 100.012C274.751 99.3867 274.919 98.402 274.919 97.058C274.919 95.714 274.751 94.734 274.415 94.118C274.079 93.4927 273.551 93.18 272.833 93.18C272.114 93.18 271.587 93.4927 271.251 94.118C270.915 94.734 270.747 95.714 270.747 97.058C270.747 98.3927 270.915 99.3773 271.251 100.012C271.587 100.637 272.114 100.95 272.833 100.95ZM281.227 102.112C280.079 102.112 279.202 101.683 278.595 100.824C277.998 99.9653 277.699 98.7147 277.699 97.072C277.699 95.42 277.998 94.1647 278.595 93.306C279.202 92.4473 280.079 92.018 281.227 92.018C282.375 92.018 283.248 92.4473 283.845 93.306C284.452 94.1553 284.755 95.406 284.755 97.058C284.755 98.71 284.452 99.9653 283.845 100.824C283.248 101.683 282.375 102.112 281.227 102.112ZM281.227 100.95C281.946 100.95 282.473 100.637 282.809 100.012C283.145 99.3867 283.313 98.402 283.313 97.058C283.313 95.714 283.145 94.734 282.809 94.118C282.473 93.4927 281.946 93.18 281.227 93.18C280.509 93.18 279.981 93.4927 279.645 94.118C279.309 94.734 279.141 95.714 279.141 97.058C279.141 98.3927 279.309 99.3773 279.645 100.012C279.981 100.637 280.509 100.95 281.227 100.95ZM289.622 102.112C288.474 102.112 287.597 101.683 286.99 100.824C286.393 99.9653 286.094 98.7147 286.094 97.072C286.094 95.42 286.393 94.1647 286.99 93.306C287.597 92.4473 288.474 92.018 289.622 92.018C290.77 92.018 291.643 92.4473 292.24 93.306C292.847 94.1553 293.15 95.406 293.15 97.058C293.15 98.71 292.847 99.9653 292.24 100.824C291.643 101.683 290.77 102.112 289.622 102.112ZM289.622 100.95C290.341 100.95 290.868 100.637 291.204 100.012C291.54 99.3867 291.708 98.402 291.708 97.058C291.708 95.714 291.54 94.734 291.204 94.118C290.868 93.4927 290.341 93.18 289.622 93.18C288.903 93.18 288.376 93.4927 288.04 94.118C287.704 94.734 287.536 95.714 287.536 97.058C287.536 98.3927 287.704 99.3773 288.04 100.012C288.376 100.637 288.903 100.95 289.622 100.95ZM298.016 102.112C296.868 102.112 295.991 101.683 295.384 100.824C294.787 99.9653 294.488 98.7147 294.488 97.072C294.488 95.42 294.787 94.1647 295.384 93.306C295.991 92.4473 296.868 92.018 298.016 92.018C299.164 92.018 300.037 92.4473 300.634 93.306C301.241 94.1553 301.544 95.406 301.544 97.058C301.544 98.71 301.241 99.9653 300.634 100.824C300.037 101.683 299.164 102.112 298.016 102.112ZM298.016 100.95C298.735 100.95 299.262 100.637 299.598 100.012C299.934 99.3867 300.102 98.402 300.102 97.058C300.102 95.714 299.934 94.734 299.598 94.118C299.262 93.4927 298.735 93.18 298.016 93.18C297.298 93.18 296.77 93.4927 296.434 94.118C296.098 94.734 295.93 95.714 295.93 97.058C295.93 98.3927 296.098 99.3773 296.434 100.012C296.77 100.637 297.298 100.95 298.016 100.95ZM306.411 102.112C305.263 102.112 304.386 101.683 303.779 100.824C303.182 99.9653 302.883 98.7147 302.883 97.072C302.883 95.42 303.182 94.1647 303.779 93.306C304.386 92.4473 305.263 92.018 306.411 92.018C307.559 92.018 308.432 92.4473 309.029 93.306C309.636 94.1553 309.939 95.406 309.939 97.058C309.939 98.71 309.636 99.9653 309.029 100.824C308.432 101.683 307.559 102.112 306.411 102.112ZM306.411 100.95C307.13 100.95 307.657 100.637 307.993 100.012C308.329 99.3867 308.497 98.402 308.497 97.058C308.497 95.714 308.329 94.734 307.993 94.118C307.657 93.4927 307.13 93.18 306.411 93.18C305.692 93.18 305.165 93.4927 304.829 94.118C304.493 94.734 304.325 95.714 304.325 97.058C304.325 98.3927 304.493 99.3773 304.829 100.012C305.165 100.637 305.692 100.95 306.411 100.95ZM314.805 102.112C313.657 102.112 312.78 101.683 312.173 100.824C311.576 99.9653 311.277 98.7147 311.277 97.072C311.277 95.42 311.576 94.1647 312.173 93.306C312.78 92.4473 313.657 92.018 314.805 92.018C315.953 92.018 316.826 92.4473 317.423 93.306C318.03 94.1553 318.333 95.406 318.333 97.058C318.333 98.71 318.03 99.9653 317.423 100.824C316.826 101.683 315.953 102.112 314.805 102.112ZM314.805 100.95C315.524 100.95 316.051 100.637 316.387 100.012C316.723 99.3867 316.891 98.402 316.891 97.058C316.891 95.714 316.723 94.734 316.387 94.118C316.051 93.4927 315.524 93.18 314.805 93.18C314.087 93.18 313.559 93.4927 313.223 94.118C312.887 94.734 312.719 95.714 312.719 97.058C312.719 98.3927 312.887 99.3773 313.223 100.012C313.559 100.637 314.087 100.95 314.805 100.95Z" fill="#2C333A"/>
<path d="M307 78C312.523 78 317 73.5228 317 68C317 62.4772 312.523 58 307 58C301.477 58 297 62.4772 297 68C297 73.5228 301.477 78 307 78Z" stroke="#2C333A" stroke-width="2" stroke-linecap="round" stroke-linejoin="round"/>
<path d="M311.24 63.76L309.12 70.12L302.76 72.24L304.88 65.88L311.24 63.76Z" stroke="#2C333A" stroke-width="2" stroke-linecap="round" stroke-linejoin="round"/>
</g>
<g opacity="0.6">
<path d="M27.264 159.04C27.3173 159.168 27.344 159.275 27.344 159.36C27.344 159.563 27.2587 159.733 27.088 159.872C26.928 160.011 26.7467 160.08 26.544 160.08C26.4053 160.08 26.272 160.043 26.144 159.968C26.0267 159.883 25.936 159.765 25.872 159.616L24.816 157.216H18.96L17.904 159.616C17.84 159.765 17.744 159.883 17.616 159.968C17.488 160.043 17.3547 160.08 17.216 160.08C17.0027 160.08 16.8107 160.011 16.64 159.872C16.48 159.733 16.4 159.563 16.4 159.36C16.4 159.275 16.4267 159.168 16.48 159.04L20.992 149.168C21.0667 148.997 21.184 148.864 21.344 148.768C21.5147 148.672 21.6907 148.624 21.872 148.624C22.0533 148.624 22.224 148.672 22.384 148.768C22.5547 148.864 22.6773 148.997 22.752 149.168L27.264 159.04ZM24.24 155.904L21.888 150.608L19.552 155.904H24.24ZM32.214 160.112C31.4567 160.112 30.79 159.947 30.214 159.616C29.6487 159.285 29.206 158.816 28.886 158.208C28.5767 157.6 28.422 156.896 28.422 156.096C28.422 155.285 28.582 154.571 28.902 153.952C29.2327 153.333 29.6913 152.853 30.278 152.512C30.8647 152.171 31.5367 152 32.294 152C32.6993 152 33.1047 152.059 33.51 152.176C33.926 152.293 34.294 152.453 34.614 152.656C34.9553 152.891 35.126 153.163 35.126 153.472C35.126 153.653 35.078 153.808 34.982 153.936C34.886 154.053 34.7633 154.112 34.614 154.112C34.518 154.112 34.422 154.091 34.326 154.048C34.23 153.995 34.1073 153.92 33.958 153.824C33.6913 153.653 33.4407 153.525 33.206 153.44C32.982 153.344 32.71 153.296 32.39 153.296C31.6647 153.296 31.0993 153.541 30.694 154.032C30.2993 154.523 30.102 155.205 30.102 156.08C30.102 156.955 30.2993 157.632 30.694 158.112C31.0887 158.581 31.6487 158.816 32.374 158.816C32.694 158.816 32.9767 158.768 33.222 158.672C33.4673 158.576 33.718 158.448 33.974 158.288C34.0913 158.213 34.2087 158.149 34.326 158.096C34.4433 158.043 34.55 158.016 34.646 158.016C34.7953 158.016 34.918 158.08 35.014 158.208C35.11 158.325 35.158 158.475 35.158 158.656C35.158 158.805 35.1153 158.944 35.03 159.072C34.9553 159.189 34.822 159.312 34.63 159.44C34.31 159.653 33.9367 159.819 33.51 159.936C33.0833 160.053 32.6513 160.112 32.214 160.112ZM40.4596 158.848C40.6943 158.869 40.8596 158.933 40.9556 159.04C41.0623 159.136 41.1156 159.275 41.1156 159.456C41.1156 159.669 41.0303 159.835 40.8596 159.952C40.6996 160.059 40.4596 160.101 40.1396 160.08L39.7076 160.048C38.8436 159.984 38.1983 159.723 37.7716 159.264C37.345 158.795 37.1316 158.107 37.1316 157.2V153.44H36.1716C35.7023 153.44 35.4676 153.232 35.4676 152.816C35.4676 152.624 35.5263 152.475 35.6436 152.368C35.7716 152.251 35.9476 152.192 36.1716 152.192H37.1316V150.544C37.1316 150.299 37.201 150.107 37.3396 149.968C37.489 149.829 37.6863 149.76 37.9316 149.76C38.177 149.76 38.3743 149.829 38.5236 149.968C38.673 150.107 38.7476 150.299 38.7476 150.544V152.192H40.3316C40.5556 152.192 40.7263 152.251 40.8436 152.368C40.9716 152.475 41.0356 152.624 41.0356 152.816C41.0356 153.019 40.9716 153.173 40.8436 153.28C40.7263 153.387 40.5556 153.44 40.3316 153.44H38.7476V157.312C38.7476 157.813 38.849 158.181 39.0516 158.416C39.265 158.651 39.585 158.784 40.0116 158.816L40.4596 158.848ZM43.0923 160.08C42.8576 160.08 42.6603 160.016 42.5003 159.888C42.3509 159.76 42.2763 159.568 42.2763 159.312V152.816C42.2763 152.56 42.3509 152.368 42.5003 152.24C42.6603 152.101 42.8576 152.032 43.0923 152.032C43.3269 152.032 43.5189 152.101 43.6683 152.24C43.8176 152.368 43.8923 152.56 43.8923 152.816V159.312C43.8923 159.568 43.8176 159.76 43.6683 159.888C43.5189 160.016 43.3269 160.08 43.0923 160.08ZM43.0923 150.464C42.7829 150.464 42.5376 150.379 42.3563 150.208C42.1749 150.037 42.0843 149.813 42.0843 149.536C42.0843 149.259 42.1749 149.04 42.3563 148.88C42.5376 148.709 42.7829 148.624 43.0923 148.624C43.3909 148.624 43.6309 148.709 43.8123 148.88C44.0043 149.04 44.1003 149.259 44.1003 149.536C44.1003 149.813 44.0096 150.037 43.8283 150.208C43.6469 150.379 43.4016 150.464 43.0923 150.464ZM51.7033 152.512C51.7673 152.352 51.8579 152.235 51.9753 152.16C52.1033 152.085 52.2366 152.048 52.3753 152.048C52.5779 152.048 52.7539 152.117 52.9033 152.256C53.0633 152.395 53.1433 152.56 53.1433 152.752C53.1433 152.859 53.1219 152.96 53.0793 153.056L50.0233 159.536C49.9486 159.707 49.8313 159.84 49.6713 159.936C49.5219 160.021 49.3619 160.064 49.1913 160.064C49.0206 160.064 48.8553 160.021 48.6953 159.936C48.5459 159.84 48.4339 159.707 48.3593 159.536L45.3033 153.056C45.2606 152.971 45.2393 152.869 45.2393 152.752C45.2393 152.56 45.3246 152.395 45.4953 152.256C45.6659 152.117 45.8579 152.048 46.0713 152.048C46.3806 152.048 46.6099 152.197 46.7593 152.496L49.2393 158L51.7033 152.512ZM60.4664 158.032C60.6157 158.032 60.7384 158.091 60.8344 158.208C60.9304 158.325 60.9784 158.475 60.9784 158.656C60.9784 158.965 60.7864 159.227 60.4024 159.44C60.029 159.653 59.6184 159.819 59.1704 159.936C58.733 160.053 58.3117 160.112 57.9064 160.112C56.669 160.112 55.693 159.755 54.9784 159.04C54.2637 158.315 53.9064 157.328 53.9064 156.08C53.9064 155.28 54.061 154.571 54.3704 153.952C54.6904 153.333 55.133 152.853 55.6984 152.512C56.2744 152.171 56.925 152 57.6504 152C58.6957 152 59.5224 152.336 60.1304 153.008C60.7384 153.68 61.0424 154.587 61.0424 155.728C61.0424 156.155 60.8504 156.368 60.4664 156.368H55.5224C55.629 158.021 56.4237 158.848 57.9064 158.848C58.301 158.848 58.6424 158.795 58.9304 158.688C59.2184 158.581 59.5224 158.443 59.8424 158.272C59.8744 158.251 59.9597 158.208 60.0984 158.144C60.2477 158.069 60.3704 158.032 60.4664 158.032ZM57.6824 153.184C57.0637 153.184 56.5677 153.381 56.1944 153.776C55.821 154.171 55.597 154.725 55.5224 155.44H59.6504C59.6184 154.715 59.4317 154.16 59.0904 153.776C58.7597 153.381 58.2904 153.184 57.6824 153.184ZM74.0179 154.848C74.1885 154.848 74.3325 154.907 74.4499 155.024C74.5672 155.131 74.6259 155.269 74.6259 155.44C74.6259 155.611 74.5672 155.755 74.4499 155.872C74.3325 155.979 74.1885 156.032 74.0179 156.032H71.3139V158.736C71.3139 158.907 71.2552 159.051 71.1379 159.168C71.0312 159.285 70.8925 159.344 70.7219 159.344C70.5512 159.344 70.4072 159.285 70.2899 159.168C70.1832 159.051 70.1299 158.907 70.1299 158.736V156.032H67.4259C67.2552 156.032 67.1112 155.973 66.9939 155.856C66.8765 155.739 66.8179 155.6 66.8179 155.44C66.8179 155.269 66.8765 155.131 66.9939 155.024C67.1112 154.907 67.2552 154.848 67.4259 154.848H70.1299V152.144C70.1299 151.973 70.1832 151.829 70.2899 151.712C70.4072 151.595 70.5512 151.536 70.7219 151.536C70.8925 151.536 71.0312 151.595 71.1379 151.712C71.2552 151.829 71.3139 151.973 71.3139 152.144V154.848H74.0179ZM86.9024 152.032C87.1477 152.032 87.3397 152.101 87.4784 152.24C87.6277 152.379 87.7024 152.571 87.7024 152.816V159.328C87.7024 159.552 87.6277 159.733 87.4784 159.872C87.329 160.011 87.1317 160.08 86.8864 160.08C86.6624 160.08 86.481 160.016 86.3424 159.888C86.2037 159.749 86.1344 159.568 86.1344 159.344V158.736C85.889 159.184 85.5477 159.525 85.1104 159.76C84.6837 159.995 84.2037 160.112 83.6704 160.112C81.7717 160.112 80.8224 159.067 80.8224 156.976V152.816C80.8224 152.571 80.8917 152.379 81.0304 152.24C81.1797 152.101 81.3824 152.032 81.6384 152.032C81.8837 152.032 82.0757 152.101 82.2144 152.24C82.3637 152.379 82.4384 152.571 82.4384 152.816V156.96C82.4384 157.589 82.5664 158.053 82.8224 158.352C83.0784 158.651 83.473 158.8 84.0064 158.8C84.6357 158.8 85.137 158.597 85.5104 158.192C85.8944 157.787 86.0864 157.248 86.0864 156.576V152.816C86.0864 152.581 86.161 152.395 86.3104 152.256C86.4597 152.107 86.657 152.032 86.9024 152.032ZM94.1718 152C96.0384 152 96.9718 153.051 96.9718 155.152V159.312C96.9718 159.557 96.8971 159.749 96.7478 159.888C96.6091 160.016 96.4118 160.08 96.1558 160.08C95.9104 160.08 95.7131 160.011 95.5638 159.872C95.4251 159.733 95.3558 159.547 95.3558 159.312V155.232C95.3558 154.571 95.2224 154.085 94.9558 153.776C94.6998 153.467 94.2944 153.312 93.7398 153.312C93.0891 153.312 92.5664 153.515 92.1718 153.92C91.7771 154.325 91.5798 154.869 91.5798 155.552V159.312C91.5798 159.547 91.5051 159.733 91.3558 159.872C91.2171 160.011 91.0251 160.08 90.7798 160.08C90.5344 160.08 90.3371 160.011 90.1878 159.872C90.0384 159.733 89.9638 159.547 89.9638 159.312V152.8C89.9638 152.576 90.0384 152.395 90.1878 152.256C90.3478 152.107 90.5451 152.032 90.7798 152.032C91.0144 152.032 91.2011 152.101 91.3398 152.24C91.4784 152.379 91.5478 152.56 91.5478 152.784V153.44C91.8038 152.971 92.1611 152.613 92.6198 152.368C93.0784 152.123 93.5958 152 94.1718 152ZM102.863 149.952C102.329 149.995 101.935 150.165 101.679 150.464C101.423 150.752 101.295 151.179 101.295 151.744V152.192H102.879C103.103 152.192 103.273 152.251 103.391 152.368C103.519 152.475 103.583 152.624 103.583 152.816C103.583 153.008 103.519 153.163 103.391 153.28C103.273 153.387 103.103 153.44 102.879 153.44H101.295V159.296C101.295 159.552 101.215 159.749 101.055 159.888C100.905 160.016 100.713 160.08 100.479 160.08C100.244 160.08 100.052 160.016 99.9025 159.888C99.7532 159.749 99.6785 159.552 99.6785 159.296V153.44H98.7185C98.4945 153.44 98.3185 153.387 98.1905 153.28C98.0732 153.163 98.0145 153.008 98.0145 152.816C98.0145 152.624 98.0732 152.475 98.1905 152.368C98.3185 152.251 98.4945 152.192 98.7185 152.192H99.6785V151.984C99.6785 151.003 99.9292 150.235 100.431 149.68C100.932 149.115 101.641 148.8 102.559 148.736L102.975 148.704C103.316 148.683 103.561 148.72 103.711 148.816C103.871 148.912 103.951 149.067 103.951 149.28C103.951 149.653 103.727 149.867 103.279 149.92L102.863 149.952ZM107.965 160.112C107.197 160.112 106.52 159.947 105.933 159.616C105.357 159.285 104.909 158.816 104.589 158.208C104.28 157.589 104.125 156.875 104.125 156.064C104.125 155.243 104.28 154.528 104.589 153.92C104.909 153.301 105.357 152.827 105.933 152.496C106.52 152.165 107.197 152 107.965 152C108.733 152 109.405 152.165 109.981 152.496C110.568 152.827 111.016 153.301 111.325 153.92C111.645 154.528 111.805 155.243 111.805 156.064C111.805 156.875 111.645 157.589 111.325 158.208C111.016 158.816 110.568 159.285 109.981 159.616C109.405 159.947 108.733 160.112 107.965 160.112ZM107.965 158.832C108.68 158.832 109.224 158.597 109.597 158.128C109.981 157.659 110.173 156.971 110.173 156.064C110.173 155.168 109.981 154.485 109.597 154.016C109.213 153.536 108.669 153.296 107.965 153.296C107.261 153.296 106.717 153.536 106.333 154.016C105.949 154.485 105.757 155.168 105.757 156.064C105.757 156.971 105.944 157.659 106.317 158.128C106.701 158.597 107.25 158.832 107.965 158.832ZM116.948 160.112C116.191 160.112 115.524 159.947 114.948 159.616C114.383 159.285 113.94 158.816 113.62 158.208C113.311 157.6 113.156 156.896 113.156 156.096C113.156 155.285 113.316 154.571 113.636 153.952C113.967 153.333 114.426 152.853 115.012 152.512C115.599 152.171 116.271 152 117.028 152C117.434 152 117.839 152.059 118.244 152.176C118.66 152.293 119.028 152.453 119.348 152.656C119.69 152.891 119.86 153.163 119.86 153.472C119.86 153.653 119.812 153.808 119.716 153.936C119.62 154.053 119.498 154.112 119.348 154.112C119.252 154.112 119.156 154.091 119.06 154.048C118.964 153.995 118.842 153.92 118.692 153.824C118.426 153.653 118.175 153.525 117.94 153.44C117.716 153.344 117.444 153.296 117.124 153.296C116.399 153.296 115.834 153.541 115.428 154.032C115.034 154.523 114.836 155.205 114.836 156.08C114.836 156.955 115.034 157.632 115.428 158.112C115.823 158.581 116.383 158.816 117.108 158.816C117.428 158.816 117.711 158.768 117.956 158.672C118.202 158.576 118.452 158.448 118.708 158.288C118.826 158.213 118.943 158.149 119.06 158.096C119.178 158.043 119.284 158.016 119.38 158.016C119.53 158.016 119.652 158.08 119.748 158.208C119.844 158.325 119.892 158.475 119.892 158.656C119.892 158.805 119.85 158.944 119.764 159.072C119.69 159.189 119.556 159.312 119.364 159.44C119.044 159.653 118.671 159.819 118.244 159.936C117.818 160.053 117.386 160.112 116.948 160.112ZM127.387 152.032C127.632 152.032 127.824 152.101 127.963 152.24C128.112 152.379 128.187 152.571 128.187 152.816V159.328C128.187 159.552 128.112 159.733 127.963 159.872C127.813 160.011 127.616 160.08 127.371 160.08C127.147 160.08 126.965 160.016 126.827 159.888C126.688 159.749 126.619 159.568 126.619 159.344V158.736C126.373 159.184 126.032 159.525 125.595 159.76C125.168 159.995 124.688 160.112 124.155 160.112C122.256 160.112 121.307 159.067 121.307 156.976V152.816C121.307 152.571 121.376 152.379 121.515 152.24C121.664 152.101 121.867 152.032 122.123 152.032C122.368 152.032 122.56 152.101 122.699 152.24C122.848 152.379 122.923 152.571 122.923 152.816V156.96C122.923 157.589 123.051 158.053 123.307 158.352C123.563 158.651 123.957 158.8 124.491 158.8C125.12 158.8 125.621 158.597 125.995 158.192C126.379 157.787 126.571 157.248 126.571 156.576V152.816C126.571 152.581 126.645 152.395 126.795 152.256C126.944 152.107 127.141 152.032 127.387 152.032ZM133.168 160.112C132.08 160.112 131.189 159.888 130.496 159.44C130.304 159.323 130.165 159.2 130.08 159.072C130.005 158.944 129.968 158.8 129.968 158.64C129.968 158.469 130.016 158.325 130.112 158.208C130.208 158.091 130.331 158.032 130.48 158.032C130.619 158.032 130.837 158.117 131.136 158.288C131.456 158.459 131.765 158.597 132.064 158.704C132.373 158.811 132.757 158.864 133.216 158.864C133.728 158.864 134.128 158.773 134.416 158.592C134.704 158.411 134.848 158.155 134.848 157.824C134.848 157.611 134.789 157.44 134.672 157.312C134.565 157.184 134.373 157.072 134.096 156.976C133.819 156.869 133.408 156.757 132.864 156.64C131.925 156.437 131.248 156.165 130.832 155.824C130.427 155.472 130.224 154.997 130.224 154.4C130.224 153.941 130.357 153.531 130.624 153.168C130.891 152.795 131.259 152.507 131.728 152.304C132.197 152.101 132.731 152 133.328 152C133.755 152 134.171 152.059 134.576 152.176C134.981 152.283 135.339 152.443 135.648 152.656C136 152.891 136.176 153.163 136.176 153.472C136.176 153.643 136.123 153.787 136.016 153.904C135.92 154.021 135.803 154.08 135.664 154.08C135.568 154.08 135.472 154.059 135.376 154.016C135.28 153.973 135.152 153.904 134.992 153.808C134.704 153.637 134.432 153.504 134.176 153.408C133.931 153.312 133.621 153.264 133.248 153.264C132.8 153.264 132.437 153.36 132.16 153.552C131.893 153.744 131.76 154.005 131.76 154.336C131.76 154.635 131.883 154.869 132.128 155.04C132.384 155.2 132.859 155.355 133.552 155.504C134.267 155.653 134.827 155.824 135.232 156.016C135.637 156.208 135.925 156.448 136.096 156.736C136.277 157.013 136.368 157.371 136.368 157.808C136.368 158.501 136.075 159.061 135.488 159.488C134.912 159.904 134.139 160.112 133.168 160.112ZM144.279 158.032C144.428 158.032 144.551 158.091 144.647 158.208C144.743 158.325 144.791 158.475 144.791 158.656C144.791 158.965 144.599 159.227 144.215 159.44C143.842 159.653 143.431 159.819 142.983 159.936C142.546 160.053 142.124 160.112 141.719 160.112C140.482 160.112 139.506 159.755 138.791 159.04C138.076 158.315 137.719 157.328 137.719 156.08C137.719 155.28 137.874 154.571 138.183 153.952C138.503 153.333 138.946 152.853 139.511 152.512C140.087 152.171 140.738 152 141.463 152C142.508 152 143.335 152.336 143.943 153.008C144.551 153.68 144.855 154.587 144.855 155.728C144.855 156.155 144.663 156.368 144.279 156.368H139.335C139.442 158.021 140.236 158.848 141.719 158.848C142.114 158.848 142.455 158.795 142.743 158.688C143.031 158.581 143.335 158.443 143.655 158.272C143.687 158.251 143.772 158.208 143.911 158.144C144.06 158.069 144.183 158.032 144.279 158.032ZM141.495 153.184C140.876 153.184 140.38 153.381 140.007 153.776C139.634 154.171 139.41 154.725 139.335 155.44H143.463C143.431 154.715 143.244 154.16 142.903 153.776C142.572 153.381 142.103 153.184 141.495 153.184ZM153.02 148.64C153.265 148.64 153.462 148.709 153.612 148.848C153.761 148.987 153.836 149.173 153.836 149.408V159.296C153.836 159.541 153.761 159.733 153.612 159.872C153.473 160.011 153.281 160.08 153.036 160.08C152.79 160.08 152.593 160.011 152.444 159.872C152.305 159.733 152.236 159.541 152.236 159.296V158.656C152.001 159.125 151.66 159.488 151.212 159.744C150.764 159.989 150.246 160.112 149.66 160.112C148.988 160.112 148.385 159.941 147.852 159.6C147.329 159.259 146.918 158.779 146.62 158.16C146.332 157.541 146.188 156.832 146.188 156.032C146.188 155.221 146.332 154.512 146.62 153.904C146.918 153.296 147.329 152.827 147.852 152.496C148.374 152.165 148.977 152 149.66 152C150.246 152 150.758 152.128 151.196 152.384C151.644 152.629 151.985 152.981 152.22 153.44V149.376C152.22 149.152 152.289 148.976 152.428 148.848C152.577 148.709 152.774 148.64 153.02 148.64ZM150.044 158.832C150.737 158.832 151.276 158.592 151.66 158.112C152.044 157.632 152.236 156.949 152.236 156.064C152.236 155.179 152.044 154.496 151.66 154.016C151.286 153.536 150.748 153.296 150.044 153.296C149.34 153.296 148.79 153.536 148.396 154.016C148.012 154.485 147.82 155.157 147.82 156.032C147.82 156.907 148.017 157.595 148.412 158.096C148.806 158.587 149.35 158.832 150.044 158.832Z" fill="#2C333A"/>
<path d="M21.232 223.928C21.9467 223.928 22.5707 224.077 23.104 224.376C23.648 224.675 24.064 225.096 24.352 225.64C24.6507 226.173 24.8 226.792 24.8 227.496C24.8 228.2 24.64 228.829 24.32 229.384C24 229.928 23.552 230.355 22.976 230.664C22.4107 230.963 21.7547 231.112 21.008 231.112C20.3467 231.112 19.7013 230.995 19.072 230.76C18.4427 230.525 17.9093 230.205 17.472 229.8C17.3013 229.64 17.216 229.459 17.216 229.256C17.216 229.096 17.2587 228.963 17.344 228.856C17.4293 228.749 17.5307 228.696 17.648 228.696C17.7973 228.696 17.9467 228.755 18.096 228.872C18.5653 229.256 19.0347 229.544 19.504 229.736C19.9733 229.917 20.464 230.008 20.976 230.008C21.7653 230.008 22.384 229.784 22.832 229.336C23.28 228.888 23.504 228.28 23.504 227.512C23.504 226.765 23.28 226.163 22.832 225.704C22.384 225.245 21.7813 225.016 21.024 225.016C20.0533 225.016 19.264 225.389 18.656 226.136C18.5067 226.296 18.3253 226.376 18.112 226.376C17.9627 226.376 17.8347 226.333 17.728 226.248C17.632 226.152 17.584 226.024 17.584 225.864V220.344C17.584 220.163 17.6373 220.013 17.744 219.896C17.8613 219.779 18.0213 219.72 18.224 219.72H23.856C24.048 219.72 24.1973 219.768 24.304 219.864C24.4213 219.96 24.48 220.093 24.48 220.264C24.48 220.435 24.4213 220.568 24.304 220.664C24.1973 220.76 24.048 220.808 23.856 220.808H18.88V224.824C19.1787 224.536 19.5253 224.317 19.92 224.168C20.3253 224.008 20.7627 223.928 21.232 223.928ZM34.1218 227.464C34.3138 227.464 34.4631 227.517 34.5698 227.624C34.6764 227.72 34.7298 227.848 34.7298 228.008C34.7298 228.371 34.5271 228.552 34.1218 228.552H32.9218V230.408C32.9218 230.621 32.8578 230.787 32.7298 230.904C32.6124 231.021 32.4578 231.08 32.2658 231.08C32.0738 231.08 31.9191 231.021 31.8018 230.904C31.6844 230.787 31.6258 230.621 31.6258 230.408V228.552H26.8898C26.6978 228.552 26.5484 228.499 26.4418 228.392C26.3351 228.285 26.2818 228.152 26.2818 227.992C26.2818 227.843 26.3404 227.677 26.4578 227.496L31.6898 219.928C31.8391 219.736 32.0311 219.64 32.2658 219.64C32.4471 219.64 32.6018 219.699 32.7298 219.816C32.8578 219.933 32.9218 220.099 32.9218 220.312V227.464H34.1218ZM31.6258 227.464V221.912L27.7698 227.464H31.6258ZM40.0355 230.92C39.8968 231.155 39.7208 231.272 39.5075 231.272C39.3688 231.272 39.2462 231.224 39.1395 231.128C39.0435 231.032 38.9955 230.904 38.9955 230.744C38.9955 230.616 39.0328 230.493 39.1075 230.376L45.2195 219.8C45.3582 219.565 45.5342 219.448 45.7475 219.448C45.8862 219.448 46.0035 219.501 46.0995 219.608C46.2062 219.704 46.2595 219.827 46.2595 219.976C46.2595 220.093 46.2275 220.216 46.1635 220.344L40.0355 230.92ZM38.7875 226.488C37.9342 226.488 37.2675 226.2 36.7875 225.624C36.3075 225.037 36.0675 224.173 36.0675 223.032C36.0675 221.901 36.3075 221.048 36.7875 220.472C37.2675 219.885 37.9342 219.592 38.7875 219.592C39.6408 219.592 40.3075 219.885 40.7875 220.472C41.2675 221.048 41.5075 221.901 41.5075 223.032C41.5075 224.173 41.2675 225.037 40.7875 225.624C40.3075 226.2 39.6408 226.488 38.7875 226.488ZM38.7875 225.56C39.3102 225.56 39.6942 225.357 39.9395 224.952C40.1955 224.547 40.3235 223.907 40.3235 223.032C40.3235 222.168 40.1955 221.533 39.9395 221.128C39.6942 220.723 39.3102 220.52 38.7875 220.52C38.2648 220.52 37.8755 220.723 37.6195 221.128C37.3635 221.533 37.2355 222.168 37.2355 223.032C37.2355 223.907 37.3635 224.547 37.6195 224.952C37.8755 225.357 38.2648 225.56 38.7875 225.56ZM46.4675 231.112C45.6142 231.112 44.9475 230.824 44.4675 230.248C43.9875 229.661 43.7475 228.797 43.7475 227.656C43.7475 226.525 43.9875 225.672 44.4675 225.096C44.9475 224.509 45.6142 224.216 46.4675 224.216C47.3315 224.216 47.9982 224.504 48.4675 225.08C48.9475 225.656 49.1875 226.515 49.1875 227.656C49.1875 228.797 48.9475 229.661 48.4675 230.248C47.9982 230.824 47.3315 231.112 46.4675 231.112ZM46.4675 230.184C47.0008 230.184 47.3902 229.987 47.6355 229.592C47.8915 229.187 48.0195 228.541 48.0195 227.656C48.0195 226.792 47.8915 226.157 47.6355 225.752C47.3795 225.347 46.9902 225.144 46.4675 225.144C45.9448 225.144 45.5555 225.347 45.2995 225.752C45.0542 226.157 44.9315 226.792 44.9315 227.656C44.9315 228.531 45.0542 229.171 45.2995 229.576C45.5555 229.981 45.9448 230.184 46.4675 230.184Z" fill="#2C333A"/>
<path d="M266.818 222.462L266.216 225.556H267.434C267.584 225.556 267.705 225.607 267.798 225.71C267.892 225.803 267.938 225.92 267.938 226.06C267.938 226.191 267.892 226.303 267.798 226.396C267.705 226.48 267.584 226.522 267.434 226.522H266.02L265.6 228.692C265.582 228.804 265.526 228.897 265.432 228.972C265.348 229.037 265.246 229.07 265.124 229.07C264.975 229.07 264.849 229.023 264.746 228.93C264.653 228.837 264.606 228.715 264.606 228.566C264.606 228.51 264.611 228.463 264.62 228.426L264.998 226.522H262.968L262.534 228.692C262.516 228.804 262.46 228.897 262.366 228.972C262.282 229.037 262.18 229.07 262.058 229.07C261.909 229.07 261.788 229.023 261.694 228.93C261.601 228.837 261.554 228.715 261.554 228.566C261.554 228.51 261.559 228.463 261.568 228.426L261.946 226.522H261.162C261.013 226.522 260.892 226.475 260.798 226.382C260.705 226.279 260.658 226.158 260.658 226.018C260.658 225.887 260.705 225.78 260.798 225.696C260.892 225.603 261.013 225.556 261.162 225.556H262.128L262.73 222.462H261.442C261.293 222.462 261.172 222.415 261.078 222.322C260.985 222.219 260.938 222.098 260.938 221.958C260.938 221.827 260.985 221.72 261.078 221.636C261.172 221.543 261.293 221.496 261.442 221.496H262.926L263.332 219.396C263.351 219.284 263.402 219.195 263.486 219.13C263.58 219.055 263.687 219.018 263.808 219.018C263.967 219.018 264.093 219.065 264.186 219.158C264.28 219.251 264.326 219.377 264.326 219.536C264.326 219.592 264.322 219.634 264.312 219.662L263.948 221.496H265.978L266.384 219.396C266.403 219.284 266.454 219.195 266.538 219.13C266.632 219.055 266.739 219.018 266.86 219.018C267.01 219.018 267.131 219.065 267.224 219.158C267.327 219.251 267.378 219.373 267.378 219.522C267.378 219.578 267.374 219.625 267.364 219.662L267 221.496H267.714C267.864 221.496 267.985 221.547 268.078 221.65C268.172 221.743 268.218 221.86 268.218 222C268.218 222.131 268.172 222.243 268.078 222.336C267.985 222.42 267.864 222.462 267.714 222.462H266.818ZM265.782 222.462H263.766L263.15 225.556H265.18L265.782 222.462ZM272.833 229.112C271.685 229.112 270.807 228.683 270.201 227.824C269.603 226.965 269.305 225.715 269.305 224.072C269.305 222.42 269.603 221.165 270.201 220.306C270.807 219.447 271.685 219.018 272.833 219.018C273.981 219.018 274.853 219.447 275.451 220.306C276.057 221.155 276.361 222.406 276.361 224.058C276.361 225.71 276.057 226.965 275.451 227.824C274.853 228.683 273.981 229.112 272.833 229.112ZM272.833 227.95C273.551 227.95 274.079 227.637 274.415 227.012C274.751 226.387 274.919 225.402 274.919 224.058C274.919 222.714 274.751 221.734 274.415 221.118C274.079 220.493 273.551 220.18 272.833 220.18C272.114 220.18 271.587 220.493 271.251 221.118C270.915 221.734 270.747 222.714 270.747 224.058C270.747 225.393 270.915 226.377 271.251 227.012C271.587 227.637 272.114 227.95 272.833 227.95ZM281.227 229.112C280.079 229.112 279.202 228.683 278.595 227.824C277.998 226.965 277.699 225.715 277.699 224.072C277.699 222.42 277.998 221.165 278.595 220.306C279.202 219.447 280.079 219.018 281.227 219.018C282.375 219.018 283.248 219.447 283.845 220.306C284.452 221.155 284.755 222.406 284.755 224.058C284.755 225.71 284.452 226.965 283.845 227.824C283.248 228.683 282.375 229.112 281.227 229.112ZM281.227 227.95C281.946 227.95 282.473 227.637 282.809 227.012C283.145 226.387 283.313 225.402 283.313 224.058C283.313 222.714 283.145 221.734 282.809 221.118C282.473 220.493 281.946 220.18 281.227 220.18C280.509 220.18 279.981 220.493 279.645 221.118C279.309 221.734 279.141 222.714 279.141 224.058C279.141 225.393 279.309 226.377 279.645 227.012C279.981 227.637 280.509 227.95 281.227 227.95ZM289.622 229.112C288.474 229.112 287.597 228.683 286.99 227.824C286.393 226.965 286.094 225.715 286.094 224.072C286.094 222.42 286.393 221.165 286.99 220.306C287.597 219.447 288.474 219.018 289.622 219.018C290.77 219.018 291.643 219.447 292.24 220.306C292.847 221.155 293.15 222.406 293.15 224.058C293.15 225.71 292.847 226.965 292.24 227.824C291.643 228.683 290.77 229.112 289.622 229.112ZM289.622 227.95C290.341 227.95 290.868 227.637 291.204 227.012C291.54 226.387 291.708 225.402 291.708 224.058C291.708 222.714 291.54 221.734 291.204 221.118C290.868 220.493 290.341 220.18 289.622 220.18C288.903 220.18 288.376 220.493 288.04 221.118C287.704 221.734 287.536 222.714 287.536 224.058C287.536 225.393 287.704 226.377 288.04 227.012C288.376 227.637 288.903 227.95 289.622 227.95ZM298.016 229.112C296.868 229.112 295.991 228.683 295.384 227.824C294.787 226.965 294.488 225.715 294.488 224.072C294.488 222.42 294.787 221.165 295.384 220.306C295.991 219.447 296.868 219.018 298.016 219.018C299.164 219.018 300.037 219.447 300.634 220.306C301.241 221.155 301.544 222.406 301.544 224.058C301.544 225.71 301.241 226.965 300.634 227.824C300.037 228.683 299.164 229.112 298.016 229.112ZM298.016 227.95C298.735 227.95 299.262 227.637 299.598 227.012C299.934 226.387 300.102 225.402 300.102 224.058C300.102 222.714 299.934 221.734 299.598 221.118C299.262 220.493 298.735 220.18 298.016 220.18C297.298 220.18 296.77 220.493 296.434 221.118C296.098 221.734 295.93 222.714 295.93 224.058C295.93 225.393 296.098 226.377 296.434 227.012C296.77 227.637 297.298 227.95 298.016 227.95ZM306.411 229.112C305.263 229.112 304.386 228.683 303.779 227.824C303.182 226.965 302.883 225.715 302.883 224.072C302.883 222.42 303.182 221.165 303.779 220.306C304.386 219.447 305.263 219.018 306.411 219.018C307.559 219.018 308.432 219.447 309.029 220.306C309.636 221.155 309.939 222.406 309.939 224.058C309.939 225.71 309.636 226.965 309.029 227.824C308.432 228.683 307.559 229.112 306.411 229.112ZM306.411 227.95C307.13 227.95 307.657 227.637 307.993 227.012C308.329 226.387 308.497 225.402 308.497 224.058C308.497 222.714 308.329 221.734 307.993 221.118C307.657 220.493 307.13 220.18 306.411 220.18C305.692 220.18 305.165 220.493 304.829 221.118C304.493 221.734 304.325 222.714 304.325 224.058C304.325 225.393 304.493 226.377 304.829 227.012C305.165 227.637 305.692 227.95 306.411 227.95ZM314.805 229.112C313.657 229.112 312.78 228.683 312.173 227.824C311.576 226.965 311.277 225.715 311.277 224.072C311.277 222.42 311.576 221.165 312.173 220.306C312.78 219.447 313.657 219.018 314.805 219.018C315.953 219.018 316.826 219.447 317.423 220.306C318.03 221.155 318.333 222.406 318.333 224.058C318.333 225.71 318.03 226.965 317.423 227.824C316.826 228.683 315.953 229.112 314.805 229.112ZM314.805 227.95C315.524 227.95 316.051 227.637 316.387 227.012C316.723 226.387 316.891 225.402 316.891 224.058C316.891 222.714 316.723 221.734 316.387 221.118C316.051 220.493 315.524 220.18 314.805 220.18C314.087 220.18 313.559 220.493 313.223 221.118C312.887 221.734 312.719 222.714 312.719 224.058C312.719 225.393 312.887 226.377 313.223 227.012C313.559 227.637 314.087 227.95 314.805 227.95Z" fill="#2C333A"/>
<path d="M307 205C312.523 205 317 200.523 317 195C317 189.477 312.523 185 307 185C301.477 185 297 189.477 297 195C297 200.523 301.477 205 307 205Z" stroke="#2C333A" stroke-width="2" stroke-linecap="round" stroke-linejoin="round"/>
<path d="M311.24 190.76L309.12 197.12L302.76 199.24L304.88 192.88L311.24 190.76Z" stroke="#2C333A" stroke-width="2" stroke-linecap="round" stroke-linejoin="round"/>
</g>
<g opacity="0.4">
<path d="M18.128 287.08C17.8827 287.08 17.6853 287.005 17.536 286.856C17.3867 286.707 17.312 286.504 17.312 286.248V276.472C17.312 276.227 17.3867 276.029 17.536 275.88C17.6853 275.72 17.8827 275.64 18.128 275.64C18.384 275.64 18.5867 275.715 18.736 275.864C18.8853 276.013 18.96 276.216 18.96 276.472V286.248C18.96 286.504 18.8853 286.707 18.736 286.856C18.5973 287.005 18.3947 287.08 18.128 287.08ZM25.5936 279C27.4603 279 28.3936 280.051 28.3936 282.152V286.312C28.3936 286.557 28.319 286.749 28.1696 286.888C28.031 287.016 27.8336 287.08 27.5776 287.08C27.3323 287.08 27.135 287.011 26.9856 286.872C26.847 286.733 26.7776 286.547 26.7776 286.312V282.232C26.7776 281.571 26.6443 281.085 26.3776 280.776C26.1216 280.467 25.7163 280.312 25.1616 280.312C24.511 280.312 23.9883 280.515 23.5936 280.92C23.199 281.325 23.0016 281.869 23.0016 282.552V286.312C23.0016 286.547 22.927 286.733 22.7776 286.872C22.639 287.011 22.447 287.08 22.2016 287.08C21.9563 287.08 21.759 287.011 21.6096 286.872C21.4603 286.733 21.3856 286.547 21.3856 286.312V279.8C21.3856 279.576 21.4603 279.395 21.6096 279.256C21.7696 279.107 21.967 279.032 22.2016 279.032C22.4363 279.032 22.623 279.101 22.7616 279.24C22.9003 279.379 22.9696 279.56 22.9696 279.784V280.44C23.2256 279.971 23.583 279.613 24.0416 279.368C24.5003 279.123 25.0176 279 25.5936 279ZM33.8844 279C34.919 279 35.687 279.261 36.1884 279.784C36.7004 280.307 36.9564 281.101 36.9564 282.168V286.312C36.9564 286.557 36.887 286.749 36.7484 286.888C36.6097 287.016 36.4177 287.08 36.1724 287.08C35.9377 287.08 35.751 287.011 35.6124 286.872C35.4737 286.733 35.4044 286.547 35.4044 286.312V285.72C35.2017 286.168 34.8977 286.515 34.4924 286.76C34.0977 286.995 33.6337 287.112 33.1004 287.112C32.5884 287.112 32.119 287.011 31.6924 286.808C31.2657 286.595 30.9297 286.301 30.6844 285.928C30.4497 285.555 30.3324 285.139 30.3324 284.68C30.3324 284.115 30.4764 283.672 30.7644 283.352C31.063 283.021 31.5484 282.787 32.2204 282.648C32.903 282.509 33.8364 282.44 35.0204 282.44H35.3884V281.976C35.3884 281.379 35.2657 280.947 35.0204 280.68C34.775 280.413 34.3804 280.28 33.8364 280.28C33.463 280.28 33.111 280.328 32.7804 280.424C32.4497 280.52 32.087 280.659 31.6924 280.84C31.4044 281 31.2017 281.08 31.0844 281.08C30.9244 281.08 30.791 281.021 30.6844 280.904C30.5884 280.787 30.5404 280.637 30.5404 280.456C30.5404 280.296 30.583 280.157 30.6684 280.04C30.7644 279.912 30.9137 279.789 31.1164 279.672C31.4897 279.469 31.927 279.309 32.4284 279.192C32.9297 279.064 33.415 279 33.8844 279ZM33.3884 285.912C33.975 285.912 34.455 285.715 34.8284 285.32C35.2017 284.915 35.3884 284.397 35.3884 283.768V283.352H35.1004C34.2684 283.352 33.6284 283.389 33.1804 283.464C32.7324 283.539 32.4124 283.667 32.2204 283.848C32.0284 284.019 31.9324 284.269 31.9324 284.6C31.9324 284.984 32.071 285.299 32.3484 285.544C32.6257 285.789 32.9724 285.912 33.3884 285.912ZM42.5109 287.112C41.7535 287.112 41.0869 286.947 40.5109 286.616C39.9455 286.285 39.5029 285.816 39.1829 285.208C38.8735 284.6 38.7189 283.896 38.7189 283.096C38.7189 282.285 38.8789 281.571 39.1989 280.952C39.5295 280.333 39.9882 279.853 40.5749 279.512C41.1615 279.171 41.8335 279 42.5909 279C42.9962 279 43.4015 279.059 43.8069 279.176C44.2229 279.293 44.5909 279.453 44.9109 279.656C45.2522 279.891 45.4229 280.163 45.4229 280.472C45.4229 280.653 45.3749 280.808 45.2789 280.936C45.1829 281.053 45.0602 281.112 44.9109 281.112C44.8149 281.112 44.7189 281.091 44.6229 281.048C44.5269 280.995 44.4042 280.92 44.2549 280.824C43.9882 280.653 43.7375 280.525 43.5029 280.44C43.2789 280.344 43.0069 280.296 42.6869 280.296C41.9615 280.296 41.3962 280.541 40.9909 281.032C40.5962 281.523 40.3989 282.205 40.3989 283.08C40.3989 283.955 40.5962 284.632 40.9909 285.112C41.3855 285.581 41.9455 285.816 42.6709 285.816C42.9909 285.816 43.2735 285.768 43.5189 285.672C43.7642 285.576 44.0149 285.448 44.2709 285.288C44.3882 285.213 44.5055 285.149 44.6229 285.096C44.7402 285.043 44.8469 285.016 44.9429 285.016C45.0922 285.016 45.2149 285.08 45.3109 285.208C45.4069 285.325 45.4549 285.475 45.4549 285.656C45.4549 285.805 45.4122 285.944 45.3269 286.072C45.2522 286.189 45.1189 286.312 44.9269 286.44C44.6069 286.653 44.2335 286.819 43.8069 286.936C43.3802 287.053 42.9482 287.112 42.5109 287.112ZM50.7565 285.848C50.9912 285.869 51.1565 285.933 51.2525 286.04C51.3592 286.136 51.4125 286.275 51.4125 286.456C51.4125 286.669 51.3272 286.835 51.1565 286.952C50.9965 287.059 50.7565 287.101 50.4365 287.08L50.0045 287.048C49.1405 286.984 48.4952 286.723 48.0685 286.264C47.6418 285.795 47.4285 285.107 47.4285 284.2V280.44H46.4685C45.9992 280.44 45.7645 280.232 45.7645 279.816C45.7645 279.624 45.8232 279.475 45.9405 279.368C46.0685 279.251 46.2445 279.192 46.4685 279.192H47.4285V277.544C47.4285 277.299 47.4978 277.107 47.6365 276.968C47.7858 276.829 47.9832 276.76 48.2285 276.76C48.4738 276.76 48.6712 276.829 48.8205 276.968C48.9698 277.107 49.0445 277.299 49.0445 277.544V279.192H50.6285C50.8525 279.192 51.0232 279.251 51.1405 279.368C51.2685 279.475 51.3325 279.624 51.3325 279.816C51.3325 280.019 51.2685 280.173 51.1405 280.28C51.0232 280.387 50.8525 280.44 50.6285 280.44H49.0445V284.312C49.0445 284.813 49.1458 285.181 49.3485 285.416C49.5618 285.651 49.8818 285.784 50.3085 285.816L50.7565 285.848ZM53.3891 287.08C53.1545 287.08 52.9571 287.016 52.7971 286.888C52.6478 286.76 52.5731 286.568 52.5731 286.312V279.816C52.5731 279.56 52.6478 279.368 52.7971 279.24C52.9571 279.101 53.1545 279.032 53.3891 279.032C53.6238 279.032 53.8158 279.101 53.9651 279.24C54.1145 279.368 54.1891 279.56 54.1891 279.816V286.312C54.1891 286.568 54.1145 286.76 53.9651 286.888C53.8158 287.016 53.6238 287.08 53.3891 287.08ZM53.3891 277.464C53.0798 277.464 52.8345 277.379 52.6531 277.208C52.4718 277.037 52.3811 276.813 52.3811 276.536C52.3811 276.259 52.4718 276.04 52.6531 275.88C52.8345 275.709 53.0798 275.624 53.3891 275.624C53.6878 275.624 53.9278 275.709 54.1091 275.88C54.3011 276.04 54.3971 276.259 54.3971 276.536C54.3971 276.813 54.3065 277.037 54.1251 277.208C53.9438 277.379 53.6985 277.464 53.3891 277.464ZM62.0001 279.512C62.0641 279.352 62.1548 279.235 62.2721 279.16C62.4001 279.085 62.5335 279.048 62.6721 279.048C62.8748 279.048 63.0508 279.117 63.2001 279.256C63.3601 279.395 63.4401 279.56 63.4401 279.752C63.4401 279.859 63.4188 279.96 63.3761 280.056L60.3201 286.536C60.2455 286.707 60.1281 286.84 59.9681 286.936C59.8188 287.021 59.6588 287.064 59.4881 287.064C59.3175 287.064 59.1521 287.021 58.9921 286.936C58.8428 286.84 58.7308 286.707 58.6561 286.536L55.6001 280.056C55.5575 279.971 55.5361 279.869 55.5361 279.752C55.5361 279.56 55.6215 279.395 55.7921 279.256C55.9628 279.117 56.1548 279.048 56.3681 279.048C56.6775 279.048 56.9068 279.197 57.0561 279.496L59.5361 285L62.0001 279.512ZM70.7633 285.032C70.9126 285.032 71.0353 285.091 71.1313 285.208C71.2273 285.325 71.2753 285.475 71.2753 285.656C71.2753 285.965 71.0833 286.227 70.6993 286.44C70.3259 286.653 69.9153 286.819 69.4673 286.936C69.0299 287.053 68.6086 287.112 68.2033 287.112C66.9659 287.112 65.9899 286.755 65.2753 286.04C64.5606 285.315 64.2033 284.328 64.2033 283.08C64.2033 282.28 64.3579 281.571 64.6673 280.952C64.9873 280.333 65.4299 279.853 65.9953 279.512C66.5713 279.171 67.2219 279 67.9473 279C68.9926 279 69.8193 279.336 70.4273 280.008C71.0353 280.68 71.3393 281.587 71.3393 282.728C71.3393 283.155 71.1473 283.368 70.7633 283.368H65.8193C65.9259 285.021 66.7206 285.848 68.2033 285.848C68.5979 285.848 68.9393 285.795 69.2273 285.688C69.5153 285.581 69.8193 285.443 70.1393 285.272C70.1713 285.251 70.2566 285.208 70.3953 285.144C70.5446 285.069 70.6673 285.032 70.7633 285.032ZM67.9793 280.184C67.3606 280.184 66.8646 280.381 66.4913 280.776C66.1179 281.171 65.8939 281.725 65.8193 282.44H69.9473C69.9153 281.715 69.7286 281.16 69.3873 280.776C69.0566 280.381 68.5873 280.184 67.9793 280.184Z" fill="#2C333A"/>
<path d="M22.304 352.208C22.9867 352.4 23.504 352.731 23.856 353.2C24.2187 353.669 24.4 354.251 24.4 354.944C24.4 355.925 24.0693 356.699 23.408 357.264C22.7467 357.829 21.8453 358.112 20.704 358.112C20.0107 358.112 19.344 357.995 18.704 357.76C18.0747 357.525 17.5413 357.205 17.104 356.8C16.9333 356.64 16.848 356.459 16.848 356.256C16.848 356.096 16.8907 355.963 16.976 355.856C17.0613 355.749 17.1627 355.696 17.28 355.696C17.4293 355.696 17.5787 355.755 17.728 355.872C18.2187 356.267 18.6987 356.555 19.168 356.736C19.6373 356.917 20.144 357.008 20.688 357.008C21.4773 357.008 22.0747 356.827 22.48 356.464C22.896 356.101 23.104 355.579 23.104 354.896C23.104 353.52 22.24 352.832 20.512 352.832H19.664C19.4933 352.832 19.3547 352.779 19.248 352.672C19.152 352.555 19.104 352.421 19.104 352.272C19.104 352.123 19.152 351.995 19.248 351.888C19.3547 351.781 19.4933 351.728 19.664 351.728H20.256C21.088 351.728 21.728 351.547 22.176 351.184C22.624 350.811 22.848 350.277 22.848 349.584C22.848 348.976 22.6667 348.512 22.304 348.192C21.9413 347.861 21.4293 347.696 20.768 347.696C20.2667 347.696 19.7813 347.792 19.312 347.984C18.8427 348.165 18.3733 348.448 17.904 348.832C17.7547 348.949 17.6053 349.008 17.456 349.008C17.3387 349.008 17.2373 348.955 17.152 348.848C17.0667 348.741 17.024 348.608 17.024 348.448C17.024 348.245 17.1093 348.064 17.28 347.904C17.7173 347.499 18.2453 347.179 18.864 346.944C19.4933 346.709 20.1387 346.592 20.8 346.592C21.824 346.592 22.6347 346.853 23.232 347.376C23.84 347.888 24.144 348.581 24.144 349.456C24.144 350.107 23.9787 350.677 23.648 351.168C23.328 351.648 22.88 351.995 22.304 352.208ZM32.3458 352.208C33.0071 352.411 33.5191 352.757 33.8818 353.248C34.2551 353.739 34.4418 354.325 34.4418 355.008C34.4418 355.979 34.0898 356.741 33.3858 357.296C32.6818 357.84 31.6844 358.112 30.3938 358.112C29.1031 358.112 28.1058 357.84 27.4018 357.296C26.6978 356.741 26.3458 355.979 26.3458 355.008C26.3458 354.315 26.5324 353.723 26.9058 353.232C27.2791 352.741 27.7964 352.4 28.4578 352.208C27.8924 351.995 27.4444 351.659 27.1138 351.2C26.7831 350.741 26.6178 350.203 26.6178 349.584C26.6178 348.667 26.9484 347.941 27.6098 347.408C28.2818 346.864 29.2098 346.592 30.3938 346.592C31.5778 346.592 32.5004 346.864 33.1618 347.408C33.8338 347.941 34.1698 348.667 34.1698 349.584C34.1698 350.203 34.0044 350.747 33.6737 351.216C33.3431 351.675 32.9004 352.005 32.3458 352.208ZM27.9138 349.68C27.9138 350.341 28.1218 350.848 28.5378 351.2C28.9644 351.552 29.5831 351.728 30.3938 351.728C31.2044 351.728 31.8178 351.552 32.2338 351.2C32.6604 350.848 32.8738 350.341 32.8738 349.68C32.8738 349.051 32.6604 348.56 32.2338 348.208C31.8178 347.856 31.2044 347.68 30.3938 347.68C29.5831 347.68 28.9644 347.856 28.5378 348.208C28.1218 348.56 27.9138 349.051 27.9138 349.68ZM30.3938 357.024C32.2284 357.024 33.1458 356.325 33.1458 354.928C33.1458 353.531 32.2284 352.832 30.3938 352.832C28.5591 352.832 27.6418 353.531 27.6418 354.928C27.6418 356.325 28.5591 357.024 30.3938 357.024ZM40.0355 357.92C39.8968 358.155 39.7208 358.272 39.5075 358.272C39.3688 358.272 39.2462 358.224 39.1395 358.128C39.0435 358.032 38.9955 357.904 38.9955 357.744C38.9955 357.616 39.0328 357.493 39.1075 357.376L45.2195 346.8C45.3582 346.565 45.5342 346.448 45.7475 346.448C45.8862 346.448 46.0035 346.501 46.0995 346.608C46.2062 346.704 46.2595 346.827 46.2595 346.976C46.2595 347.093 46.2275 347.216 46.1635 347.344L40.0355 357.92ZM38.7875 353.488C37.9342 353.488 37.2675 353.2 36.7875 352.624C36.3075 352.037 36.0675 351.173 36.0675 350.032C36.0675 348.901 36.3075 348.048 36.7875 347.472C37.2675 346.885 37.9342 346.592 38.7875 346.592C39.6408 346.592 40.3075 346.885 40.7875 347.472C41.2675 348.048 41.5075 348.901 41.5075 350.032C41.5075 351.173 41.2675 352.037 40.7875 352.624C40.3075 353.2 39.6408 353.488 38.7875 353.488ZM38.7875 352.56C39.3102 352.56 39.6942 352.357 39.9395 351.952C40.1955 351.547 40.3235 350.907 40.3235 350.032C40.3235 349.168 40.1955 348.533 39.9395 348.128C39.6942 347.723 39.3102 347.52 38.7875 347.52C38.2648 347.52 37.8755 347.723 37.6195 348.128C37.3635 348.533 37.2355 349.168 37.2355 350.032C37.2355 350.907 37.3635 351.547 37.6195 351.952C37.8755 352.357 38.2648 352.56 38.7875 352.56ZM46.4675 358.112C45.6142 358.112 44.9475 357.824 44.4675 357.248C43.9875 356.661 43.7475 355.797 43.7475 354.656C43.7475 353.525 43.9875 352.672 44.4675 352.096C44.9475 351.509 45.6142 351.216 46.4675 351.216C47.3315 351.216 47.9982 351.504 48.4675 352.08C48.9475 352.656 49.1875 353.515 49.1875 354.656C49.1875 355.797 48.9475 356.661 48.4675 357.248C47.9982 357.824 47.3315 358.112 46.4675 358.112ZM46.4675 357.184C47.0008 357.184 47.3902 356.987 47.6355 356.592C47.8915 356.187 48.0195 355.541 48.0195 354.656C48.0195 353.792 47.8915 353.157 47.6355 352.752C47.3795 352.347 46.9902 352.144 46.4675 352.144C45.9448 352.144 45.5555 352.347 45.2995 352.752C45.0542 353.157 44.9315 353.792 44.9315 354.656C44.9315 355.531 45.0542 356.171 45.2995 356.576C45.5555 356.981 45.9448 357.184 46.4675 357.184Z" fill="#2C333A"/>
<path d="M266.818 349.462L266.216 352.556H267.434C267.584 352.556 267.705 352.607 267.798 352.71C267.892 352.803 267.938 352.92 267.938 353.06C267.938 353.191 267.892 353.303 267.798 353.396C267.705 353.48 267.584 353.522 267.434 353.522H266.02L265.6 355.692C265.582 355.804 265.526 355.897 265.432 355.972C265.348 356.037 265.246 356.07 265.124 356.07C264.975 356.07 264.849 356.023 264.746 355.93C264.653 355.837 264.606 355.715 264.606 355.566C264.606 355.51 264.611 355.463 264.62 355.426L264.998 353.522H262.968L262.534 355.692C262.516 355.804 262.46 355.897 262.366 355.972C262.282 356.037 262.18 356.07 262.058 356.07C261.909 356.07 261.788 356.023 261.694 355.93C261.601 355.837 261.554 355.715 261.554 355.566C261.554 355.51 261.559 355.463 261.568 355.426L261.946 353.522H261.162C261.013 353.522 260.892 353.475 260.798 353.382C260.705 353.279 260.658 353.158 260.658 353.018C260.658 352.887 260.705 352.78 260.798 352.696C260.892 352.603 261.013 352.556 261.162 352.556H262.128L262.73 349.462H261.442C261.293 349.462 261.172 349.415 261.078 349.322C260.985 349.219 260.938 349.098 260.938 348.958C260.938 348.827 260.985 348.72 261.078 348.636C261.172 348.543 261.293 348.496 261.442 348.496H262.926L263.332 346.396C263.351 346.284 263.402 346.195 263.486 346.13C263.58 346.055 263.687 346.018 263.808 346.018C263.967 346.018 264.093 346.065 264.186 346.158C264.28 346.251 264.326 346.377 264.326 346.536C264.326 346.592 264.322 346.634 264.312 346.662L263.948 348.496H265.978L266.384 346.396C266.403 346.284 266.454 346.195 266.538 346.13C266.632 346.055 266.739 346.018 266.86 346.018C267.01 346.018 267.131 346.065 267.224 346.158C267.327 346.251 267.378 346.373 267.378 346.522C267.378 346.578 267.374 346.625 267.364 346.662L267 348.496H267.714C267.864 348.496 267.985 348.547 268.078 348.65C268.172 348.743 268.218 348.86 268.218 349C268.218 349.131 268.172 349.243 268.078 349.336C267.985 349.42 267.864 349.462 267.714 349.462H266.818ZM265.782 349.462H263.766L263.15 352.556H265.18L265.782 349.462ZM272.833 356.112C271.685 356.112 270.807 355.683 270.201 354.824C269.603 353.965 269.305 352.715 269.305 351.072C269.305 349.42 269.603 348.165 270.201 347.306C270.807 346.447 271.685 346.018 272.833 346.018C273.981 346.018 274.853 346.447 275.451 347.306C276.057 348.155 276.361 349.406 276.361 351.058C276.361 352.71 276.057 353.965 275.451 354.824C274.853 355.683 273.981 356.112 272.833 356.112ZM272.833 354.95C273.551 354.95 274.079 354.637 274.415 354.012C274.751 353.387 274.919 352.402 274.919 351.058C274.919 349.714 274.751 348.734 274.415 348.118C274.079 347.493 273.551 347.18 272.833 347.18C272.114 347.18 271.587 347.493 271.251 348.118C270.915 348.734 270.747 349.714 270.747 351.058C270.747 352.393 270.915 353.377 271.251 354.012C271.587 354.637 272.114 354.95 272.833 354.95ZM281.227 356.112C280.079 356.112 279.202 355.683 278.595 354.824C277.998 353.965 277.699 352.715 277.699 351.072C277.699 349.42 277.998 348.165 278.595 347.306C279.202 346.447 280.079 346.018 281.227 346.018C282.375 346.018 283.248 346.447 283.845 347.306C284.452 348.155 284.755 349.406 284.755 351.058C284.755 352.71 284.452 353.965 283.845 354.824C283.248 355.683 282.375 356.112 281.227 356.112ZM281.227 354.95C281.946 354.95 282.473 354.637 282.809 354.012C283.145 353.387 283.313 352.402 283.313 351.058C283.313 349.714 283.145 348.734 282.809 348.118C282.473 347.493 281.946 347.18 281.227 347.18C280.509 347.18 279.981 347.493 279.645 348.118C279.309 348.734 279.141 349.714 279.141 351.058C279.141 352.393 279.309 353.377 279.645 354.012C279.981 354.637 280.509 354.95 281.227 354.95ZM289.622 356.112C288.474 356.112 287.597 355.683 286.99 354.824C286.393 353.965 286.094 352.715 286.094 351.072C286.094 349.42 286.393 348.165 286.99 347.306C287.597 346.447 288.474 346.018 289.622 346.018C290.77 346.018 291.643 346.447 292.24 347.306C292.847 348.155 293.15 349.406 293.15 351.058C293.15 352.71 292.847 353.965 292.24 354.824C291.643 355.683 290.77 356.112 289.622 356.112ZM289.622 354.95C290.341 354.95 290.868 354.637 291.204 354.012C291.54 353.387 291.708 352.402 291.708 351.058C291.708 349.714 291.54 348.734 291.204 348.118C290.868 347.493 290.341 347.18 289.622 347.18C288.903 347.18 288.376 347.493 288.04 348.118C287.704 348.734 287.536 349.714 287.536 351.058C287.536 352.393 287.704 353.377 288.04 354.012C288.376 354.637 288.903 354.95 289.622 354.95ZM298.016 356.112C296.868 356.112 295.991 355.683 295.384 354.824C294.787 353.965 294.488 352.715 294.488 351.072C294.488 349.42 294.787 348.165 295.384 347.306C295.991 346.447 296.868 346.018 298.016 346.018C299.164 346.018 300.037 346.447 300.634 347.306C301.241 348.155 301.544 349.406 301.544 351.058C301.544 352.71 301.241 353.965 300.634 354.824C300.037 355.683 299.164 356.112 298.016 356.112ZM298.016 354.95C298.735 354.95 299.262 354.637 299.598 354.012C299.934 353.387 300.102 352.402 300.102 351.058C300.102 349.714 299.934 348.734 299.598 348.118C299.262 347.493 298.735 347.18 298.016 347.18C297.298 347.18 296.77 347.493 296.434 348.118C296.098 348.734 295.93 349.714 295.93 351.058C295.93 352.393 296.098 353.377 296.434 354.012C296.77 354.637 297.298 354.95 298.016 354.95ZM306.411 356.112C305.263 356.112 304.386 355.683 303.779 354.824C303.182 353.965 302.883 352.715 302.883 351.072C302.883 349.42 303.182 348.165 303.779 347.306C304.386 346.447 305.263 346.018 306.411 346.018C307.559 346.018 308.432 346.447 309.029 347.306C309.636 348.155 309.939 349.406 309.939 351.058C309.939 352.71 309.636 353.965 309.029 354.824C308.432 355.683 307.559 356.112 306.411 356.112ZM306.411 354.95C307.13 354.95 307.657 354.637 307.993 354.012C308.329 353.387 308.497 352.402 308.497 351.058C308.497 349.714 308.329 348.734 307.993 348.118C307.657 347.493 307.13 347.18 306.411 347.18C305.692 347.18 305.165 347.493 304.829 348.118C304.493 348.734 304.325 349.714 304.325 351.058C304.325 352.393 304.493 353.377 304.829 354.012C305.165 354.637 305.692 354.95 306.411 354.95ZM314.805 356.112C313.657 356.112 312.78 355.683 312.173 354.824C311.576 353.965 311.277 352.715 311.277 351.072C311.277 349.42 311.576 348.165 312.173 347.306C312.78 346.447 313.657 346.018 314.805 346.018C315.953 346.018 316.826 346.447 317.423 347.306C318.03 348.155 318.333 349.406 318.333 351.058C318.333 352.71 318.03 353.965 317.423 354.824C316.826 355.683 315.953 356.112 314.805 356.112ZM314.805 354.95C315.524 354.95 316.051 354.637 316.387 354.012C316.723 353.387 316.891 352.402 316.891 351.058C316.891 349.714 316.723 348.734 316.387 348.118C316.051 347.493 315.524 347.18 314.805 347.18C314.087 347.18 313.559 347.493 313.223 348.118C312.887 348.734 312.719 349.714 312.719 351.058C312.719 352.393 312.887 353.377 313.223 354.012C313.559 354.637 314.087 354.95 314.805 354.95Z" fill="#2C333A"/>
<path d="M307 332C312.523 332 317 327.523 317 322C317 316.477 312.523 312 307 312C301.477 312 297 316.477 297 322C297 327.523 301.477 332 307 332Z" stroke="#2C333A" stroke-width="2" stroke-linecap="round" stroke-linejoin="round"/>
<path d="M311.24 317.76L309.12 324.12L302.76 326.24L304.88 319.88L311.24 317.76Z" stroke="#2C333A" stroke-width="2" stroke-linecap="round" stroke-linejoin="round"/>
</g>
<line y1="126.008" x2="335.001" y2="126.008" stroke="#2C333A"/>
<line y1="253.008" x2="335.001" y2="253.008" stroke="#2C333A"/>
</g>
<rect x="0.5" y="0.5" width="334" height="380" stroke="#2C333A"/>
<defs>
<clipPath id="clip0_2783_5474">
<rect width="335" height="381" fill="white"/>
</clipPath>
</defs>
</svg>
