<svg width="366" height="463" viewBox="0 0 366 463" fill="none" xmlns="http://www.w3.org/2000/svg">
<g filter="url(#filter0_dd_2732_1956)">
<rect x="8" y="10" width="350" height="443" rx="5" fill="white"/>
</g>
<path d="M33.248 50.112C32.928 50.112 32.704 50.0107 32.576 49.808C32.4587 49.5947 32.4693 49.3387 32.608 49.04L36.944 39.312C37.0507 39.0667 37.184 38.8907 37.344 38.784C37.504 38.6667 37.6907 38.608 37.904 38.608C38.096 38.608 38.272 38.6667 38.432 38.784C38.6027 38.8907 38.7413 39.0667 38.848 39.312L43.184 49.04C43.3227 49.3493 43.3333 49.6053 43.216 49.808C43.1093 50.0107 42.9013 50.112 42.592 50.112C42.3573 50.112 42.1707 50.0533 42.032 49.936C41.8933 49.8187 41.7707 49.6373 41.664 49.392L40.736 47.248H35.024L34.112 49.392C34.0053 49.648 33.888 49.8347 33.76 49.952C33.632 50.0587 33.4613 50.112 33.248 50.112ZM37.872 40.56L35.616 45.904H40.176L37.904 40.56H37.872ZM48.6951 53.024C48.1191 53.024 47.5591 52.9653 47.0151 52.848C46.4818 52.7307 45.9965 52.5387 45.5591 52.272C45.3671 52.1653 45.2498 52.032 45.2071 51.872C45.1645 51.712 45.1805 51.5573 45.2551 51.408C45.3405 51.2587 45.4525 51.1467 45.5911 51.072C45.7405 51.008 45.9005 51.024 46.0711 51.12C46.5405 51.376 46.9831 51.5467 47.3991 51.632C47.8258 51.728 48.2205 51.776 48.5831 51.776C50.0765 51.776 50.8231 51.0293 50.8231 49.536V48.304C50.5991 48.7733 50.2471 49.1413 49.7671 49.408C49.2978 49.6747 48.7698 49.808 48.1831 49.808C47.4791 49.808 46.8658 49.648 46.3431 49.328C45.8205 48.9973 45.4151 48.544 45.1271 47.968C44.8391 47.3813 44.6951 46.6987 44.6951 45.92C44.6951 45.152 44.8391 44.48 45.1271 43.904C45.4151 43.3173 45.8205 42.864 46.3431 42.544C46.8658 42.2133 47.4791 42.048 48.1831 42.048C48.7698 42.048 49.2925 42.1813 49.7511 42.448C50.2205 42.704 50.5671 43.056 50.7911 43.504V42.896C50.7911 42.352 51.0578 42.08 51.5911 42.08C52.1245 42.08 52.3911 42.352 52.3911 42.896V49.344C52.3911 50.5707 52.0765 51.488 51.4471 52.096C50.8178 52.7147 49.9005 53.024 48.6951 53.024ZM48.5671 48.544C49.2498 48.544 49.7938 48.3093 50.1991 47.84C50.6045 47.3707 50.8071 46.7307 50.8071 45.92C50.8071 45.1093 50.6045 44.4747 50.1991 44.016C49.7938 43.5467 49.2498 43.312 48.5671 43.312C47.8845 43.312 47.3405 43.5467 46.9351 44.016C46.5298 44.4747 46.3271 45.1093 46.3271 45.92C46.3271 46.7307 46.5298 47.3707 46.9351 47.84C47.3405 48.3093 47.8845 48.544 48.5671 48.544ZM58.6431 50.144C57.3631 50.144 56.3551 49.7867 55.6191 49.072C54.8831 48.3467 54.5151 47.36 54.5151 46.112C54.5151 45.312 54.6751 44.608 54.9951 44C55.3258 43.3813 55.7791 42.9013 56.3551 42.56C56.9311 42.2187 57.5925 42.048 58.3391 42.048C59.4165 42.048 60.2645 42.3947 60.8831 43.088C61.5018 43.7707 61.8111 44.7147 61.8111 45.92C61.8111 46.2827 61.5978 46.464 61.1711 46.464H56.0831C56.2005 48.0853 57.0591 48.896 58.6591 48.896C58.9791 48.896 59.3151 48.8587 59.6671 48.784C60.0191 48.6987 60.3605 48.5493 60.6911 48.336C60.9151 48.208 61.1071 48.1653 61.2671 48.208C61.4378 48.24 61.5605 48.3307 61.6351 48.48C61.7098 48.6187 61.7205 48.7787 61.6671 48.96C61.6245 49.1307 61.5018 49.28 61.2991 49.408C60.9365 49.6533 60.5098 49.84 60.0191 49.968C59.5391 50.0853 59.0805 50.144 58.6431 50.144ZM58.4031 43.184C57.7311 43.184 57.1978 43.392 56.8031 43.808C56.4085 44.224 56.1685 44.7787 56.0831 45.472H60.4511C60.4191 44.7467 60.2271 44.1867 59.8751 43.792C59.5231 43.3867 59.0325 43.184 58.4031 43.184Z" fill="#333333"/>
<path d="M34.17 86C33.75 86 33.54 85.7947 33.54 85.384C33.54 84.9827 33.75 84.782 34.17 84.782H35.878V77.796L34.562 78.636C34.3847 78.748 34.2167 78.7807 34.058 78.734C33.9087 78.678 33.792 78.58 33.708 78.44C33.6333 78.3 33.61 78.1507 33.638 77.992C33.6753 77.824 33.7827 77.684 33.96 77.572L35.892 76.354C36.0507 76.2607 36.2 76.186 36.34 76.13C36.4893 76.0647 36.6293 76.032 36.76 76.032C36.9187 76.032 37.0493 76.0787 37.152 76.172C37.264 76.2653 37.32 76.41 37.32 76.606V84.782H38.888C39.3173 84.782 39.532 84.9827 39.532 85.384C39.532 85.7947 39.3173 86 38.888 86H34.17ZM45.2245 86.126C44.0299 86.126 43.1059 85.7013 42.4525 84.852C41.8085 84.0027 41.4865 82.8127 41.4865 81.282C41.4865 79.5927 41.8505 78.2907 42.5785 77.376C43.3065 76.4613 44.3145 76.004 45.6025 76.004C46.0132 76.004 46.4379 76.0787 46.8765 76.228C47.3245 76.368 47.7305 76.5827 48.0945 76.872C48.2439 76.9747 48.3279 77.11 48.3465 77.278C48.3652 77.4367 48.3372 77.586 48.2625 77.726C48.1879 77.8567 48.0759 77.9453 47.9265 77.992C47.7865 78.0387 47.6279 78.0013 47.4505 77.88C47.1332 77.6467 46.8159 77.4833 46.4985 77.39C46.1905 77.2873 45.8825 77.236 45.5745 77.236C44.7065 77.236 44.0392 77.5533 43.5725 78.188C43.1152 78.8133 42.8865 79.7513 42.8865 81.002V81.562C43.0732 80.9927 43.3952 80.5493 43.8525 80.232C44.3192 79.9053 44.8559 79.742 45.4625 79.742C46.0412 79.742 46.5499 79.8773 46.9885 80.148C47.4365 80.4187 47.7865 80.792 48.0385 81.268C48.2905 81.7347 48.4165 82.2713 48.4165 82.878C48.4165 83.5127 48.2812 84.0773 48.0105 84.572C47.7399 85.0573 47.3619 85.44 46.8765 85.72C46.4005 85.9907 45.8499 86.126 45.2245 86.126ZM45.1405 84.95C45.7099 84.95 46.1719 84.7633 46.5265 84.39C46.8812 84.0167 47.0585 83.5313 47.0585 82.934C47.0585 82.3367 46.8812 81.8513 46.5265 81.478C46.1719 81.1047 45.7099 80.918 45.1405 80.918C44.5712 80.918 44.1092 81.1047 43.7545 81.478C43.3999 81.8513 43.2225 82.3367 43.2225 82.934C43.2225 83.5313 43.3999 84.0167 43.7545 84.39C44.1092 84.7633 44.5712 84.95 45.1405 84.95ZM50.8191 82.836C50.6511 82.836 50.5111 82.78 50.3991 82.668C50.2871 82.556 50.2311 82.4207 50.2311 82.262C50.2311 82.094 50.2871 81.9587 50.3991 81.856C50.5111 81.744 50.6511 81.688 50.8191 81.688H53.8991C54.0577 81.688 54.1931 81.744 54.3051 81.856C54.4171 81.9587 54.4731 82.094 54.4731 82.262C54.4731 82.4207 54.4171 82.556 54.3051 82.668C54.1931 82.78 54.0577 82.836 53.8991 82.836H50.8191ZM57.465 86C56.989 86 56.751 85.7807 56.751 85.342C56.751 85.1087 56.877 84.8567 57.129 84.586L60.111 81.394C60.5683 80.9087 60.895 80.4653 61.091 80.064C61.2963 79.6533 61.399 79.2427 61.399 78.832C61.399 77.768 60.7737 77.236 59.523 77.236C59.1497 77.236 58.7857 77.292 58.431 77.404C58.0857 77.516 57.745 77.698 57.409 77.95C57.241 78.0713 57.0823 78.1133 56.933 78.076C56.793 78.0293 56.681 77.936 56.597 77.796C56.5223 77.656 56.4943 77.5067 56.513 77.348C56.541 77.18 56.639 77.0353 56.807 76.914C57.1897 76.6247 57.633 76.4007 58.137 76.242C58.641 76.0833 59.1543 76.004 59.677 76.004C60.6943 76.004 61.4737 76.2373 62.015 76.704C62.5657 77.1707 62.841 77.838 62.841 78.706C62.841 79.294 62.6963 79.868 62.407 80.428C62.127 80.988 61.6837 81.5853 61.077 82.22L58.627 84.782H62.701C63.1303 84.782 63.345 84.9827 63.345 85.384C63.345 85.7947 63.1303 86 62.701 86H57.465ZM70.1295 86.098C69.9055 86.098 69.7282 86.0373 69.5975 85.916C69.4669 85.7853 69.4015 85.608 69.4015 85.384V83.998H65.6495C65.4162 83.998 65.2295 83.9467 65.0895 83.844C64.9495 83.7413 64.8795 83.5873 64.8795 83.382C64.8795 83.2513 64.9122 83.116 64.9775 82.976C65.0429 82.836 65.1502 82.654 65.2995 82.43L69.3735 76.508C69.4762 76.3493 69.5929 76.2327 69.7235 76.158C69.8542 76.074 70.0035 76.032 70.1715 76.032C70.3675 76.032 70.5262 76.0927 70.6475 76.214C70.7782 76.326 70.8435 76.5033 70.8435 76.746V82.78H71.7255C72.1642 82.78 72.3835 82.9807 72.3835 83.382C72.3835 83.7927 72.1642 83.998 71.7255 83.998H70.8435V85.384C70.8435 85.86 70.6055 86.098 70.1295 86.098ZM69.4015 82.78V78.384L66.3915 82.78H69.4015Z" fill="#333333"/>
<rect x="89" y="77.5" width="247" height="8" rx="4" fill="#F4F4F4"/>
<rect x="89" y="77.5" width="109" height="8" rx="4" fill="#D982AA"/>
<path d="M33.834 121C33.358 121 33.12 120.781 33.12 120.342C33.12 120.109 33.246 119.857 33.498 119.586L36.48 116.394C36.9373 115.909 37.264 115.465 37.46 115.064C37.6653 114.653 37.768 114.243 37.768 113.832C37.768 112.768 37.1427 112.236 35.892 112.236C35.5187 112.236 35.1547 112.292 34.8 112.404C34.4547 112.516 34.114 112.698 33.778 112.95C33.61 113.071 33.4513 113.113 33.302 113.076C33.162 113.029 33.05 112.936 32.966 112.796C32.8913 112.656 32.8633 112.507 32.882 112.348C32.91 112.18 33.008 112.035 33.176 111.914C33.5587 111.625 34.002 111.401 34.506 111.242C35.01 111.083 35.5233 111.004 36.046 111.004C37.0633 111.004 37.8427 111.237 38.384 111.704C38.9347 112.171 39.21 112.838 39.21 113.706C39.21 114.294 39.0653 114.868 38.776 115.428C38.496 115.988 38.0527 116.585 37.446 117.22L34.996 119.782H39.07C39.4993 119.782 39.714 119.983 39.714 120.384C39.714 120.795 39.4993 121 39.07 121H33.834ZM45.0285 121.126C44.5059 121.126 43.9832 121.056 43.4605 120.916C42.9472 120.767 42.4759 120.538 42.0465 120.23C41.8692 120.118 41.7619 119.978 41.7245 119.81C41.6965 119.642 41.7199 119.493 41.7945 119.362C41.8785 119.222 41.9952 119.129 42.1445 119.082C42.3032 119.026 42.4759 119.059 42.6625 119.18C43.3812 119.656 44.1605 119.894 45.0005 119.894C45.6445 119.894 46.1485 119.721 46.5125 119.376C46.8765 119.021 47.0585 118.559 47.0585 117.99C47.0585 117.402 46.8859 116.921 46.5405 116.548C46.1952 116.175 45.7145 115.988 45.0985 115.988C44.7439 115.988 44.4079 116.053 44.0905 116.184C43.7825 116.305 43.4932 116.511 43.2225 116.8C43.1479 116.875 43.0545 116.945 42.9425 117.01C42.8399 117.066 42.7279 117.094 42.6065 117.094C42.2052 117.094 42.0045 116.903 42.0045 116.52V111.774C42.0045 111.345 42.2192 111.13 42.6485 111.13H47.3385C47.7679 111.13 47.9825 111.331 47.9825 111.732C47.9825 112.143 47.7679 112.348 47.3385 112.348H43.4185V115.47C43.9412 115.013 44.6039 114.784 45.4065 114.784C46.0319 114.784 46.5732 114.915 47.0305 115.176C47.4879 115.437 47.8425 115.806 48.0945 116.282C48.3465 116.749 48.4725 117.295 48.4725 117.92C48.4725 118.555 48.3325 119.115 48.0525 119.6C47.7725 120.076 47.3759 120.449 46.8625 120.72C46.3492 120.991 45.7379 121.126 45.0285 121.126ZM50.8191 117.836C50.6511 117.836 50.5111 117.78 50.3991 117.668C50.2871 117.556 50.2311 117.421 50.2311 117.262C50.2311 117.094 50.2871 116.959 50.3991 116.856C50.5111 116.744 50.6511 116.688 50.8191 116.688H53.8991C54.0577 116.688 54.1931 116.744 54.3051 116.856C54.4171 116.959 54.4731 117.094 54.4731 117.262C54.4731 117.421 54.4171 117.556 54.3051 117.668C54.1931 117.78 54.0577 117.836 53.8991 117.836H50.8191ZM59.677 121.126C59.1543 121.126 58.6177 121.056 58.067 120.916C57.5257 120.776 57.059 120.557 56.667 120.258C56.4803 120.137 56.3683 119.992 56.331 119.824C56.2937 119.656 56.3123 119.507 56.387 119.376C56.4617 119.236 56.5783 119.143 56.737 119.096C56.8957 119.049 57.073 119.087 57.269 119.208C57.6703 119.451 58.0623 119.628 58.445 119.74C58.8277 119.843 59.2243 119.894 59.635 119.894C60.307 119.894 60.8157 119.749 61.161 119.46C61.5157 119.171 61.693 118.755 61.693 118.214C61.693 117.673 61.5157 117.271 61.161 117.01C60.8157 116.749 60.3117 116.618 59.649 116.618H58.697C58.2583 116.618 58.039 116.413 58.039 116.002C58.039 115.601 58.2583 115.4 58.697 115.4H59.509C60.097 115.4 60.559 115.251 60.895 114.952C61.2403 114.653 61.413 114.243 61.413 113.72C61.413 113.244 61.2543 112.88 60.937 112.628C60.6197 112.367 60.167 112.236 59.579 112.236C59.187 112.236 58.823 112.287 58.487 112.39C58.151 112.493 57.801 112.675 57.437 112.936C57.2597 113.048 57.0963 113.085 56.947 113.048C56.7977 113.001 56.681 112.913 56.597 112.782C56.5223 112.642 56.499 112.493 56.527 112.334C56.555 112.166 56.6577 112.021 56.835 111.9C57.227 111.611 57.6657 111.391 58.151 111.242C58.6457 111.083 59.159 111.004 59.691 111.004C60.6803 111.004 61.4503 111.233 62.001 111.69C62.5517 112.138 62.827 112.763 62.827 113.566C62.827 114.107 62.687 114.583 62.407 114.994C62.1363 115.405 61.7583 115.703 61.273 115.89C61.861 116.039 62.3137 116.329 62.631 116.758C62.9483 117.178 63.107 117.696 63.107 118.312C63.107 119.18 62.799 119.866 62.183 120.37C61.5763 120.874 60.741 121.126 59.677 121.126ZM68.5055 121.126C67.3762 121.126 66.4942 120.883 65.8595 120.398C65.2342 119.913 64.9215 119.236 64.9215 118.368C64.9215 117.761 65.0802 117.248 65.3975 116.828C65.7242 116.399 66.1489 116.105 66.6715 115.946C66.2049 115.75 65.8362 115.451 65.5655 115.05C65.2949 114.639 65.1595 114.168 65.1595 113.636C65.1595 112.815 65.4629 112.171 66.0695 111.704C66.6762 111.237 67.4882 111.004 68.5055 111.004C69.5322 111.004 70.3489 111.237 70.9555 111.704C71.5622 112.171 71.8655 112.815 71.8655 113.636C71.8655 114.168 71.7255 114.639 71.4455 115.05C71.1749 115.461 70.8062 115.759 70.3395 115.946C70.8715 116.105 71.2962 116.399 71.6135 116.828C71.9309 117.248 72.0895 117.761 72.0895 118.368C72.0895 119.236 71.7722 119.913 71.1375 120.398C70.5122 120.883 69.6349 121.126 68.5055 121.126ZM68.5055 115.428C69.1309 115.428 69.6162 115.283 69.9615 114.994C70.3162 114.695 70.4935 114.289 70.4935 113.776C70.4935 113.272 70.3162 112.875 69.9615 112.586C69.6162 112.297 69.1309 112.152 68.5055 112.152C67.8802 112.152 67.3949 112.297 67.0495 112.586C66.7042 112.875 66.5315 113.272 66.5315 113.776C66.5315 114.289 66.7042 114.695 67.0495 114.994C67.3949 115.283 67.8802 115.428 68.5055 115.428ZM68.5055 119.978C69.9895 119.978 70.7315 119.409 70.7315 118.27C70.7315 117.141 69.9895 116.576 68.5055 116.576C67.7775 116.576 67.2222 116.716 66.8395 116.996C66.4662 117.276 66.2795 117.701 66.2795 118.27C66.2795 119.409 67.0215 119.978 68.5055 119.978Z" fill="#333333"/>
<rect x="89" y="112.25" width="247" height="8" rx="4" fill="#F4F4F4"/>
<rect x="89" y="112.75" width="170" height="8" rx="4" fill="#D982AA"/>
<path d="M36.046 156.126C35.5233 156.126 34.9867 156.056 34.436 155.916C33.8947 155.776 33.428 155.557 33.036 155.258C32.8493 155.137 32.7373 154.992 32.7 154.824C32.6627 154.656 32.6813 154.507 32.756 154.376C32.8307 154.236 32.9473 154.143 33.106 154.096C33.2647 154.049 33.442 154.087 33.638 154.208C34.0393 154.451 34.4313 154.628 34.814 154.74C35.1967 154.843 35.5933 154.894 36.004 154.894C36.676 154.894 37.1847 154.749 37.53 154.46C37.8847 154.171 38.062 153.755 38.062 153.214C38.062 152.673 37.8847 152.271 37.53 152.01C37.1847 151.749 36.6807 151.618 36.018 151.618H35.066C34.6273 151.618 34.408 151.413 34.408 151.002C34.408 150.601 34.6273 150.4 35.066 150.4H35.878C36.466 150.4 36.928 150.251 37.264 149.952C37.6093 149.653 37.782 149.243 37.782 148.72C37.782 148.244 37.6233 147.88 37.306 147.628C36.9887 147.367 36.536 147.236 35.948 147.236C35.556 147.236 35.192 147.287 34.856 147.39C34.52 147.493 34.17 147.675 33.806 147.936C33.6287 148.048 33.4653 148.085 33.316 148.048C33.1667 148.001 33.05 147.913 32.966 147.782C32.8913 147.642 32.868 147.493 32.896 147.334C32.924 147.166 33.0267 147.021 33.204 146.9C33.596 146.611 34.0347 146.391 34.52 146.242C35.0147 146.083 35.528 146.004 36.06 146.004C37.0493 146.004 37.8193 146.233 38.37 146.69C38.9207 147.138 39.196 147.763 39.196 148.566C39.196 149.107 39.056 149.583 38.776 149.994C38.5053 150.405 38.1273 150.703 37.642 150.89C38.23 151.039 38.6827 151.329 39 151.758C39.3173 152.178 39.476 152.696 39.476 153.312C39.476 154.18 39.168 154.866 38.552 155.37C37.9453 155.874 37.11 156.126 36.046 156.126ZM44.1465 156.126C43.7359 156.126 43.3065 156.051 42.8585 155.902C42.4199 155.753 42.0185 155.538 41.6545 155.258C41.5052 155.146 41.4212 155.011 41.4025 154.852C41.3839 154.693 41.4119 154.549 41.4865 154.418C41.5612 154.278 41.6685 154.185 41.8085 154.138C41.9579 154.091 42.1212 154.124 42.2985 154.236C42.6159 154.469 42.9285 154.637 43.2365 154.74C43.5539 154.843 43.8665 154.894 44.1745 154.894C45.0425 154.894 45.7052 154.581 46.1625 153.956C46.6292 153.321 46.8625 152.379 46.8625 151.128V150.568C46.6759 151.137 46.3492 151.585 45.8825 151.912C45.4252 152.229 44.8932 152.388 44.2865 152.388C43.7079 152.388 43.1945 152.253 42.7465 151.982C42.3079 151.711 41.9625 151.343 41.7105 150.876C41.4585 150.4 41.3325 149.859 41.3325 149.252C41.3325 148.617 41.4679 148.057 41.7385 147.572C42.0092 147.077 42.3825 146.695 42.8585 146.424C43.3439 146.144 43.8992 146.004 44.5245 146.004C45.7192 146.004 46.6385 146.429 47.2825 147.278C47.9359 148.127 48.2625 149.317 48.2625 150.848C48.2625 152.537 47.8985 153.839 47.1705 154.754C46.4425 155.669 45.4345 156.126 44.1465 156.126ZM44.6225 151.198C45.1919 151.198 45.6539 151.011 46.0085 150.638C46.3632 150.265 46.5405 149.779 46.5405 149.182C46.5405 148.585 46.3632 148.099 46.0085 147.726C45.6539 147.353 45.1919 147.166 44.6225 147.166C44.0532 147.166 43.5912 147.353 43.2365 147.726C42.8819 148.099 42.7045 148.585 42.7045 149.182C42.7045 149.779 42.8819 150.265 43.2365 150.638C43.5912 151.011 44.0532 151.198 44.6225 151.198ZM50.8191 152.836C50.6511 152.836 50.5111 152.78 50.3991 152.668C50.2871 152.556 50.2311 152.421 50.2311 152.262C50.2311 152.094 50.2871 151.959 50.3991 151.856C50.5111 151.744 50.6511 151.688 50.8191 151.688H53.8991C54.0577 151.688 54.1931 151.744 54.3051 151.856C54.4171 151.959 54.4731 152.094 54.4731 152.262C54.4731 152.421 54.4171 152.556 54.3051 152.668C54.1931 152.78 54.0577 152.836 53.8991 152.836H50.8191ZM59.985 156.126C59.4623 156.126 58.9397 156.056 58.417 155.916C57.9037 155.767 57.4323 155.538 57.003 155.23C56.8257 155.118 56.7183 154.978 56.681 154.81C56.653 154.642 56.6763 154.493 56.751 154.362C56.835 154.222 56.9517 154.129 57.101 154.082C57.2597 154.026 57.4323 154.059 57.619 154.18C58.3377 154.656 59.117 154.894 59.957 154.894C60.601 154.894 61.105 154.721 61.469 154.376C61.833 154.021 62.015 153.559 62.015 152.99C62.015 152.402 61.8423 151.921 61.497 151.548C61.1517 151.175 60.671 150.988 60.055 150.988C59.7003 150.988 59.3643 151.053 59.047 151.184C58.739 151.305 58.4497 151.511 58.179 151.8C58.1043 151.875 58.011 151.945 57.899 152.01C57.7963 152.066 57.6843 152.094 57.563 152.094C57.1617 152.094 56.961 151.903 56.961 151.52V146.774C56.961 146.345 57.1757 146.13 57.605 146.13H62.295C62.7243 146.13 62.939 146.331 62.939 146.732C62.939 147.143 62.7243 147.348 62.295 147.348H58.375V150.47C58.8977 150.013 59.5603 149.784 60.363 149.784C60.9883 149.784 61.5297 149.915 61.987 150.176C62.4443 150.437 62.799 150.806 63.051 151.282C63.303 151.749 63.429 152.295 63.429 152.92C63.429 153.555 63.289 154.115 63.009 154.6C62.729 155.076 62.3323 155.449 61.819 155.72C61.3057 155.991 60.6943 156.126 59.985 156.126ZM68.6595 156.126C68.1369 156.126 67.6142 156.056 67.0915 155.916C66.5782 155.767 66.1069 155.538 65.6775 155.23C65.5002 155.118 65.3929 154.978 65.3555 154.81C65.3275 154.642 65.3509 154.493 65.4255 154.362C65.5095 154.222 65.6262 154.129 65.7755 154.082C65.9342 154.026 66.1069 154.059 66.2935 154.18C67.0122 154.656 67.7915 154.894 68.6315 154.894C69.2755 154.894 69.7795 154.721 70.1435 154.376C70.5075 154.021 70.6895 153.559 70.6895 152.99C70.6895 152.402 70.5169 151.921 70.1715 151.548C69.8262 151.175 69.3455 150.988 68.7295 150.988C68.3749 150.988 68.0389 151.053 67.7215 151.184C67.4135 151.305 67.1242 151.511 66.8535 151.8C66.7789 151.875 66.6855 151.945 66.5735 152.01C66.4709 152.066 66.3589 152.094 66.2375 152.094C65.8362 152.094 65.6355 151.903 65.6355 151.52V146.774C65.6355 146.345 65.8502 146.13 66.2795 146.13H70.9695C71.3989 146.13 71.6135 146.331 71.6135 146.732C71.6135 147.143 71.3989 147.348 70.9695 147.348H67.0495V150.47C67.5722 150.013 68.2349 149.784 69.0375 149.784C69.6629 149.784 70.2042 149.915 70.6615 150.176C71.1189 150.437 71.4735 150.806 71.7255 151.282C71.9775 151.749 72.1035 152.295 72.1035 152.92C72.1035 153.555 71.9635 154.115 71.6835 154.6C71.4035 155.076 71.0069 155.449 70.4935 155.72C69.9802 155.991 69.3689 156.126 68.6595 156.126Z" fill="#333333"/>
<rect x="89" y="147.25" width="247" height="8" rx="4" fill="#F4F4F4"/>
<rect x="89" y="147.75" width="82" height="8" rx="4" fill="#D982AA"/>
<path d="M37.432 191.126C36.4893 191.126 35.6727 190.921 34.982 190.51C34.2913 190.09 33.7547 189.502 33.372 188.746C32.9987 187.981 32.812 187.085 32.812 186.058C32.812 185.022 32.9987 184.126 33.372 183.37C33.7547 182.614 34.2913 182.031 34.982 181.62C35.6727 181.209 36.4893 181.004 37.432 181.004C38.3653 181.004 39.1773 181.209 39.868 181.62C40.568 182.031 41.1047 182.614 41.478 183.37C41.8607 184.126 42.052 185.017 42.052 186.044C42.052 187.08 41.8607 187.981 41.478 188.746C41.1047 189.502 40.568 190.09 39.868 190.51C39.1773 190.921 38.3653 191.126 37.432 191.126ZM37.432 189.866C38.412 189.866 39.1727 189.535 39.714 188.872C40.2647 188.2 40.54 187.262 40.54 186.058C40.54 184.854 40.2693 183.921 39.728 183.258C39.1867 182.595 38.4213 182.264 37.432 182.264C36.452 182.264 35.6867 182.595 35.136 183.258C34.5947 183.921 34.324 184.854 34.324 186.058C34.324 187.262 34.5947 188.2 35.136 188.872C35.6867 189.535 36.452 189.866 37.432 189.866ZM47.0415 191.126C46.1828 191.126 45.5435 190.907 45.1235 190.468C44.7035 190.029 44.4935 189.395 44.4935 188.564V185.26H43.6535C43.2615 185.26 43.0655 185.078 43.0655 184.714C43.0655 184.35 43.2615 184.168 43.6535 184.168H44.4935V182.726C44.4935 182.25 44.7315 182.012 45.2075 182.012C45.6741 182.012 45.9075 182.25 45.9075 182.726V184.168H47.5455C47.9375 184.168 48.1335 184.35 48.1335 184.714C48.1335 185.078 47.9375 185.26 47.5455 185.26H45.9075V188.452C45.9075 188.947 46.0101 189.32 46.2155 189.572C46.4301 189.824 46.7755 189.95 47.2515 189.95C47.4195 189.95 47.5641 189.936 47.6855 189.908C47.8068 189.871 47.9141 189.847 48.0075 189.838C48.1101 189.838 48.1941 189.875 48.2595 189.95C48.3248 190.015 48.3575 190.146 48.3575 190.342C48.3575 190.491 48.3295 190.627 48.2735 190.748C48.2268 190.86 48.1381 190.935 48.0075 190.972C47.8955 191.019 47.7415 191.056 47.5455 191.084C47.3588 191.112 47.1908 191.126 47.0415 191.126ZM50.3458 191.098C49.8791 191.098 49.6458 190.86 49.6458 190.384V181.746C49.6458 181.27 49.8791 181.032 50.3458 181.032C50.8218 181.032 51.0598 181.27 51.0598 181.746V185.232C51.2931 184.84 51.6058 184.546 51.9978 184.35C52.3991 184.145 52.8471 184.042 53.3418 184.042C54.9565 184.042 55.7638 184.957 55.7638 186.786V190.384C55.7638 190.86 55.5305 191.098 55.0638 191.098C54.5878 191.098 54.3498 190.86 54.3498 190.384V186.87C54.3498 186.282 54.2331 185.853 53.9998 185.582C53.7758 185.311 53.4211 185.176 52.9358 185.176C52.3665 185.176 51.9091 185.358 51.5638 185.722C51.2278 186.077 51.0598 186.548 51.0598 187.136V190.384C51.0598 190.86 50.8218 191.098 50.3458 191.098ZM61.1982 191.126C60.0782 191.126 59.1962 190.813 58.5522 190.188C57.9082 189.553 57.5862 188.69 57.5862 187.598C57.5862 186.898 57.7262 186.282 58.0062 185.75C58.2955 185.209 58.6922 184.789 59.1962 184.49C59.7002 184.191 60.2789 184.042 60.9322 184.042C61.8749 184.042 62.6169 184.345 63.1582 184.952C63.6995 185.549 63.9702 186.375 63.9702 187.43C63.9702 187.747 63.7835 187.906 63.4102 187.906H58.9582C59.0609 189.325 59.8122 190.034 61.2122 190.034C61.4922 190.034 61.7862 190.001 62.0942 189.936C62.4022 189.861 62.7009 189.731 62.9902 189.544C63.1862 189.432 63.3542 189.395 63.4942 189.432C63.6435 189.46 63.7509 189.539 63.8162 189.67C63.8815 189.791 63.8909 189.931 63.8442 190.09C63.8069 190.239 63.6995 190.37 63.5222 190.482C63.2049 190.697 62.8315 190.86 62.4022 190.972C61.9822 191.075 61.5809 191.126 61.1982 191.126ZM60.9882 185.036C60.4002 185.036 59.9335 185.218 59.5882 185.582C59.2429 185.946 59.0329 186.431 58.9582 187.038H62.7802C62.7522 186.403 62.5842 185.913 62.2762 185.568C61.9682 185.213 61.5389 185.036 60.9882 185.036ZM66.5057 191.098C66.0297 191.098 65.7917 190.86 65.7917 190.384V184.784C65.7917 184.308 66.0204 184.07 66.4777 184.07C66.9351 184.07 67.1637 184.308 67.1637 184.784V185.386C67.3504 184.966 67.6304 184.644 68.0037 184.42C68.3864 184.196 68.8484 184.065 69.3897 184.028C69.7351 184 69.9217 184.187 69.9497 184.588C69.9871 184.999 69.7864 185.223 69.3477 185.26L69.0817 185.288C67.8404 185.409 67.2197 186.049 67.2197 187.206V190.384C67.2197 190.86 66.9817 191.098 66.5057 191.098ZM73.62 191.126C73.2094 191.126 72.7847 191.079 72.346 190.986C71.9074 190.893 71.5107 190.734 71.156 190.51C70.9974 190.417 70.8994 190.3 70.862 190.16C70.8247 190.02 70.834 189.889 70.89 189.768C70.946 189.647 71.0347 189.563 71.156 189.516C71.2867 189.46 71.4314 189.474 71.59 189.558C71.954 189.754 72.304 189.894 72.64 189.978C72.976 190.062 73.3074 190.104 73.634 190.104C74.1287 190.104 74.502 190.015 74.754 189.838C75.006 189.661 75.132 189.423 75.132 189.124C75.132 188.881 75.048 188.695 74.88 188.564C74.712 188.424 74.46 188.317 74.124 188.242L72.794 187.976C71.618 187.733 71.03 187.127 71.03 186.156C71.03 185.512 71.2867 184.999 71.8 184.616C72.3134 184.233 72.9854 184.042 73.816 184.042C74.656 184.042 75.3794 184.247 75.986 184.658C76.1354 184.751 76.224 184.868 76.252 185.008C76.28 185.139 76.2614 185.265 76.196 185.386C76.1307 185.498 76.0327 185.577 75.902 185.624C75.7807 185.671 75.636 185.652 75.468 185.568C75.188 185.4 74.908 185.279 74.628 185.204C74.348 185.12 74.0774 185.078 73.816 185.078C73.3307 185.078 72.962 185.171 72.71 185.358C72.458 185.535 72.332 185.778 72.332 186.086C72.332 186.553 72.64 186.851 73.256 186.982L74.586 187.248C75.1927 187.369 75.65 187.575 75.958 187.864C76.2754 188.153 76.434 188.545 76.434 189.04C76.434 189.693 76.1774 190.207 75.664 190.58C75.1507 190.944 74.4694 191.126 73.62 191.126Z" fill="#333333"/>
<rect x="94" y="182.125" width="242" height="8" rx="4" fill="#F4F4F4"/>
<rect x="94" y="182.875" width="35" height="8" rx="4" fill="#D982AA"/>
<path d="M38.592 284.144C37.3653 284.144 36.3307 283.915 35.488 283.456C34.6453 282.987 34.0053 282.32 33.568 281.456C33.1413 280.592 32.928 279.563 32.928 278.368C32.928 277.184 33.1467 276.16 33.584 275.296C34.0213 274.421 34.656 273.749 35.488 273.28C36.32 272.811 37.3173 272.576 38.48 272.576C39.12 272.576 39.744 272.661 40.352 272.832C40.9707 272.992 41.5413 273.259 42.064 273.632C42.2453 273.76 42.3467 273.92 42.368 274.112C42.4 274.293 42.368 274.469 42.272 274.64C42.1867 274.8 42.0587 274.912 41.888 274.976C41.7173 275.029 41.5253 274.992 41.312 274.864C40.896 274.576 40.4587 274.368 40 274.24C39.5413 274.101 39.0347 274.032 38.48 274.032C37.232 274.032 36.2827 274.411 35.632 275.168C34.9813 275.915 34.656 276.981 34.656 278.368C34.656 279.787 34.9867 280.864 35.648 281.6C36.32 282.336 37.3227 282.704 38.656 282.704C39.4667 282.704 40.272 282.571 41.072 282.304V279.28H39.008C38.5493 279.28 38.32 279.067 38.32 278.64C38.32 278.235 38.5493 278.032 39.008 278.032H41.776C42.2347 278.032 42.464 278.261 42.464 278.72V282.752C42.464 283.157 42.3147 283.419 42.016 283.536C41.5573 283.717 41.0187 283.867 40.4 283.984C39.7813 284.091 39.1787 284.144 38.592 284.144ZM48.8231 284.144C47.5431 284.144 46.5351 283.787 45.7991 283.072C45.0631 282.347 44.6951 281.36 44.6951 280.112C44.6951 279.312 44.8551 278.608 45.1751 278C45.5058 277.381 45.9591 276.901 46.5351 276.56C47.1111 276.219 47.7725 276.048 48.5191 276.048C49.5965 276.048 50.4445 276.395 51.0631 277.088C51.6818 277.771 51.9911 278.715 51.9911 279.92C51.9911 280.283 51.7778 280.464 51.3511 280.464H46.2631C46.3805 282.085 47.2391 282.896 48.8391 282.896C49.1591 282.896 49.4951 282.859 49.8471 282.784C50.1991 282.699 50.5405 282.549 50.8711 282.336C51.0951 282.208 51.2871 282.165 51.4471 282.208C51.6178 282.24 51.7405 282.331 51.8151 282.48C51.8898 282.619 51.9005 282.779 51.8471 282.96C51.8045 283.131 51.6818 283.28 51.4791 283.408C51.1165 283.653 50.6898 283.84 50.1991 283.968C49.7191 284.085 49.2605 284.144 48.8231 284.144ZM48.5831 277.184C47.9111 277.184 47.3778 277.392 46.9831 277.808C46.5885 278.224 46.3485 278.779 46.2631 279.472H50.6311C50.5991 278.747 50.4071 278.187 50.0551 277.792C49.7031 277.387 49.2125 277.184 48.5831 277.184ZM54.8729 284.112C54.3395 284.112 54.0729 283.84 54.0729 283.296V276.896C54.0729 276.352 54.3342 276.08 54.8569 276.08C55.3795 276.08 55.6409 276.352 55.6409 276.896V277.488C55.9075 277.019 56.2702 276.661 56.7289 276.416C57.1982 276.171 57.7209 276.048 58.2969 276.048C60.1422 276.048 61.0649 277.093 61.0649 279.184V283.296C61.0649 283.84 60.7982 284.112 60.2649 284.112C59.7209 284.112 59.4489 283.84 59.4489 283.296V279.28C59.4489 278.608 59.3155 278.117 59.0489 277.808C58.7929 277.499 58.3875 277.344 57.8329 277.344C57.1822 277.344 56.6595 277.552 56.2649 277.968C55.8809 278.373 55.6889 278.912 55.6889 279.584V283.296C55.6889 283.84 55.4169 284.112 54.8729 284.112ZM66.5876 284.144C65.905 284.144 65.3023 283.984 64.7796 283.664C64.2676 283.333 63.8676 282.864 63.5796 282.256C63.2916 281.648 63.1476 280.928 63.1476 280.096C63.1476 279.264 63.2916 278.549 63.5796 277.952C63.8676 277.344 64.2676 276.875 64.7796 276.544C65.2916 276.213 65.8943 276.048 66.5876 276.048C67.1743 276.048 67.697 276.176 68.1556 276.432C68.6143 276.688 68.9556 277.035 69.1796 277.472V273.424C69.1796 272.88 69.4463 272.608 69.9796 272.608C70.5236 272.608 70.7956 272.88 70.7956 273.424V283.296C70.7956 283.84 70.529 284.112 69.9956 284.112C69.4623 284.112 69.1956 283.84 69.1956 283.296V282.688C68.961 283.136 68.6143 283.493 68.1556 283.76C67.697 284.016 67.1743 284.144 66.5876 284.144ZM67.0036 282.896C67.665 282.896 68.1983 282.656 68.6036 282.176C69.009 281.696 69.2116 281.003 69.2116 280.096C69.2116 279.189 69.009 278.501 68.6036 278.032C68.1983 277.552 67.665 277.312 67.0036 277.312C66.3316 277.312 65.793 277.552 65.3876 278.032C64.9823 278.501 64.7796 279.189 64.7796 280.096C64.7796 281.003 64.9823 281.696 65.3876 282.176C65.793 282.656 66.3316 282.896 67.0036 282.896ZM77.0487 284.144C75.7687 284.144 74.7607 283.787 74.0247 283.072C73.2887 282.347 72.9207 281.36 72.9207 280.112C72.9207 279.312 73.0807 278.608 73.4007 278C73.7314 277.381 74.1847 276.901 74.7607 276.56C75.3367 276.219 75.9981 276.048 76.7447 276.048C77.8221 276.048 78.6701 276.395 79.2887 277.088C79.9074 277.771 80.2167 278.715 80.2167 279.92C80.2167 280.283 80.0034 280.464 79.5767 280.464H74.4887C74.6061 282.085 75.4647 282.896 77.0647 282.896C77.3847 282.896 77.7207 282.859 78.0727 282.784C78.4247 282.699 78.7661 282.549 79.0967 282.336C79.3207 282.208 79.5127 282.165 79.6727 282.208C79.8434 282.24 79.9661 282.331 80.0407 282.48C80.1154 282.619 80.1261 282.779 80.0727 282.96C80.0301 283.131 79.9074 283.28 79.7047 283.408C79.3421 283.653 78.9154 283.84 78.4247 283.968C77.9447 284.085 77.4861 284.144 77.0487 284.144ZM76.8087 277.184C76.1367 277.184 75.6034 277.392 75.2087 277.808C74.8141 278.224 74.5741 278.779 74.4887 279.472H78.8567C78.8247 278.747 78.6327 278.187 78.2807 277.792C77.9287 277.387 77.4381 277.184 76.8087 277.184ZM83.1145 284.112C82.5705 284.112 82.2985 283.84 82.2985 283.296V276.896C82.2985 276.352 82.5598 276.08 83.0825 276.08C83.6052 276.08 83.8665 276.352 83.8665 276.896V277.584C84.0798 277.104 84.3998 276.736 84.8265 276.48C85.2638 276.224 85.7918 276.075 86.4105 276.032C86.8052 276 87.0185 276.213 87.0505 276.672C87.0932 277.141 86.8638 277.397 86.3625 277.44L86.0585 277.472C84.6398 277.611 83.9305 278.341 83.9305 279.664V283.296C83.9305 283.84 83.6585 284.112 83.1145 284.112Z" fill="#333333"/>
<path d="M33.848 320.098C33.4 320.098 33.176 319.869 33.176 319.412V310.718C33.176 310.261 33.4 310.032 33.848 310.032C34.044 310.032 34.1933 310.069 34.296 310.144C34.408 310.219 34.5107 310.34 34.604 310.508L38.048 316.948L41.492 310.508C41.5853 310.34 41.6833 310.219 41.786 310.144C41.898 310.069 42.0473 310.032 42.234 310.032C42.6633 310.032 42.878 310.261 42.878 310.718V319.412C42.878 319.869 42.6633 320.098 42.234 320.098C41.7953 320.098 41.576 319.869 41.576 319.412V312.776L38.636 318.194C38.5613 318.334 38.482 318.437 38.398 318.502C38.314 318.567 38.1973 318.6 38.048 318.6C37.8893 318.6 37.7633 318.567 37.67 318.502C37.586 318.427 37.5067 318.325 37.432 318.194L34.492 312.79V319.412C34.492 319.869 34.2773 320.098 33.848 320.098ZM47.5166 320.126C47.0406 320.126 46.6159 320.033 46.2426 319.846C45.8693 319.659 45.5706 319.407 45.3466 319.09C45.1319 318.773 45.0246 318.413 45.0246 318.012C45.0246 317.508 45.1506 317.111 45.4026 316.822C45.6639 316.533 46.0886 316.323 46.6766 316.192C47.2739 316.061 48.0766 315.996 49.0846 315.996H49.5606V315.632C49.5606 315.1 49.4486 314.717 49.2246 314.484C49.0006 314.251 48.6319 314.134 48.1186 314.134C47.8199 314.134 47.5073 314.171 47.1806 314.246C46.8633 314.321 46.5319 314.447 46.1866 314.624C45.9906 314.717 45.8273 314.731 45.6966 314.666C45.5753 314.601 45.4913 314.498 45.4446 314.358C45.3979 314.218 45.4026 314.073 45.4586 313.924C45.5146 313.775 45.6313 313.663 45.8086 313.588C46.2193 313.401 46.6253 313.266 47.0266 313.182C47.4279 313.089 47.8059 313.042 48.1606 313.042C49.0939 313.042 49.7846 313.266 50.2326 313.714C50.6806 314.153 50.9046 314.843 50.9046 315.786V319.384C50.9046 319.86 50.6853 320.098 50.2466 320.098C49.7986 320.098 49.5746 319.86 49.5746 319.384V318.866C49.4066 319.258 49.1453 319.566 48.7906 319.79C48.4359 320.014 48.0113 320.126 47.5166 320.126ZM47.7966 319.118C48.3006 319.118 48.7206 318.941 49.0566 318.586C49.3926 318.231 49.5606 317.783 49.5606 317.242V316.864H49.0986C48.4173 316.864 47.8806 316.897 47.4886 316.962C47.1059 317.027 46.8306 317.139 46.6626 317.298C46.5039 317.447 46.4246 317.657 46.4246 317.928C46.4246 318.283 46.5459 318.572 46.7886 318.796C47.0313 319.011 47.3673 319.118 47.7966 319.118ZM55.3301 320.126C54.6021 320.126 54.0515 319.916 53.6781 319.496C53.3141 319.076 53.1321 318.46 53.1321 317.648V310.746C53.1321 310.27 53.3655 310.032 53.8321 310.032C54.3081 310.032 54.5461 310.27 54.5461 310.746V317.564C54.5461 318.488 54.9195 318.95 55.6661 318.95C55.7501 318.95 55.8248 318.945 55.8901 318.936C55.9555 318.927 56.0208 318.922 56.0861 318.922C56.1981 318.913 56.2775 318.945 56.3241 319.02C56.3708 319.085 56.3941 319.225 56.3941 319.44C56.3941 319.823 56.2168 320.042 55.8621 320.098C55.7688 320.107 55.6755 320.112 55.5821 320.112C55.4981 320.121 55.4141 320.126 55.3301 320.126ZM60.8291 320.126C59.7091 320.126 58.8271 319.813 58.1831 319.188C57.5391 318.553 57.2171 317.69 57.2171 316.598C57.2171 315.898 57.3571 315.282 57.6371 314.75C57.9264 314.209 58.3231 313.789 58.8271 313.49C59.3311 313.191 59.9097 313.042 60.5631 313.042C61.5057 313.042 62.2477 313.345 62.7891 313.952C63.3304 314.549 63.6011 315.375 63.6011 316.43C63.6011 316.747 63.4144 316.906 63.0411 316.906H58.5891C58.6917 318.325 59.4431 319.034 60.8431 319.034C61.1231 319.034 61.4171 319.001 61.7251 318.936C62.0331 318.861 62.3317 318.731 62.6211 318.544C62.8171 318.432 62.9851 318.395 63.1251 318.432C63.2744 318.46 63.3817 318.539 63.4471 318.67C63.5124 318.791 63.5217 318.931 63.4751 319.09C63.4377 319.239 63.3304 319.37 63.1531 319.482C62.8357 319.697 62.4624 319.86 62.0331 319.972C61.6131 320.075 61.2117 320.126 60.8291 320.126ZM60.6191 314.036C60.0311 314.036 59.5644 314.218 59.2191 314.582C58.8737 314.946 58.6637 315.431 58.5891 316.038H62.4111C62.3831 315.403 62.2151 314.913 61.9071 314.568C61.5991 314.213 61.1697 314.036 60.6191 314.036Z" fill="#333333"/>
<rect x="81" y="311.25" width="255" height="8" rx="4" fill="#F4F4F4"/>
<rect x="81" y="311.75" width="93.9474" height="8" rx="4" fill="#D982AA"/>
<path d="M33.918 355.098C33.4047 355.098 33.148 354.841 33.148 354.328V345.914C33.148 345.391 33.4093 345.13 33.932 345.13H38.916C39.3173 345.13 39.518 345.321 39.518 345.704C39.518 346.105 39.3173 346.306 38.916 346.306H34.604V349.456H38.636C39.0373 349.456 39.238 349.647 39.238 350.03C39.238 350.431 39.0373 350.632 38.636 350.632H34.604V354.328C34.604 354.841 34.3753 355.098 33.918 355.098ZM43.9722 355.126C42.8522 355.126 41.9702 354.813 41.3262 354.188C40.6822 353.553 40.3602 352.69 40.3602 351.598C40.3602 350.898 40.5002 350.282 40.7802 349.75C41.0695 349.209 41.4662 348.789 41.9702 348.49C42.4742 348.191 43.0529 348.042 43.7062 348.042C44.6489 348.042 45.3909 348.345 45.9322 348.952C46.4735 349.549 46.7442 350.375 46.7442 351.43C46.7442 351.747 46.5575 351.906 46.1842 351.906H41.7322C41.8349 353.325 42.5862 354.034 43.9862 354.034C44.2662 354.034 44.5602 354.001 44.8682 353.936C45.1762 353.861 45.4749 353.731 45.7642 353.544C45.9602 353.432 46.1282 353.395 46.2682 353.432C46.4175 353.46 46.5249 353.539 46.5902 353.67C46.6555 353.791 46.6649 353.931 46.6182 354.09C46.5809 354.239 46.4735 354.37 46.2962 354.482C45.9789 354.697 45.6055 354.86 45.1762 354.972C44.7562 355.075 44.3549 355.126 43.9722 355.126ZM43.7622 349.036C43.1742 349.036 42.7075 349.218 42.3622 349.582C42.0169 349.946 41.8069 350.431 41.7322 351.038H45.5542C45.5262 350.403 45.3582 349.913 45.0502 349.568C44.7422 349.213 44.3129 349.036 43.7622 349.036ZM49.2937 355.098C48.8271 355.098 48.5937 354.86 48.5937 354.384V348.784C48.5937 348.308 48.8224 348.07 49.2797 348.07C49.7371 348.07 49.9657 348.308 49.9657 348.784V349.274C50.1711 348.882 50.4557 348.579 50.8197 348.364C51.1837 348.149 51.6084 348.042 52.0937 348.042C53.1391 348.042 53.8157 348.499 54.1237 349.414C54.3384 348.985 54.6464 348.649 55.0477 348.406C55.4491 348.163 55.9064 348.042 56.4197 348.042C57.9504 348.042 58.7157 348.957 58.7157 350.786V354.384C58.7157 354.86 58.4777 355.098 58.0017 355.098C57.5351 355.098 57.3017 354.86 57.3017 354.384V350.856C57.3017 350.277 57.1991 349.853 56.9937 349.582C56.7977 349.311 56.4711 349.176 56.0137 349.176C55.5004 349.176 55.0944 349.358 54.7957 349.722C54.4971 350.077 54.3477 350.562 54.3477 351.178V354.384C54.3477 354.86 54.1144 355.098 53.6477 355.098C53.1717 355.098 52.9337 354.86 52.9337 354.384V350.856C52.9337 350.277 52.8357 349.853 52.6397 349.582C52.4437 349.311 52.1171 349.176 51.6597 349.176C51.1464 349.176 50.7404 349.358 50.4417 349.722C50.1524 350.077 50.0077 350.562 50.0077 351.178V354.384C50.0077 354.86 49.7697 355.098 49.2937 355.098ZM63.1567 355.126C62.6807 355.126 62.256 355.033 61.8827 354.846C61.5093 354.659 61.2107 354.407 60.9867 354.09C60.772 353.773 60.6647 353.413 60.6647 353.012C60.6647 352.508 60.7907 352.111 61.0427 351.822C61.304 351.533 61.7287 351.323 62.3167 351.192C62.914 351.061 63.7167 350.996 64.7247 350.996H65.2007V350.632C65.2007 350.1 65.0887 349.717 64.8647 349.484C64.6407 349.251 64.272 349.134 63.7587 349.134C63.46 349.134 63.1473 349.171 62.8207 349.246C62.5033 349.321 62.172 349.447 61.8267 349.624C61.6307 349.717 61.4673 349.731 61.3367 349.666C61.2153 349.601 61.1313 349.498 61.0847 349.358C61.038 349.218 61.0427 349.073 61.0987 348.924C61.1547 348.775 61.2713 348.663 61.4487 348.588C61.8593 348.401 62.2653 348.266 62.6667 348.182C63.068 348.089 63.446 348.042 63.8007 348.042C64.734 348.042 65.4247 348.266 65.8727 348.714C66.3207 349.153 66.5447 349.843 66.5447 350.786V354.384C66.5447 354.86 66.3253 355.098 65.8867 355.098C65.4387 355.098 65.2147 354.86 65.2147 354.384V353.866C65.0467 354.258 64.7853 354.566 64.4307 354.79C64.076 355.014 63.6513 355.126 63.1567 355.126ZM63.4367 354.118C63.9407 354.118 64.3607 353.941 64.6967 353.586C65.0327 353.231 65.2007 352.783 65.2007 352.242V351.864H64.7387C64.0573 351.864 63.5207 351.897 63.1287 351.962C62.746 352.027 62.4707 352.139 62.3027 352.298C62.144 352.447 62.0647 352.657 62.0647 352.928C62.0647 353.283 62.186 353.572 62.4287 353.796C62.6713 354.011 63.0073 354.118 63.4367 354.118ZM70.9702 355.126C70.2422 355.126 69.6915 354.916 69.3182 354.496C68.9542 354.076 68.7722 353.46 68.7722 352.648V345.746C68.7722 345.27 69.0055 345.032 69.4722 345.032C69.9482 345.032 70.1862 345.27 70.1862 345.746V352.564C70.1862 353.488 70.5595 353.95 71.3062 353.95C71.3902 353.95 71.4649 353.945 71.5302 353.936C71.5955 353.927 71.6609 353.922 71.7262 353.922C71.8382 353.913 71.9175 353.945 71.9642 354.02C72.0109 354.085 72.0342 354.225 72.0342 354.44C72.0342 354.823 71.8569 355.042 71.5022 355.098C71.4089 355.107 71.3155 355.112 71.2222 355.112C71.1382 355.121 71.0542 355.126 70.9702 355.126ZM76.4691 355.126C75.3491 355.126 74.4671 354.813 73.8231 354.188C73.1791 353.553 72.8571 352.69 72.8571 351.598C72.8571 350.898 72.9971 350.282 73.2771 349.75C73.5665 349.209 73.9631 348.789 74.4671 348.49C74.9711 348.191 75.5498 348.042 76.2031 348.042C77.1458 348.042 77.8878 348.345 78.4291 348.952C78.9705 349.549 79.2411 350.375 79.2411 351.43C79.2411 351.747 79.0545 351.906 78.6811 351.906H74.2291C74.3318 353.325 75.0831 354.034 76.4831 354.034C76.7631 354.034 77.0571 354.001 77.3651 353.936C77.6731 353.861 77.9718 353.731 78.2611 353.544C78.4571 353.432 78.6251 353.395 78.7651 353.432C78.9145 353.46 79.0218 353.539 79.0871 353.67C79.1525 353.791 79.1618 353.931 79.1151 354.09C79.0778 354.239 78.9705 354.37 78.7931 354.482C78.4758 354.697 78.1025 354.86 77.6731 354.972C77.2531 355.075 76.8518 355.126 76.4691 355.126ZM76.2591 349.036C75.6711 349.036 75.2045 349.218 74.8591 349.582C74.5138 349.946 74.3038 350.431 74.2291 351.038H78.0511C78.0231 350.403 77.8551 349.913 77.5471 349.568C77.2391 349.213 76.8098 349.036 76.2591 349.036Z" fill="#333333"/>
<rect x="96" y="346.25" width="240" height="8" rx="4" fill="#F4F4F4"/>
<rect x="96" y="346.75" width="168.097" height="8" rx="4" fill="#D982AA"/>
<path d="M37.432 390.126C36.4893 390.126 35.6727 389.921 34.982 389.51C34.2913 389.09 33.7547 388.502 33.372 387.746C32.9987 386.981 32.812 386.085 32.812 385.058C32.812 384.022 32.9987 383.126 33.372 382.37C33.7547 381.614 34.2913 381.031 34.982 380.62C35.6727 380.209 36.4893 380.004 37.432 380.004C38.3653 380.004 39.1773 380.209 39.868 380.62C40.568 381.031 41.1047 381.614 41.478 382.37C41.8607 383.126 42.052 384.017 42.052 385.044C42.052 386.08 41.8607 386.981 41.478 387.746C41.1047 388.502 40.568 389.09 39.868 389.51C39.1773 389.921 38.3653 390.126 37.432 390.126ZM37.432 388.866C38.412 388.866 39.1727 388.535 39.714 387.872C40.2647 387.2 40.54 386.262 40.54 385.058C40.54 383.854 40.2693 382.921 39.728 382.258C39.1867 381.595 38.4213 381.264 37.432 381.264C36.452 381.264 35.6867 381.595 35.136 382.258C34.5947 382.921 34.324 383.854 34.324 385.058C34.324 386.262 34.5947 387.2 35.136 387.872C35.6867 388.535 36.452 388.866 37.432 388.866ZM47.0415 390.126C46.1828 390.126 45.5435 389.907 45.1235 389.468C44.7035 389.029 44.4935 388.395 44.4935 387.564V384.26H43.6535C43.2615 384.26 43.0655 384.078 43.0655 383.714C43.0655 383.35 43.2615 383.168 43.6535 383.168H44.4935V381.726C44.4935 381.25 44.7315 381.012 45.2075 381.012C45.6741 381.012 45.9075 381.25 45.9075 381.726V383.168H47.5455C47.9375 383.168 48.1335 383.35 48.1335 383.714C48.1335 384.078 47.9375 384.26 47.5455 384.26H45.9075V387.452C45.9075 387.947 46.0101 388.32 46.2155 388.572C46.4301 388.824 46.7755 388.95 47.2515 388.95C47.4195 388.95 47.5641 388.936 47.6855 388.908C47.8068 388.871 47.9141 388.847 48.0075 388.838C48.1101 388.838 48.1941 388.875 48.2595 388.95C48.3248 389.015 48.3575 389.146 48.3575 389.342C48.3575 389.491 48.3295 389.627 48.2735 389.748C48.2268 389.86 48.1381 389.935 48.0075 389.972C47.8955 390.019 47.7415 390.056 47.5455 390.084C47.3588 390.112 47.1908 390.126 47.0415 390.126ZM50.3458 390.098C49.8791 390.098 49.6458 389.86 49.6458 389.384V380.746C49.6458 380.27 49.8791 380.032 50.3458 380.032C50.8218 380.032 51.0598 380.27 51.0598 380.746V384.232C51.2931 383.84 51.6058 383.546 51.9978 383.35C52.3991 383.145 52.8471 383.042 53.3418 383.042C54.9565 383.042 55.7638 383.957 55.7638 385.786V389.384C55.7638 389.86 55.5305 390.098 55.0638 390.098C54.5878 390.098 54.3498 389.86 54.3498 389.384V385.87C54.3498 385.282 54.2331 384.853 53.9998 384.582C53.7758 384.311 53.4211 384.176 52.9358 384.176C52.3665 384.176 51.9091 384.358 51.5638 384.722C51.2278 385.077 51.0598 385.548 51.0598 386.136V389.384C51.0598 389.86 50.8218 390.098 50.3458 390.098ZM61.1982 390.126C60.0782 390.126 59.1962 389.813 58.5522 389.188C57.9082 388.553 57.5862 387.69 57.5862 386.598C57.5862 385.898 57.7262 385.282 58.0062 384.75C58.2955 384.209 58.6922 383.789 59.1962 383.49C59.7002 383.191 60.2789 383.042 60.9322 383.042C61.8749 383.042 62.6169 383.345 63.1582 383.952C63.6995 384.549 63.9702 385.375 63.9702 386.43C63.9702 386.747 63.7835 386.906 63.4102 386.906H58.9582C59.0609 388.325 59.8122 389.034 61.2122 389.034C61.4922 389.034 61.7862 389.001 62.0942 388.936C62.4022 388.861 62.7009 388.731 62.9902 388.544C63.1862 388.432 63.3542 388.395 63.4942 388.432C63.6435 388.46 63.7509 388.539 63.8162 388.67C63.8815 388.791 63.8909 388.931 63.8442 389.09C63.8069 389.239 63.6995 389.37 63.5222 389.482C63.2049 389.697 62.8315 389.86 62.4022 389.972C61.9822 390.075 61.5809 390.126 61.1982 390.126ZM60.9882 384.036C60.4002 384.036 59.9335 384.218 59.5882 384.582C59.2429 384.946 59.0329 385.431 58.9582 386.038H62.7802C62.7522 385.403 62.5842 384.913 62.2762 384.568C61.9682 384.213 61.5389 384.036 60.9882 384.036ZM66.5057 390.098C66.0297 390.098 65.7917 389.86 65.7917 389.384V383.784C65.7917 383.308 66.0204 383.07 66.4777 383.07C66.9351 383.07 67.1637 383.308 67.1637 383.784V384.386C67.3504 383.966 67.6304 383.644 68.0037 383.42C68.3864 383.196 68.8484 383.065 69.3897 383.028C69.7351 383 69.9217 383.187 69.9497 383.588C69.9871 383.999 69.7864 384.223 69.3477 384.26L69.0817 384.288C67.8404 384.409 67.2197 385.049 67.2197 386.206V389.384C67.2197 389.86 66.9817 390.098 66.5057 390.098ZM73.62 390.126C73.2094 390.126 72.7847 390.079 72.346 389.986C71.9074 389.893 71.5107 389.734 71.156 389.51C70.9974 389.417 70.8994 389.3 70.862 389.16C70.8247 389.02 70.834 388.889 70.89 388.768C70.946 388.647 71.0347 388.563 71.156 388.516C71.2867 388.46 71.4314 388.474 71.59 388.558C71.954 388.754 72.304 388.894 72.64 388.978C72.976 389.062 73.3074 389.104 73.634 389.104C74.1287 389.104 74.502 389.015 74.754 388.838C75.006 388.661 75.132 388.423 75.132 388.124C75.132 387.881 75.048 387.695 74.88 387.564C74.712 387.424 74.46 387.317 74.124 387.242L72.794 386.976C71.618 386.733 71.03 386.127 71.03 385.156C71.03 384.512 71.2867 383.999 71.8 383.616C72.3134 383.233 72.9854 383.042 73.816 383.042C74.656 383.042 75.3794 383.247 75.986 383.658C76.1354 383.751 76.224 383.868 76.252 384.008C76.28 384.139 76.2614 384.265 76.196 384.386C76.1307 384.498 76.0327 384.577 75.902 384.624C75.7807 384.671 75.636 384.652 75.468 384.568C75.188 384.4 74.908 384.279 74.628 384.204C74.348 384.12 74.0774 384.078 73.816 384.078C73.3307 384.078 72.962 384.171 72.71 384.358C72.458 384.535 72.332 384.778 72.332 385.086C72.332 385.553 72.64 385.851 73.256 385.982L74.586 386.248C75.1927 386.369 75.65 386.575 75.958 386.864C76.2754 387.153 76.434 387.545 76.434 388.04C76.434 388.693 76.1774 389.207 75.664 389.58C75.1507 389.944 74.4694 390.126 73.62 390.126Z" fill="#333333"/>
<rect x="94" y="381.25" width="242" height="8" rx="4" fill="#F4F4F4"/>
<rect x="94" y="381.75" width="26.4534" height="8" rx="4" fill="#D982AA"/>
<defs>
<filter id="filter0_dd_2732_1956" x="0" y="0" width="366" height="463" filterUnits="userSpaceOnUse" color-interpolation-filters="sRGB">
<feFlood flood-opacity="0" result="BackgroundImageFix"/>
<feColorMatrix in="SourceAlpha" type="matrix" values="0 0 0 0 0 0 0 0 0 0 0 0 0 0 0 0 0 0 127 0" result="hardAlpha"/>
<feOffset dy="2"/>
<feGaussianBlur stdDeviation="4"/>
<feComposite in2="hardAlpha" operator="out"/>
<feColorMatrix type="matrix" values="0 0 0 0 0 0 0 0 0 0 0 0 0 0 0 0 0 0 0.05 0"/>
<feBlend mode="normal" in2="BackgroundImageFix" result="effect1_dropShadow_2732_1956"/>
<feColorMatrix in="SourceAlpha" type="matrix" values="0 0 0 0 0 0 0 0 0 0 0 0 0 0 0 0 0 0 127 0" result="hardAlpha"/>
<feOffset dy="-2"/>
<feGaussianBlur stdDeviation="4"/>
<feComposite in2="hardAlpha" operator="out"/>
<feColorMatrix type="matrix" values="0 0 0 0 0 0 0 0 0 0 0 0 0 0 0 0 0 0 0.05 0"/>
<feBlend mode="normal" in2="effect1_dropShadow_2732_1956" result="effect2_dropShadow_2732_1956"/>
<feBlend mode="normal" in="SourceGraphic" in2="effect2_dropShadow_2732_1956" result="shape"/>
</filter>
</defs>
</svg>
