<svg width="473" height="270" viewBox="0 0 473 270" fill="none" xmlns="http://www.w3.org/2000/svg">
<rect width="473" height="270" fill="#F4F4F4"/>
<rect width="42" height="270" fill="#CCCCCC" fill-opacity="0.4"/>
<path d="M19.396 30.103C19.552 30.103 19.6733 30.142 19.76 30.22C19.8467 30.298 19.89 30.4063 19.89 30.545C19.89 30.6923 19.8467 30.805 19.76 30.883C19.682 30.961 19.5607 31 19.396 31H15.093C14.9283 31 14.8027 30.961 14.716 30.883C14.638 30.805 14.599 30.6923 14.599 30.545C14.599 30.4063 14.6423 30.298 14.729 30.22C14.8157 30.142 14.937 30.103 15.093 30.103H16.705V23.135L15.288 24.058C15.2187 24.1013 15.1493 24.123 15.08 24.123C14.9587 24.123 14.8503 24.0667 14.755 23.954C14.6683 23.8413 14.625 23.72 14.625 23.59C14.625 23.408 14.6943 23.278 14.833 23.2L16.809 21.913C16.9563 21.8177 17.108 21.77 17.264 21.77C17.4113 21.77 17.5327 21.8177 17.628 21.913C17.7233 22.0083 17.771 22.1427 17.771 22.316V30.103H19.396Z" fill="#333333"/>
<path d="M19.604 88.103C19.76 88.103 19.8813 88.142 19.968 88.22C20.0547 88.298 20.098 88.4063 20.098 88.545C20.098 88.8483 19.9333 89 19.604 89H14.508C14.3607 89 14.2393 88.9567 14.144 88.87C14.0487 88.7747 14.001 88.662 14.001 88.532C14.001 88.3673 14.0617 88.2243 14.183 88.103L17.316 84.658C17.7493 84.1727 18.0613 83.7393 18.252 83.358C18.4513 82.968 18.551 82.578 18.551 82.188C18.551 81.6853 18.4037 81.2997 18.109 81.031C17.823 80.7623 17.4157 80.628 16.887 80.628C16.471 80.628 16.0723 80.706 15.691 80.862C15.3097 81.0093 14.9283 81.239 14.547 81.551C14.417 81.655 14.2957 81.707 14.183 81.707C14.0877 81.707 14.0053 81.6637 13.936 81.577C13.8667 81.4817 13.832 81.369 13.832 81.239C13.832 81.057 13.9013 80.9097 14.04 80.797C14.3953 80.4677 14.8287 80.2077 15.34 80.017C15.8513 79.8263 16.3757 79.731 16.913 79.731C17.7363 79.731 18.3907 79.9477 18.876 80.381C19.37 80.8143 19.617 81.3993 19.617 82.136C19.617 82.6647 19.4957 83.1717 19.253 83.657C19.019 84.1423 18.629 84.684 18.083 85.282L15.483 88.103H19.604Z" fill="#333333"/>
<path d="M18.122 145.294C18.6767 145.45 19.097 145.719 19.383 146.1C19.6777 146.481 19.825 146.954 19.825 147.517C19.825 148.314 19.5563 148.943 19.019 149.402C18.4817 149.861 17.7493 150.091 16.822 150.091C16.2587 150.091 15.717 149.996 15.197 149.805C14.6857 149.614 14.2523 149.354 13.897 149.025C13.7583 148.895 13.689 148.748 13.689 148.583C13.689 148.453 13.7237 148.345 13.793 148.258C13.8623 148.171 13.9447 148.128 14.04 148.128C14.1613 148.128 14.2827 148.176 14.404 148.271C14.8027 148.592 15.1927 148.826 15.574 148.973C15.9553 149.12 16.367 149.194 16.809 149.194C17.4503 149.194 17.9357 149.047 18.265 148.752C18.603 148.457 18.772 148.033 18.772 147.478C18.772 146.36 18.07 145.801 16.666 145.801H15.977C15.8383 145.801 15.7257 145.758 15.639 145.671C15.561 145.576 15.522 145.467 15.522 145.346C15.522 145.225 15.561 145.121 15.639 145.034C15.7257 144.947 15.8383 144.904 15.977 144.904H16.458C17.134 144.904 17.654 144.757 18.018 144.462C18.382 144.159 18.564 143.725 18.564 143.162C18.564 142.668 18.4167 142.291 18.122 142.031C17.8273 141.762 17.4113 141.628 16.874 141.628C16.4667 141.628 16.0723 141.706 15.691 141.862C15.3097 142.009 14.9283 142.239 14.547 142.551C14.4257 142.646 14.3043 142.694 14.183 142.694C14.0877 142.694 14.0053 142.651 13.936 142.564C13.8667 142.477 13.832 142.369 13.832 142.239C13.832 142.074 13.9013 141.927 14.04 141.797C14.3953 141.468 14.8243 141.208 15.327 141.017C15.8383 140.826 16.3627 140.731 16.9 140.731C17.732 140.731 18.3907 140.943 18.876 141.368C19.37 141.784 19.617 142.347 19.617 143.058C19.617 143.587 19.4827 144.05 19.214 144.449C18.954 144.839 18.59 145.121 18.122 145.294Z" fill="#333333"/>
<path d="M19.929 206.127C20.085 206.127 20.2063 206.17 20.293 206.257C20.3797 206.335 20.423 206.439 20.423 206.569C20.423 206.864 20.2583 207.011 19.929 207.011H18.954V208.519C18.954 208.692 18.902 208.827 18.798 208.922C18.7027 209.017 18.577 209.065 18.421 209.065C18.265 209.065 18.1393 209.017 18.044 208.922C17.9487 208.827 17.901 208.692 17.901 208.519V207.011H14.053C13.897 207.011 13.7757 206.968 13.689 206.881C13.6023 206.794 13.559 206.686 13.559 206.556C13.559 206.435 13.6067 206.3 13.702 206.153L17.953 200.004C18.0743 199.848 18.2303 199.77 18.421 199.77C18.5683 199.77 18.694 199.818 18.798 199.913C18.902 200.008 18.954 200.143 18.954 200.316V206.127H19.929ZM17.901 206.127V201.616L14.768 206.127H17.901Z" fill="#333333"/>
<path d="M17.251 249.254C17.8317 249.254 18.3387 249.375 18.772 249.618C19.214 249.861 19.552 250.203 19.786 250.645C20.0287 251.078 20.15 251.581 20.15 252.153C20.15 252.725 20.02 253.236 19.76 253.687C19.5 254.129 19.136 254.476 18.668 254.727C18.2087 254.97 17.6757 255.091 17.069 255.091C16.5317 255.091 16.0073 254.996 15.496 254.805C14.9847 254.614 14.5513 254.354 14.196 254.025C14.0573 253.895 13.988 253.748 13.988 253.583C13.988 253.453 14.0227 253.345 14.092 253.258C14.1613 253.171 14.2437 253.128 14.339 253.128C14.4603 253.128 14.5817 253.176 14.703 253.271C15.0843 253.583 15.4657 253.817 15.847 253.973C16.2283 254.12 16.627 254.194 17.043 254.194C17.6843 254.194 18.187 254.012 18.551 253.648C18.915 253.284 19.097 252.79 19.097 252.166C19.097 251.559 18.915 251.07 18.551 250.697C18.187 250.324 17.6973 250.138 17.082 250.138C16.2933 250.138 15.652 250.441 15.158 251.048C15.0367 251.178 14.8893 251.243 14.716 251.243C14.5947 251.243 14.4907 251.208 14.404 251.139C14.326 251.061 14.287 250.957 14.287 250.827V246.342C14.287 246.195 14.3303 246.073 14.417 245.978C14.5123 245.883 14.6423 245.835 14.807 245.835H19.383C19.539 245.835 19.6603 245.874 19.747 245.952C19.8423 246.03 19.89 246.138 19.89 246.277C19.89 246.416 19.8423 246.524 19.747 246.602C19.6603 246.68 19.539 246.719 19.383 246.719H15.34V249.982C15.5827 249.748 15.8643 249.57 16.185 249.449C16.5143 249.319 16.8697 249.254 17.251 249.254Z" fill="#333333"/>
</svg>
